G75*
%MOIN*%
%OFA0B0*%
%FSLAX25Y25*%
%IPPOS*%
%LPD*%
%AMOC8*
5,1,8,0,0,1.08239X$1,22.5*
%
%ADD10R,0.04488X0.00787*%
%ADD11C,0.04000*%
%ADD12R,0.02756X0.03543*%
%ADD13C,0.02700*%
%ADD14C,0.00600*%
%ADD15C,0.01600*%
%ADD16C,0.03369*%
%ADD17C,0.01200*%
%ADD18C,0.00700*%
D10*
X0126611Y0025354D03*
X0126611Y0026928D03*
X0126611Y0028503D03*
X0126611Y0030078D03*
X0126611Y0031653D03*
X0126611Y0033228D03*
X0126611Y0034802D03*
X0126611Y0036377D03*
X0126611Y0037952D03*
X0126611Y0039527D03*
X0126611Y0041102D03*
X0126611Y0042676D03*
X0126611Y0044251D03*
X0126611Y0045826D03*
X0126611Y0047401D03*
X0126611Y0048976D03*
X0126611Y0050550D03*
X0126611Y0052125D03*
X0126611Y0053700D03*
X0126611Y0055275D03*
X0126611Y0056850D03*
X0126611Y0058424D03*
X0126611Y0059999D03*
X0126611Y0061574D03*
X0126611Y0063149D03*
X0126611Y0064724D03*
X0126611Y0066298D03*
X0126611Y0067873D03*
X0126611Y0069448D03*
X0126611Y0071023D03*
X0126611Y0072598D03*
X0126611Y0074172D03*
X0126611Y0075747D03*
X0126611Y0077322D03*
X0126611Y0078897D03*
X0126611Y0080472D03*
X0126611Y0082046D03*
X0137005Y0082046D03*
X0137005Y0080472D03*
X0137005Y0078897D03*
X0137005Y0077322D03*
X0137005Y0075747D03*
X0137005Y0074172D03*
X0137005Y0072598D03*
X0137005Y0071023D03*
X0137005Y0069448D03*
X0137005Y0067873D03*
X0137005Y0066298D03*
X0137005Y0064724D03*
X0137005Y0063149D03*
X0137005Y0061574D03*
X0137005Y0059999D03*
X0137005Y0058424D03*
X0137005Y0056850D03*
X0137005Y0055275D03*
X0137005Y0053700D03*
X0137005Y0052125D03*
X0137005Y0050550D03*
X0137005Y0048976D03*
X0137005Y0047401D03*
X0137005Y0045826D03*
X0137005Y0044251D03*
X0137005Y0042676D03*
X0137005Y0041102D03*
X0137005Y0039527D03*
X0137005Y0037952D03*
X0137005Y0036377D03*
X0137005Y0034802D03*
X0137005Y0033228D03*
X0137005Y0031653D03*
X0137005Y0030078D03*
X0137005Y0028503D03*
X0137005Y0026928D03*
X0137005Y0025354D03*
D11*
X0134800Y0189000D03*
X0129800Y0189000D03*
X0124800Y0189000D03*
X0119800Y0189000D03*
X0114800Y0189000D03*
X0109800Y0189000D03*
X0104800Y0189000D03*
X0099800Y0189000D03*
X0094800Y0189000D03*
X0089800Y0189000D03*
X0084800Y0189000D03*
X0079800Y0189000D03*
X0074800Y0189000D03*
X0069800Y0189000D03*
X0064800Y0189000D03*
X0059800Y0189000D03*
X0054800Y0189000D03*
X0049800Y0189000D03*
X0044800Y0189000D03*
X0039800Y0189000D03*
X0034800Y0189000D03*
X0029800Y0189000D03*
X0029800Y0199000D03*
X0034800Y0199000D03*
X0039800Y0199000D03*
X0044800Y0199000D03*
X0049800Y0199000D03*
X0054800Y0199000D03*
X0059800Y0199000D03*
X0064800Y0199000D03*
X0069800Y0199000D03*
X0074800Y0199000D03*
X0079800Y0199000D03*
X0084800Y0199000D03*
X0089800Y0199000D03*
X0094800Y0199000D03*
X0099800Y0199000D03*
X0104800Y0199000D03*
X0109800Y0199000D03*
X0114800Y0199000D03*
X0119800Y0199000D03*
X0124800Y0199000D03*
X0129800Y0199000D03*
X0134800Y0199000D03*
X0139800Y0199000D03*
X0144800Y0199000D03*
X0149800Y0199000D03*
X0154800Y0199000D03*
X0159800Y0199000D03*
X0164800Y0199000D03*
X0169800Y0199000D03*
X0174800Y0199000D03*
X0179800Y0199000D03*
X0184800Y0199000D03*
X0189800Y0199000D03*
X0194800Y0199000D03*
X0194800Y0189000D03*
X0189800Y0189000D03*
X0184800Y0189000D03*
X0179800Y0189000D03*
X0174800Y0189000D03*
X0169800Y0189000D03*
X0164800Y0189000D03*
X0159800Y0189000D03*
X0154800Y0189000D03*
X0149800Y0189000D03*
X0144800Y0189000D03*
X0139800Y0189000D03*
D12*
X0117359Y0177000D03*
X0112241Y0177000D03*
D13*
X0137300Y0185500D03*
X0094800Y0215000D03*
X0169300Y0123000D03*
X0128300Y0090500D03*
X0121600Y0081000D03*
X0120300Y0076800D03*
X0116300Y0079400D03*
X0113200Y0077100D03*
X0113200Y0072100D03*
X0109900Y0070700D03*
X0116600Y0071000D03*
X0120300Y0064800D03*
X0112200Y0063700D03*
X0108000Y0063600D03*
X0103800Y0065100D03*
X0107200Y0059000D03*
X0110500Y0054700D03*
X0113900Y0053000D03*
X0118900Y0056000D03*
X0122300Y0050300D03*
X0117500Y0044800D03*
X0117600Y0038200D03*
X0113200Y0032700D03*
X0116900Y0031000D03*
X0118300Y0022100D03*
X0121300Y0019900D03*
X0131800Y0021500D03*
X0139100Y0022700D03*
X0143100Y0022800D03*
X0147700Y0023400D03*
X0149200Y0026700D03*
X0144800Y0031600D03*
X0150100Y0033300D03*
X0152700Y0036100D03*
X0157600Y0036400D03*
X0157800Y0040000D03*
X0150500Y0044600D03*
X0146800Y0046200D03*
X0142600Y0046800D03*
X0144000Y0040600D03*
X0142400Y0054400D03*
X0143000Y0062000D03*
X0149200Y0059900D03*
X0153800Y0062400D03*
X0153800Y0067700D03*
X0151900Y0070800D03*
X0151100Y0074300D03*
X0147300Y0073300D03*
X0144103Y0075000D03*
X0141800Y0071200D03*
X0142900Y0078300D03*
X0141903Y0081900D03*
X0154500Y0057400D03*
X0150600Y0053600D03*
X0160000Y0049900D03*
X0161300Y0053700D03*
X0169300Y0016500D03*
X0109000Y0041900D03*
X0106300Y0046500D03*
X0109700Y0048700D03*
X0103200Y0040600D03*
X0102100Y0035600D03*
X0099900Y0028400D03*
X0102100Y0025300D03*
X0105800Y0023500D03*
X0214800Y0212000D03*
D14*
X0211800Y0203500D02*
X0211800Y0183500D01*
X0198800Y0170500D01*
X0198300Y0172000D02*
X0193300Y0172000D01*
X0191800Y0170500D01*
X0191300Y0172000D02*
X0188300Y0172000D01*
X0186800Y0170500D01*
X0186300Y0172000D02*
X0183300Y0172000D01*
X0181800Y0170500D01*
X0181300Y0172000D02*
X0177800Y0172000D01*
X0176300Y0170500D01*
X0175800Y0172000D02*
X0173300Y0172000D01*
X0171800Y0170500D01*
X0171300Y0172000D02*
X0168300Y0172000D01*
X0166800Y0170500D01*
X0166300Y0172000D02*
X0162800Y0172000D01*
X0159300Y0168500D01*
X0157800Y0169000D02*
X0162300Y0173500D01*
X0165800Y0173500D01*
X0167300Y0175000D01*
X0170300Y0175000D01*
X0171800Y0176500D01*
X0174300Y0176500D01*
X0175800Y0178000D01*
X0179300Y0178000D01*
X0180800Y0179500D01*
X0183800Y0179500D01*
X0185300Y0181000D01*
X0188300Y0181000D01*
X0189800Y0182500D01*
X0194300Y0182500D01*
X0195800Y0184000D01*
X0196300Y0184000D01*
X0199800Y0187500D01*
X0199800Y0199500D01*
X0196800Y0202500D01*
X0193300Y0202500D01*
X0189800Y0199000D01*
X0188300Y0203000D02*
X0191300Y0203000D01*
X0192300Y0204000D01*
X0197300Y0204000D01*
X0201300Y0200000D01*
X0201300Y0187000D01*
X0195300Y0181000D01*
X0190300Y0181000D01*
X0188800Y0179500D01*
X0185800Y0179500D01*
X0184300Y0178000D01*
X0181300Y0178000D01*
X0179800Y0176500D01*
X0176300Y0176500D01*
X0174800Y0175000D01*
X0172300Y0175000D01*
X0170800Y0173500D01*
X0167800Y0173500D01*
X0166300Y0172000D01*
X0165300Y0175000D02*
X0161800Y0175000D01*
X0156300Y0169500D01*
X0155000Y0170000D02*
X0157800Y0173000D01*
X0161300Y0176500D01*
X0164800Y0176500D01*
X0166300Y0178000D01*
X0169300Y0178000D01*
X0170800Y0179500D01*
X0173300Y0179500D01*
X0174800Y0181000D01*
X0178300Y0181000D01*
X0179800Y0182500D01*
X0182800Y0182500D01*
X0184300Y0184000D01*
X0187300Y0184000D01*
X0188800Y0185500D01*
X0193300Y0185500D01*
X0194800Y0187000D01*
X0194800Y0189000D01*
X0195300Y0185500D02*
X0193800Y0184000D01*
X0189300Y0184000D01*
X0187800Y0182500D01*
X0184800Y0182500D01*
X0183300Y0181000D01*
X0180300Y0181000D01*
X0178800Y0179500D01*
X0175300Y0179500D01*
X0173800Y0178000D01*
X0171300Y0178000D01*
X0169800Y0176500D01*
X0166800Y0176500D01*
X0165300Y0175000D01*
X0164300Y0178000D02*
X0160800Y0178000D01*
X0159300Y0176500D01*
X0157300Y0176500D01*
X0152800Y0172000D01*
X0138300Y0172000D01*
X0138300Y0107500D01*
X0155800Y0090000D01*
X0155800Y0087500D01*
X0157800Y0085500D01*
X0157800Y0083000D01*
X0162300Y0078500D01*
X0162300Y0070000D01*
X0160800Y0068500D01*
X0160800Y0060500D01*
X0157300Y0057000D01*
X0154700Y0057000D01*
X0154500Y0057400D01*
X0150800Y0057400D01*
X0148900Y0057500D01*
X0146800Y0057500D01*
X0145900Y0056800D01*
X0141300Y0056800D01*
X0139575Y0055275D01*
X0137005Y0055275D01*
X0137005Y0056850D02*
X0139450Y0056850D01*
X0140800Y0058200D01*
X0144600Y0058200D01*
X0146700Y0059900D01*
X0149200Y0059900D01*
X0149000Y0059900D01*
X0149200Y0059900D02*
X0157300Y0059900D01*
X0158900Y0061500D01*
X0159300Y0069000D01*
X0160800Y0070500D01*
X0160800Y0078000D01*
X0156300Y0082500D01*
X0156300Y0085000D01*
X0154300Y0087000D01*
X0154300Y0089500D01*
X0136800Y0107000D01*
X0136800Y0173500D01*
X0152300Y0173500D01*
X0156800Y0178000D01*
X0158800Y0178000D01*
X0160300Y0179500D01*
X0163800Y0179500D01*
X0165300Y0181000D01*
X0168300Y0181000D01*
X0169800Y0182500D01*
X0172300Y0182500D01*
X0173800Y0184000D01*
X0177300Y0184000D01*
X0178800Y0185500D01*
X0181800Y0185500D01*
X0184800Y0188500D01*
X0184800Y0189000D01*
X0183800Y0185500D02*
X0182300Y0184000D01*
X0179300Y0184000D01*
X0177800Y0182500D01*
X0174300Y0182500D01*
X0172800Y0181000D01*
X0170300Y0181000D01*
X0168800Y0179500D01*
X0165800Y0179500D01*
X0164300Y0178000D01*
X0163300Y0181000D02*
X0159800Y0181000D01*
X0158300Y0179500D01*
X0156300Y0179500D01*
X0151800Y0175000D01*
X0135300Y0175000D01*
X0135300Y0106500D01*
X0152800Y0089000D01*
X0152800Y0086500D01*
X0154800Y0084500D01*
X0154800Y0082000D01*
X0159300Y0077500D01*
X0159300Y0071000D01*
X0157800Y0069500D01*
X0157800Y0066000D01*
X0156300Y0064500D01*
X0156300Y0062300D01*
X0153800Y0062400D01*
X0148800Y0062400D01*
X0147100Y0061700D01*
X0146400Y0061700D01*
X0143900Y0059600D01*
X0142000Y0059600D01*
X0141401Y0059999D01*
X0137005Y0059999D01*
X0137005Y0061574D02*
X0142574Y0061574D01*
X0143000Y0062000D01*
X0144000Y0063000D01*
X0145900Y0063000D01*
X0147000Y0064100D01*
X0151900Y0064100D01*
X0152800Y0064800D01*
X0154800Y0064800D01*
X0156300Y0066500D01*
X0156300Y0070000D01*
X0157800Y0071500D01*
X0157800Y0077000D01*
X0153300Y0081500D01*
X0153300Y0084000D01*
X0151300Y0086000D01*
X0151300Y0088500D01*
X0133800Y0106000D01*
X0133800Y0176500D01*
X0151300Y0176500D01*
X0155800Y0181000D01*
X0157800Y0181000D01*
X0159300Y0182500D01*
X0162800Y0182500D01*
X0164300Y0184000D01*
X0167300Y0184000D01*
X0168800Y0185500D01*
X0171300Y0185500D01*
X0174800Y0189000D01*
X0173300Y0185500D02*
X0171800Y0184000D01*
X0169300Y0184000D01*
X0167800Y0182500D01*
X0164800Y0182500D01*
X0163300Y0181000D01*
X0162300Y0184000D02*
X0158800Y0184000D01*
X0157300Y0182500D01*
X0155300Y0182500D01*
X0150800Y0178000D01*
X0132300Y0178000D01*
X0132300Y0105500D01*
X0149800Y0088000D01*
X0149800Y0085500D01*
X0151800Y0083500D01*
X0151800Y0081000D01*
X0156300Y0076500D01*
X0156300Y0072000D01*
X0154800Y0070500D01*
X0154800Y0068300D01*
X0153800Y0067700D01*
X0151600Y0065500D01*
X0146400Y0065500D01*
X0145300Y0064400D01*
X0142000Y0064400D01*
X0140549Y0063149D01*
X0137005Y0063149D01*
X0137005Y0064724D02*
X0140224Y0064724D01*
X0141300Y0065800D01*
X0144500Y0065800D01*
X0145500Y0066800D01*
X0149500Y0066800D01*
X0151900Y0070800D01*
X0154800Y0072900D01*
X0154800Y0075500D01*
X0153300Y0077000D01*
X0151800Y0077000D01*
X0150300Y0078500D01*
X0150300Y0083000D01*
X0148300Y0085000D01*
X0148300Y0087500D01*
X0130800Y0105000D01*
X0130800Y0179500D01*
X0150300Y0179500D01*
X0154800Y0184000D01*
X0156800Y0184000D01*
X0158300Y0185500D01*
X0161800Y0185500D01*
X0164800Y0188500D01*
X0164800Y0189000D01*
X0163800Y0185500D02*
X0162300Y0184000D01*
X0163800Y0185500D02*
X0166800Y0185500D01*
X0169800Y0188500D01*
X0169800Y0189000D01*
X0173300Y0185500D02*
X0176800Y0185500D01*
X0179800Y0188500D01*
X0179800Y0189000D01*
X0183800Y0185500D02*
X0186800Y0185500D01*
X0189800Y0188500D01*
X0189800Y0189000D01*
X0194800Y0194000D02*
X0198300Y0190500D01*
X0198300Y0188000D01*
X0195800Y0185500D01*
X0195300Y0185500D01*
X0195800Y0179500D02*
X0190800Y0179500D01*
X0189300Y0178000D01*
X0186300Y0178000D01*
X0184800Y0176500D01*
X0181800Y0176500D01*
X0180300Y0175000D01*
X0176800Y0175000D01*
X0175300Y0173500D01*
X0172800Y0173500D01*
X0171300Y0172000D01*
X0175800Y0172000D02*
X0177300Y0173500D01*
X0180800Y0173500D01*
X0182300Y0175000D01*
X0185300Y0175000D01*
X0186800Y0176500D01*
X0189800Y0176500D01*
X0191300Y0178000D01*
X0196300Y0178000D01*
X0204300Y0186000D01*
X0204300Y0201000D01*
X0198300Y0207000D01*
X0191300Y0207000D01*
X0190300Y0206000D01*
X0187300Y0206000D01*
X0185800Y0204500D01*
X0182300Y0204500D01*
X0180800Y0203000D01*
X0177800Y0203000D01*
X0174800Y0200000D01*
X0174800Y0199000D01*
X0175800Y0203000D02*
X0173300Y0203000D01*
X0169800Y0199500D01*
X0169800Y0199000D01*
X0171800Y0203500D02*
X0163300Y0203500D01*
X0159800Y0200000D01*
X0159800Y0199000D01*
X0154800Y0199000D02*
X0154800Y0199500D01*
X0160300Y0205000D01*
X0171300Y0205000D01*
X0172300Y0206000D01*
X0174800Y0206000D01*
X0176300Y0207500D01*
X0179300Y0207500D01*
X0180800Y0209000D01*
X0184300Y0209000D01*
X0185800Y0210500D01*
X0188800Y0210500D01*
X0189800Y0211500D01*
X0199800Y0211500D01*
X0208800Y0202500D01*
X0208800Y0184500D01*
X0197800Y0173500D01*
X0192800Y0173500D01*
X0191300Y0172000D01*
X0190800Y0173500D02*
X0187800Y0173500D01*
X0186300Y0172000D01*
X0185800Y0173500D02*
X0182800Y0173500D01*
X0181300Y0172000D01*
X0185800Y0173500D02*
X0187300Y0175000D01*
X0190300Y0175000D01*
X0191800Y0176500D01*
X0196800Y0176500D01*
X0205800Y0185500D01*
X0205800Y0201500D01*
X0198800Y0208500D01*
X0190800Y0208500D01*
X0189800Y0207500D01*
X0186800Y0207500D01*
X0185300Y0206000D01*
X0181800Y0206000D01*
X0180300Y0204500D01*
X0177300Y0204500D01*
X0175800Y0203000D01*
X0175300Y0204500D02*
X0172800Y0204500D01*
X0171800Y0203500D01*
X0170800Y0206500D02*
X0171800Y0207500D01*
X0174300Y0207500D01*
X0175800Y0209000D01*
X0178800Y0209000D01*
X0180300Y0210500D01*
X0183800Y0210500D01*
X0185300Y0212000D01*
X0188300Y0212000D01*
X0189300Y0213000D01*
X0200300Y0213000D01*
X0210300Y0203000D01*
X0210300Y0184000D01*
X0198300Y0172000D01*
X0197300Y0175000D02*
X0192300Y0175000D01*
X0190800Y0173500D01*
X0195800Y0179500D02*
X0202800Y0186500D01*
X0202800Y0200500D01*
X0197800Y0205500D01*
X0191800Y0205500D01*
X0190800Y0204500D01*
X0187800Y0204500D01*
X0186300Y0203000D01*
X0182800Y0203000D01*
X0179800Y0200000D01*
X0179800Y0199000D01*
X0184800Y0199000D02*
X0184800Y0199500D01*
X0188300Y0203000D01*
X0184800Y0207500D02*
X0186300Y0209000D01*
X0189300Y0209000D01*
X0190300Y0210000D01*
X0199300Y0210000D01*
X0207300Y0202000D01*
X0207300Y0185000D01*
X0197300Y0175000D01*
X0194800Y0194000D02*
X0194800Y0199000D01*
X0184800Y0207500D02*
X0181300Y0207500D01*
X0179800Y0206000D01*
X0176800Y0206000D01*
X0175300Y0204500D01*
X0173800Y0209000D02*
X0171300Y0209000D01*
X0170300Y0208000D01*
X0159300Y0208000D01*
X0155300Y0204000D01*
X0149800Y0204000D01*
X0144800Y0199000D01*
X0149800Y0199000D02*
X0149800Y0200000D01*
X0152300Y0202500D01*
X0155800Y0202500D01*
X0159800Y0206500D01*
X0170800Y0206500D01*
X0173800Y0209000D02*
X0175300Y0210500D01*
X0178300Y0210500D01*
X0179800Y0212000D01*
X0183300Y0212000D01*
X0184800Y0213500D01*
X0187800Y0213500D01*
X0188800Y0214500D01*
X0200800Y0214500D02*
X0211800Y0203500D01*
X0159800Y0189000D02*
X0156300Y0185500D01*
X0154300Y0185500D01*
X0149800Y0181000D01*
X0129300Y0181000D01*
X0129300Y0104500D01*
X0146800Y0087000D01*
X0146800Y0084500D01*
X0148800Y0082500D01*
X0148800Y0077000D01*
X0149600Y0077000D01*
X0151100Y0074300D01*
X0147200Y0068200D01*
X0145200Y0068200D01*
X0144000Y0067000D01*
X0140800Y0067000D01*
X0140098Y0066298D01*
X0137005Y0066298D01*
X0137005Y0067873D02*
X0139973Y0067873D01*
X0140500Y0068400D01*
X0143400Y0068400D01*
X0147300Y0073300D01*
X0147300Y0082000D01*
X0145300Y0084000D01*
X0145300Y0086500D01*
X0127800Y0104000D01*
X0127800Y0182500D01*
X0149300Y0182500D01*
X0154800Y0188000D01*
X0154800Y0189000D01*
X0129800Y0189000D02*
X0129800Y0188000D01*
X0125800Y0184000D01*
X0125800Y0104000D01*
X0143800Y0086000D01*
X0143800Y0083500D01*
X0145800Y0081500D01*
X0145800Y0076697D01*
X0144103Y0075000D01*
X0143356Y0075747D01*
X0137005Y0075747D01*
X0137005Y0074172D02*
X0140177Y0071000D01*
X0141800Y0071000D01*
X0140202Y0072598D01*
X0137005Y0072598D01*
X0137005Y0071023D02*
X0131823Y0071023D01*
X0131800Y0071000D01*
X0131800Y0021500D01*
X0139100Y0022700D02*
X0140700Y0024300D01*
X0140700Y0026400D01*
X0140172Y0026928D01*
X0137005Y0026928D01*
X0137005Y0028503D02*
X0140397Y0028503D01*
X0142000Y0026900D01*
X0142000Y0023900D01*
X0143100Y0022800D01*
X0144400Y0026400D02*
X0147700Y0023400D01*
X0149200Y0026700D02*
X0147000Y0029000D01*
X0143700Y0029000D01*
X0141047Y0031653D01*
X0137005Y0031653D01*
X0137005Y0033228D02*
X0140572Y0033228D01*
X0140900Y0032900D01*
X0143500Y0032900D01*
X0144800Y0031600D01*
X0141400Y0034200D02*
X0148600Y0034200D01*
X0150100Y0033300D01*
X0150400Y0036300D02*
X0147500Y0036300D01*
X0146100Y0035600D01*
X0141900Y0035600D01*
X0140923Y0036377D01*
X0137005Y0036377D01*
X0137005Y0034802D02*
X0140798Y0034802D01*
X0141400Y0034200D01*
X0142400Y0036800D02*
X0145600Y0036800D01*
X0148000Y0038500D01*
X0154900Y0038500D01*
X0157600Y0036400D01*
X0160700Y0039500D01*
X0167800Y0039500D01*
X0174800Y0046500D01*
X0174800Y0054000D01*
X0175800Y0055000D01*
X0175800Y0063500D01*
X0177300Y0065000D01*
X0177300Y0083500D01*
X0172800Y0088000D01*
X0172800Y0090500D01*
X0170800Y0092500D01*
X0170800Y0095000D01*
X0169300Y0094500D02*
X0169300Y0092000D01*
X0171300Y0090000D01*
X0171300Y0087500D01*
X0175800Y0083000D01*
X0175800Y0065500D01*
X0174300Y0064000D01*
X0174300Y0055500D01*
X0173300Y0054500D01*
X0173300Y0047000D01*
X0167300Y0041000D01*
X0158800Y0041000D01*
X0157800Y0040000D01*
X0157300Y0040500D01*
X0153300Y0040500D01*
X0152800Y0040000D01*
X0146800Y0040000D01*
X0144800Y0038000D01*
X0143000Y0038000D01*
X0141473Y0039527D01*
X0137005Y0039527D01*
X0137006Y0041100D02*
X0137005Y0041102D01*
X0137006Y0041100D02*
X0143300Y0041100D01*
X0144000Y0040600D01*
X0145100Y0041500D01*
X0151800Y0041500D01*
X0152800Y0042500D01*
X0166800Y0042500D01*
X0171800Y0047500D01*
X0171800Y0055000D01*
X0172800Y0056000D01*
X0172800Y0064500D01*
X0174300Y0066000D01*
X0174300Y0082500D01*
X0169800Y0087000D01*
X0169800Y0089500D01*
X0167800Y0091500D01*
X0167800Y0094000D01*
X0150300Y0111500D01*
X0148800Y0111000D02*
X0166300Y0093500D01*
X0166300Y0091000D01*
X0168300Y0089000D01*
X0168300Y0086500D01*
X0172800Y0082000D01*
X0172800Y0066500D01*
X0171300Y0065000D01*
X0171300Y0056500D01*
X0170300Y0055500D01*
X0170300Y0048000D01*
X0166300Y0044000D01*
X0150700Y0044000D01*
X0150500Y0044600D01*
X0149100Y0043500D01*
X0146200Y0043500D01*
X0145100Y0043000D01*
X0140800Y0043000D01*
X0139549Y0044251D01*
X0137005Y0044251D01*
X0137005Y0045826D02*
X0139874Y0045826D01*
X0141500Y0044400D01*
X0143800Y0044400D01*
X0146800Y0046200D01*
X0147600Y0047000D01*
X0155800Y0047000D01*
X0157300Y0045500D01*
X0165800Y0045500D01*
X0168800Y0048500D01*
X0168800Y0056000D01*
X0169800Y0057000D01*
X0169800Y0065500D01*
X0171300Y0067000D01*
X0171300Y0081500D01*
X0166800Y0086000D01*
X0166800Y0088500D01*
X0164800Y0090500D01*
X0164800Y0093000D01*
X0147300Y0110500D01*
X0145800Y0110000D02*
X0163300Y0092500D01*
X0163300Y0090000D01*
X0165300Y0088000D01*
X0165300Y0085500D01*
X0169800Y0081000D01*
X0169800Y0067500D01*
X0168300Y0066000D01*
X0168300Y0057500D01*
X0167300Y0056500D01*
X0167300Y0049000D01*
X0165300Y0047000D01*
X0157800Y0047000D01*
X0156300Y0048500D01*
X0145800Y0048500D01*
X0145300Y0048000D01*
X0143800Y0048000D01*
X0142600Y0046800D01*
X0141999Y0047401D01*
X0137005Y0047401D01*
X0137005Y0048976D02*
X0139776Y0048976D01*
X0140200Y0049200D01*
X0144500Y0049200D01*
X0145200Y0049900D01*
X0160000Y0049900D01*
X0160000Y0049000D01*
X0165300Y0049000D01*
X0165800Y0049500D01*
X0165800Y0053000D01*
X0164800Y0054000D01*
X0164800Y0056500D01*
X0166800Y0058500D01*
X0166800Y0066500D01*
X0168300Y0068000D01*
X0168300Y0080500D01*
X0163800Y0085000D01*
X0163800Y0087500D01*
X0161800Y0089500D01*
X0161800Y0092000D01*
X0144300Y0109500D01*
X0142800Y0109000D02*
X0160300Y0091500D01*
X0160300Y0089000D01*
X0162300Y0087000D01*
X0162300Y0084500D01*
X0166800Y0080000D01*
X0166800Y0068500D01*
X0165300Y0067000D01*
X0165300Y0059000D01*
X0163300Y0057000D01*
X0163300Y0055100D01*
X0161300Y0053700D01*
X0161200Y0052800D01*
X0159500Y0052800D01*
X0158700Y0052000D01*
X0153500Y0052000D01*
X0152800Y0051300D01*
X0144700Y0051300D01*
X0143950Y0050550D01*
X0137005Y0050550D01*
X0137005Y0052125D02*
X0141175Y0052125D01*
X0141500Y0052000D01*
X0143500Y0052000D01*
X0145600Y0053600D01*
X0150600Y0053600D01*
X0150900Y0053500D01*
X0157800Y0053500D01*
X0163800Y0059500D01*
X0163800Y0067500D01*
X0165300Y0069000D01*
X0165300Y0079500D01*
X0160800Y0084000D01*
X0160800Y0086500D01*
X0158800Y0088500D01*
X0158800Y0091000D01*
X0141300Y0108500D01*
X0139800Y0108000D02*
X0157300Y0090500D01*
X0157300Y0088000D01*
X0159300Y0086000D01*
X0159300Y0083500D01*
X0163800Y0079000D01*
X0163800Y0069500D01*
X0162300Y0068000D01*
X0162300Y0060000D01*
X0157300Y0055000D01*
X0152800Y0055000D01*
X0151900Y0056100D01*
X0149400Y0056100D01*
X0147800Y0055100D01*
X0142500Y0055100D01*
X0142400Y0054400D01*
X0140400Y0054400D01*
X0139700Y0053700D01*
X0137005Y0053700D01*
X0126611Y0053700D02*
X0122400Y0053700D01*
X0120700Y0052000D01*
X0115500Y0052000D01*
X0113900Y0053000D01*
X0112500Y0053000D01*
X0111800Y0052300D01*
X0109300Y0052300D01*
X0108300Y0053500D01*
X0104800Y0053500D01*
X0102800Y0055500D01*
X0100800Y0055500D01*
X0096800Y0059500D01*
X0096800Y0068000D01*
X0095800Y0069000D01*
X0097300Y0069900D02*
X0097300Y0084000D01*
X0097800Y0084500D01*
X0097800Y0087500D01*
X0100300Y0090000D01*
X0100300Y0154000D01*
X0101800Y0155500D02*
X0101800Y0089500D01*
X0099300Y0087000D01*
X0099300Y0084000D01*
X0098800Y0083500D01*
X0098800Y0070000D01*
X0099800Y0068000D01*
X0099800Y0060500D01*
X0101800Y0058500D01*
X0104800Y0058500D01*
X0104800Y0057500D01*
X0105800Y0056500D01*
X0108800Y0056500D01*
X0109300Y0057000D01*
X0117900Y0057000D01*
X0118900Y0056000D01*
X0120150Y0056850D01*
X0126611Y0056850D01*
X0126611Y0058424D02*
X0123124Y0058424D01*
X0123100Y0058400D01*
X0107300Y0058400D01*
X0107200Y0058700D01*
X0107200Y0059000D01*
X0106000Y0060000D01*
X0102300Y0060000D01*
X0101300Y0061000D01*
X0101300Y0068700D01*
X0100300Y0070500D01*
X0100300Y0083000D01*
X0100800Y0083500D01*
X0100800Y0086500D01*
X0103300Y0089000D01*
X0103300Y0157000D01*
X0104800Y0158500D02*
X0104800Y0088500D01*
X0102300Y0086000D01*
X0102300Y0083000D01*
X0101800Y0082500D01*
X0101800Y0071000D01*
X0103000Y0068600D01*
X0103800Y0065100D01*
X0105100Y0063800D01*
X0105100Y0063000D01*
X0106900Y0061400D01*
X0108300Y0061200D01*
X0109100Y0060600D01*
X0109900Y0059800D01*
X0122700Y0059800D01*
X0123099Y0059999D01*
X0126611Y0059999D01*
X0126611Y0061574D02*
X0122874Y0061574D01*
X0122200Y0061100D01*
X0110800Y0061100D01*
X0108000Y0063600D01*
X0106800Y0064800D01*
X0106800Y0066000D01*
X0104500Y0067900D01*
X0104100Y0069900D01*
X0103300Y0071500D01*
X0103300Y0082000D01*
X0103800Y0082500D01*
X0103800Y0085500D01*
X0106300Y0088000D01*
X0106300Y0160000D01*
X0107800Y0161500D02*
X0107800Y0087500D01*
X0105300Y0085000D01*
X0105300Y0082000D01*
X0104800Y0081500D01*
X0104800Y0072000D01*
X0105400Y0070800D01*
X0105800Y0068800D01*
X0110300Y0064700D01*
X0111600Y0063900D01*
X0112200Y0063700D01*
X0113700Y0062400D01*
X0121600Y0062400D01*
X0122749Y0063149D01*
X0126611Y0063149D01*
X0126611Y0064724D02*
X0120624Y0064724D01*
X0120300Y0064800D01*
X0120100Y0064600D01*
X0115500Y0064600D01*
X0114100Y0066000D01*
X0111000Y0066000D01*
X0107300Y0069700D01*
X0106500Y0071700D01*
X0106300Y0072500D01*
X0106300Y0081000D01*
X0106800Y0081500D01*
X0106800Y0084500D01*
X0109300Y0087000D01*
X0109300Y0163000D01*
X0110800Y0164500D02*
X0110800Y0086500D01*
X0108300Y0084000D01*
X0108300Y0081000D01*
X0107800Y0080500D01*
X0107800Y0074000D01*
X0108100Y0072900D01*
X0108300Y0072300D01*
X0109900Y0070700D01*
X0113000Y0067200D01*
X0121700Y0067200D01*
X0122602Y0066298D01*
X0126611Y0066298D01*
X0126611Y0067873D02*
X0122927Y0067873D01*
X0122400Y0068400D01*
X0115500Y0068400D01*
X0113000Y0070900D01*
X0113200Y0072100D01*
X0112500Y0073000D01*
X0110300Y0073200D01*
X0109800Y0073500D01*
X0109300Y0073500D01*
X0109300Y0080000D01*
X0109800Y0080500D01*
X0109800Y0083500D01*
X0112300Y0086000D01*
X0112300Y0166000D01*
X0114300Y0167500D02*
X0114300Y0086000D01*
X0111800Y0083500D01*
X0111800Y0080500D01*
X0110800Y0079500D01*
X0110800Y0074500D01*
X0114300Y0074500D01*
X0116800Y0072000D01*
X0116600Y0071800D01*
X0116600Y0071000D01*
X0118000Y0069600D01*
X0122900Y0069600D01*
X0123052Y0069448D01*
X0126611Y0069448D01*
X0126611Y0071023D02*
X0120623Y0071023D01*
X0120622Y0071024D01*
X0120276Y0071024D01*
X0114800Y0076500D01*
X0113200Y0077100D01*
X0112800Y0076700D01*
X0112800Y0079000D01*
X0113800Y0080000D01*
X0113800Y0083000D01*
X0115800Y0085000D01*
X0115800Y0169000D01*
X0117800Y0171000D02*
X0117800Y0085000D01*
X0116800Y0084000D01*
X0116800Y0080100D01*
X0116300Y0079400D01*
X0116100Y0077200D01*
X0120702Y0072598D01*
X0126611Y0072598D01*
X0126609Y0072600D01*
X0126611Y0074172D02*
X0123228Y0074172D01*
X0122900Y0074500D01*
X0122900Y0075748D01*
X0126611Y0075748D01*
X0126611Y0075747D01*
X0126611Y0078897D02*
X0124108Y0078800D01*
X0121600Y0081000D01*
X0121800Y0176000D01*
X0120800Y0177000D01*
X0117359Y0177000D01*
X0119800Y0173000D02*
X0107800Y0173000D01*
X0107800Y0184000D01*
X0098800Y0184000D01*
X0098800Y0185000D01*
X0094800Y0189000D01*
X0089800Y0189000D01*
X0087800Y0186000D02*
X0093800Y0186000D01*
X0097800Y0182000D01*
X0105800Y0182000D01*
X0105800Y0171000D01*
X0117800Y0171000D01*
X0119800Y0173000D02*
X0119800Y0085000D01*
X0118800Y0084000D01*
X0118800Y0079000D01*
X0120300Y0077500D01*
X0120300Y0076800D01*
X0121352Y0075748D01*
X0122900Y0075748D01*
X0123903Y0078897D02*
X0126611Y0078897D01*
X0122328Y0080472D02*
X0121600Y0081000D01*
X0128300Y0090500D02*
X0133300Y0085500D01*
X0133300Y0081000D01*
X0133828Y0080472D01*
X0137005Y0080472D01*
X0137005Y0078897D02*
X0140000Y0078897D01*
X0141903Y0081900D01*
X0142103Y0085697D01*
X0124300Y0103500D01*
X0124300Y0184500D01*
X0119800Y0189000D01*
X0112241Y0184559D02*
X0109800Y0187000D01*
X0109800Y0189000D01*
X0104800Y0189000D01*
X0099800Y0189000D01*
X0092800Y0184000D02*
X0096800Y0180000D01*
X0103800Y0180000D01*
X0103800Y0169000D01*
X0102300Y0168500D02*
X0102300Y0178500D01*
X0096300Y0178500D01*
X0092300Y0182500D01*
X0084300Y0182500D01*
X0080800Y0186000D01*
X0077800Y0186000D01*
X0074800Y0189000D01*
X0075800Y0186000D02*
X0072300Y0186000D01*
X0069800Y0188500D01*
X0069800Y0189000D01*
X0069800Y0186000D02*
X0067300Y0186000D01*
X0064800Y0188500D01*
X0064800Y0189000D01*
X0064800Y0186000D02*
X0062800Y0186000D01*
X0059800Y0189000D01*
X0060300Y0186000D02*
X0056300Y0186000D01*
X0054800Y0187500D01*
X0054800Y0189000D01*
X0054300Y0186000D02*
X0055800Y0184500D01*
X0059800Y0184500D01*
X0061300Y0183000D01*
X0063800Y0183000D01*
X0065300Y0181500D01*
X0068300Y0181500D01*
X0069800Y0180000D01*
X0073800Y0180000D01*
X0075300Y0178500D01*
X0078300Y0178500D01*
X0081800Y0175000D01*
X0089800Y0175000D01*
X0093800Y0171000D01*
X0094800Y0171000D01*
X0094800Y0166000D01*
X0096300Y0166500D02*
X0096300Y0172500D01*
X0094300Y0172500D01*
X0090300Y0176500D01*
X0082300Y0176500D01*
X0078800Y0180000D01*
X0075800Y0180000D01*
X0074300Y0181500D01*
X0070300Y0181500D01*
X0068800Y0183000D01*
X0065800Y0183000D01*
X0064300Y0184500D01*
X0061800Y0184500D01*
X0060300Y0186000D01*
X0059300Y0183000D02*
X0060800Y0181500D01*
X0063300Y0181500D01*
X0064800Y0180000D01*
X0067800Y0180000D01*
X0069300Y0178500D01*
X0073300Y0178500D01*
X0074800Y0177000D01*
X0077800Y0177000D01*
X0081300Y0173500D01*
X0089300Y0173500D01*
X0093300Y0169500D01*
X0091800Y0169000D02*
X0088800Y0172000D01*
X0080800Y0172000D01*
X0077300Y0175500D01*
X0074300Y0175500D01*
X0072800Y0177000D01*
X0068800Y0177000D01*
X0067300Y0178500D01*
X0064300Y0178500D01*
X0062800Y0180000D01*
X0060300Y0180000D01*
X0058800Y0181500D01*
X0054800Y0181500D01*
X0053300Y0183000D01*
X0052300Y0183000D01*
X0050800Y0184500D01*
X0047300Y0184500D01*
X0045800Y0186000D01*
X0043300Y0186000D01*
X0040300Y0189000D01*
X0039800Y0189000D01*
X0038300Y0186000D02*
X0041300Y0186000D01*
X0042800Y0184500D01*
X0045300Y0184500D01*
X0046800Y0183000D01*
X0050300Y0183000D01*
X0051800Y0181500D01*
X0052800Y0181500D01*
X0054300Y0180000D01*
X0058300Y0180000D01*
X0059800Y0178500D01*
X0062300Y0178500D01*
X0063800Y0177000D01*
X0066800Y0177000D01*
X0068300Y0175500D01*
X0072300Y0175500D01*
X0073800Y0174000D01*
X0076800Y0174000D01*
X0080300Y0170500D01*
X0079800Y0169000D02*
X0076300Y0172500D01*
X0073300Y0172500D01*
X0071800Y0174000D01*
X0067800Y0174000D01*
X0066300Y0175500D01*
X0063300Y0175500D01*
X0061800Y0177000D01*
X0059300Y0177000D01*
X0057800Y0178500D01*
X0053800Y0178500D01*
X0052300Y0180000D01*
X0051300Y0180000D01*
X0049800Y0181500D01*
X0046300Y0181500D01*
X0044800Y0183000D01*
X0042300Y0183000D01*
X0040800Y0184500D01*
X0037800Y0184500D01*
X0036300Y0186000D01*
X0032300Y0186000D01*
X0032300Y0186500D01*
X0029800Y0189000D01*
X0030300Y0186000D02*
X0027300Y0186000D01*
X0025800Y0187500D01*
X0025800Y0190000D01*
X0029800Y0194000D01*
X0029800Y0199000D01*
X0028300Y0196000D02*
X0026300Y0198000D01*
X0026300Y0202000D01*
X0036800Y0202000D01*
X0039800Y0199000D01*
X0041800Y0203500D02*
X0024800Y0203500D01*
X0024800Y0193000D01*
X0022800Y0191000D01*
X0022800Y0186500D01*
X0026300Y0183000D01*
X0029300Y0183000D01*
X0030800Y0181500D01*
X0034800Y0181500D01*
X0036300Y0180000D01*
X0039300Y0180000D01*
X0040800Y0178500D01*
X0043300Y0178500D01*
X0044800Y0177000D01*
X0048300Y0177000D01*
X0049800Y0175500D01*
X0050800Y0175500D01*
X0052300Y0174000D01*
X0056300Y0174000D01*
X0057800Y0172500D01*
X0060300Y0172500D01*
X0061800Y0171000D01*
X0064800Y0171000D01*
X0066300Y0169500D01*
X0066800Y0171000D02*
X0065300Y0172500D01*
X0062300Y0172500D01*
X0060800Y0174000D01*
X0058300Y0174000D01*
X0056800Y0175500D01*
X0052800Y0175500D01*
X0051300Y0177000D01*
X0050300Y0177000D01*
X0048800Y0178500D01*
X0045300Y0178500D01*
X0043800Y0180000D01*
X0041300Y0180000D01*
X0039800Y0181500D01*
X0036800Y0181500D01*
X0035300Y0183000D01*
X0031300Y0183000D01*
X0029800Y0184500D01*
X0026800Y0184500D01*
X0024300Y0187000D01*
X0024300Y0190500D01*
X0028300Y0194500D01*
X0028300Y0196000D01*
X0023300Y0193500D02*
X0021300Y0191500D01*
X0021300Y0186000D01*
X0025800Y0181500D01*
X0028800Y0181500D01*
X0030300Y0180000D01*
X0034300Y0180000D01*
X0035800Y0178500D01*
X0038800Y0178500D01*
X0040300Y0177000D01*
X0042800Y0177000D01*
X0044300Y0175500D01*
X0047800Y0175500D01*
X0049300Y0174000D01*
X0050300Y0174000D01*
X0051800Y0172500D01*
X0055800Y0172500D01*
X0057300Y0171000D01*
X0059800Y0171000D01*
X0061300Y0169500D01*
X0057000Y0169500D02*
X0055500Y0171000D01*
X0051300Y0171000D01*
X0049800Y0172500D01*
X0048800Y0172500D01*
X0047300Y0174000D01*
X0043800Y0174000D01*
X0042300Y0175500D01*
X0039800Y0175500D01*
X0038300Y0177000D01*
X0035300Y0177000D01*
X0033800Y0178500D01*
X0029800Y0178500D01*
X0028300Y0180000D01*
X0025300Y0180000D01*
X0019800Y0185500D01*
X0019800Y0192000D01*
X0021800Y0194000D01*
X0021800Y0205500D01*
X0022800Y0206500D01*
X0044300Y0206500D01*
X0048300Y0202500D01*
X0051800Y0202500D01*
X0054800Y0199500D01*
X0054800Y0199000D01*
X0053800Y0202500D02*
X0056300Y0202500D01*
X0059800Y0199000D01*
X0058800Y0202000D02*
X0056800Y0204000D01*
X0054300Y0204000D01*
X0052800Y0205500D01*
X0049300Y0205500D01*
X0045300Y0209500D01*
X0021800Y0209500D01*
X0018800Y0206500D01*
X0018800Y0195000D01*
X0016800Y0193000D01*
X0016800Y0184500D01*
X0024300Y0177000D01*
X0027300Y0177000D01*
X0028800Y0175500D01*
X0032800Y0175500D01*
X0034300Y0174000D01*
X0037300Y0174000D01*
X0038800Y0172500D01*
X0041300Y0172500D01*
X0042800Y0171000D01*
X0046300Y0171000D01*
X0047800Y0169300D01*
X0048300Y0171000D02*
X0046800Y0172500D01*
X0043300Y0172500D01*
X0041800Y0174000D01*
X0039300Y0174000D01*
X0037800Y0175500D01*
X0034800Y0175500D01*
X0033300Y0177000D01*
X0029300Y0177000D01*
X0027800Y0178500D01*
X0024800Y0178500D01*
X0018300Y0185000D01*
X0018300Y0192500D01*
X0020300Y0194500D01*
X0020300Y0206000D01*
X0022300Y0208000D01*
X0044800Y0208000D01*
X0048800Y0204000D01*
X0052300Y0204000D01*
X0053800Y0202500D01*
X0054800Y0205500D02*
X0053300Y0207000D01*
X0049800Y0207000D01*
X0045800Y0211000D01*
X0021300Y0211000D01*
X0017300Y0207000D01*
X0017300Y0195500D01*
X0015300Y0193500D01*
X0015300Y0184000D01*
X0023800Y0175500D01*
X0026800Y0175500D01*
X0028300Y0174000D01*
X0032300Y0174000D01*
X0033800Y0172500D01*
X0036800Y0172500D01*
X0038300Y0171000D01*
X0040800Y0171000D01*
X0042300Y0169500D01*
X0037800Y0169500D02*
X0036300Y0171000D01*
X0033300Y0171000D01*
X0031800Y0172500D01*
X0027800Y0172500D01*
X0026300Y0174000D01*
X0023300Y0174000D01*
X0013800Y0183500D01*
X0013800Y0194000D01*
X0015800Y0196000D01*
X0015800Y0207500D01*
X0020800Y0212500D01*
X0046300Y0212500D01*
X0050300Y0208500D01*
X0053800Y0208500D01*
X0055300Y0207000D01*
X0057800Y0207000D01*
X0059800Y0205000D01*
X0062300Y0205000D01*
X0063800Y0203500D01*
X0067300Y0203500D01*
X0068800Y0202000D01*
X0071800Y0202000D01*
X0074800Y0199000D01*
X0069800Y0199000D02*
X0066800Y0202000D01*
X0063300Y0202000D01*
X0061800Y0203500D01*
X0059300Y0203500D01*
X0057300Y0205500D01*
X0054800Y0205500D01*
X0058800Y0202000D02*
X0061300Y0202000D01*
X0064300Y0199000D01*
X0064800Y0199000D01*
X0064800Y0186000D02*
X0066300Y0184500D01*
X0069300Y0184500D01*
X0070800Y0183000D01*
X0074800Y0183000D01*
X0076300Y0181500D01*
X0079300Y0181500D01*
X0082800Y0178000D01*
X0090800Y0178000D01*
X0094800Y0174000D01*
X0097800Y0174000D01*
X0097800Y0167000D01*
X0099300Y0167500D02*
X0099300Y0175500D01*
X0095300Y0175500D01*
X0091300Y0179500D01*
X0083300Y0179500D01*
X0079800Y0183000D01*
X0076800Y0183000D01*
X0075300Y0184500D01*
X0071300Y0184500D01*
X0069800Y0186000D01*
X0075800Y0186000D02*
X0077300Y0184500D01*
X0080300Y0184500D01*
X0083800Y0181000D01*
X0091800Y0181000D01*
X0095800Y0177000D01*
X0100800Y0177000D01*
X0100800Y0168000D01*
X0112241Y0177000D02*
X0112241Y0184559D01*
X0092800Y0184000D02*
X0084800Y0184000D01*
X0079800Y0189000D01*
X0084800Y0189000D02*
X0087800Y0186000D01*
X0075800Y0171000D02*
X0072800Y0171000D01*
X0071300Y0172500D01*
X0067300Y0172500D01*
X0065800Y0174000D01*
X0062800Y0174000D01*
X0061300Y0175500D01*
X0058800Y0175500D01*
X0057300Y0177000D01*
X0053300Y0177000D01*
X0051800Y0178500D01*
X0050800Y0178500D01*
X0049300Y0180000D01*
X0045800Y0180000D01*
X0044300Y0181500D01*
X0041800Y0181500D01*
X0040300Y0183000D01*
X0037300Y0183000D01*
X0035800Y0184500D01*
X0031800Y0184500D01*
X0030300Y0186000D01*
X0034800Y0189000D02*
X0035300Y0189000D01*
X0038300Y0186000D01*
X0044800Y0189000D02*
X0047800Y0186000D01*
X0051300Y0186000D01*
X0052800Y0184500D01*
X0053800Y0184500D01*
X0055300Y0183000D01*
X0059300Y0183000D01*
X0054300Y0186000D02*
X0053300Y0186000D01*
X0050300Y0189000D01*
X0049800Y0189000D01*
X0049800Y0199000D02*
X0049300Y0199000D01*
X0043300Y0205000D01*
X0023800Y0205000D01*
X0023300Y0204500D01*
X0023300Y0193500D01*
X0041800Y0203500D02*
X0044800Y0200500D01*
X0044800Y0199000D01*
X0048300Y0171000D02*
X0049300Y0171000D01*
X0050800Y0169500D01*
X0066800Y0171000D02*
X0070800Y0171000D01*
X0072300Y0169500D01*
X0075800Y0171000D02*
X0079300Y0167500D01*
X0097300Y0151500D02*
X0097300Y0091000D01*
X0094800Y0088500D01*
X0096300Y0088000D02*
X0096300Y0085000D01*
X0095800Y0084500D01*
X0096300Y0088000D02*
X0098800Y0090500D01*
X0098800Y0152000D01*
X0142900Y0078300D02*
X0142522Y0077322D01*
X0140878Y0077322D01*
X0137005Y0077322D01*
X0140878Y0077322D02*
X0140900Y0077300D01*
X0141800Y0071200D02*
X0140048Y0069648D01*
X0137005Y0069448D01*
X0137228Y0070800D02*
X0137005Y0071023D01*
X0137228Y0070800D02*
X0141800Y0071200D01*
X0126611Y0055275D02*
X0122301Y0055275D01*
X0122300Y0055276D01*
X0122076Y0055276D01*
X0120300Y0053500D01*
X0117300Y0053500D01*
X0115300Y0055500D01*
X0111300Y0055500D01*
X0110500Y0054700D01*
X0109800Y0054500D01*
X0109300Y0055000D01*
X0105300Y0055000D01*
X0103300Y0057000D01*
X0101300Y0057000D01*
X0098300Y0060000D01*
X0098300Y0067900D01*
X0097300Y0069900D01*
X0095300Y0059000D02*
X0100300Y0054000D01*
X0102300Y0054000D01*
X0104300Y0052000D01*
X0107800Y0052000D01*
X0108800Y0051000D01*
X0111100Y0051000D01*
X0111600Y0050500D01*
X0121300Y0050500D01*
X0122300Y0050300D01*
X0122824Y0048976D01*
X0126611Y0048976D01*
X0126611Y0047401D02*
X0123301Y0047401D01*
X0123000Y0047500D01*
X0121000Y0047500D01*
X0119400Y0048800D01*
X0109700Y0048700D01*
X0109500Y0049500D01*
X0108300Y0049500D01*
X0107300Y0050500D01*
X0104000Y0050500D01*
X0102000Y0052500D01*
X0099800Y0052500D01*
X0093800Y0058500D01*
X0092300Y0058000D02*
X0099300Y0051000D01*
X0101800Y0051000D01*
X0106300Y0046500D01*
X0115100Y0046300D01*
X0116300Y0047000D01*
X0118900Y0047200D01*
X0120500Y0045900D01*
X0123400Y0045900D01*
X0123474Y0045826D01*
X0126611Y0045826D01*
X0126611Y0044251D02*
X0118551Y0044251D01*
X0117500Y0044800D01*
X0117700Y0044800D01*
X0117500Y0044800D02*
X0108800Y0044800D01*
X0107000Y0043800D01*
X0105800Y0044000D01*
X0105300Y0044100D01*
X0104800Y0044500D01*
X0103800Y0045500D01*
X0103800Y0047000D01*
X0101300Y0049500D01*
X0098800Y0049500D01*
X0090800Y0057500D01*
X0089300Y0057000D02*
X0098300Y0048000D01*
X0100800Y0048000D01*
X0102500Y0046500D01*
X0102500Y0045000D01*
X0104800Y0042500D01*
X0109000Y0041900D01*
X0116400Y0042400D01*
X0118700Y0042400D01*
X0120776Y0042676D01*
X0126611Y0042676D01*
X0126611Y0041102D02*
X0120902Y0041102D01*
X0108400Y0039400D01*
X0103200Y0040600D01*
X0102900Y0040800D01*
X0101200Y0044100D01*
X0101200Y0045800D01*
X0100300Y0046500D01*
X0097800Y0046500D01*
X0087800Y0056500D01*
X0086300Y0056000D02*
X0097300Y0045000D01*
X0099700Y0045000D01*
X0099900Y0044000D01*
X0100500Y0040400D01*
X0100500Y0038300D01*
X0105800Y0037800D01*
X0117600Y0037800D01*
X0117600Y0038200D01*
X0118700Y0038600D01*
X0121027Y0039527D01*
X0126611Y0039527D01*
X0126611Y0037952D02*
X0121652Y0037952D01*
X0118900Y0035400D01*
X0116700Y0035400D01*
X0115700Y0035600D01*
X0102100Y0035600D01*
X0098700Y0037200D01*
X0098600Y0043500D01*
X0096800Y0043500D01*
X0084800Y0055500D01*
X0113200Y0032700D02*
X0116000Y0034000D01*
X0119400Y0034000D01*
X0121777Y0036377D01*
X0126611Y0036377D01*
X0126611Y0034802D02*
X0121902Y0034802D01*
X0119800Y0032700D01*
X0118600Y0032700D01*
X0116900Y0031000D01*
X0118000Y0028400D02*
X0099900Y0028400D01*
X0102300Y0026400D02*
X0102100Y0025300D01*
X0102300Y0026400D02*
X0118000Y0026400D01*
X0121200Y0029800D01*
X0121800Y0030500D01*
X0122753Y0031653D01*
X0126611Y0031653D01*
X0126611Y0033228D02*
X0122028Y0033228D01*
X0120000Y0031200D01*
X0120000Y0030400D01*
X0118000Y0028400D01*
X0121400Y0026400D02*
X0123503Y0028503D01*
X0126611Y0028503D01*
X0126611Y0026928D02*
X0123628Y0026928D01*
X0122900Y0026200D01*
X0122900Y0024600D01*
X0121800Y0023700D01*
X0121300Y0019900D01*
X0118300Y0022100D02*
X0121400Y0026400D01*
X0117900Y0024400D02*
X0116900Y0024400D01*
X0115700Y0023200D01*
X0106100Y0023200D01*
X0105800Y0023500D01*
X0117900Y0024400D02*
X0123078Y0030078D01*
X0126611Y0030078D01*
X0137005Y0030078D02*
X0140722Y0030078D01*
X0144400Y0026400D01*
X0153400Y0034000D02*
X0152700Y0036100D01*
X0150400Y0036300D01*
X0153400Y0034000D02*
X0158800Y0034000D01*
X0160300Y0035500D01*
X0160300Y0037000D01*
X0161300Y0038000D01*
X0168300Y0038000D01*
X0176300Y0046000D01*
X0176300Y0053500D01*
X0177300Y0054500D01*
X0177300Y0063000D01*
X0178800Y0064500D01*
X0178800Y0084000D02*
X0174300Y0088500D01*
X0174300Y0091000D01*
X0172300Y0093000D01*
X0172300Y0095500D01*
X0141048Y0037952D02*
X0137005Y0037952D01*
X0141048Y0037952D02*
X0142400Y0036800D01*
D15*
X0050900Y0008100D02*
X0050900Y0119520D01*
X0050922Y0119511D01*
X0053403Y0119511D01*
X0055695Y0120461D01*
X0057450Y0122215D01*
X0058399Y0124507D01*
X0058399Y0126989D01*
X0057450Y0129281D01*
X0055695Y0131036D01*
X0053403Y0131985D01*
X0050922Y0131985D01*
X0050900Y0131976D01*
X0050900Y0163450D01*
X0052510Y0163450D01*
X0053050Y0162838D01*
X0053050Y0162775D01*
X0053524Y0162301D01*
X0053967Y0161799D01*
X0054030Y0161795D01*
X0054075Y0161750D01*
X0054745Y0161750D01*
X0055414Y0161708D01*
X0055462Y0161750D01*
X0056575Y0161750D01*
X0058075Y0160250D01*
X0061075Y0160250D01*
X0062575Y0158750D01*
X0066075Y0158750D01*
X0067575Y0157250D01*
X0071075Y0157250D01*
X0074575Y0153750D01*
X0078575Y0153750D01*
X0085050Y0147275D01*
X0085050Y0095225D01*
X0082550Y0092725D01*
X0082550Y0089725D01*
X0082050Y0089225D01*
X0082050Y0064275D01*
X0083050Y0063275D01*
X0083050Y0054775D01*
X0084075Y0053750D01*
X0084146Y0053750D01*
X0096096Y0041800D01*
X0096927Y0041800D01*
X0096994Y0037567D01*
X0096862Y0037287D01*
X0097005Y0036890D01*
X0097011Y0036469D01*
X0097234Y0036253D01*
X0097339Y0035962D01*
X0097720Y0035782D01*
X0098023Y0035489D01*
X0098333Y0035494D01*
X0099369Y0035006D01*
X0099769Y0034042D01*
X0100542Y0033269D01*
X0101553Y0032850D01*
X0102647Y0032850D01*
X0103658Y0033269D01*
X0104289Y0033900D01*
X0110720Y0033900D01*
X0110450Y0033247D01*
X0110450Y0032153D01*
X0110869Y0031142D01*
X0111642Y0030369D01*
X0112291Y0030100D01*
X0102089Y0030100D01*
X0101458Y0030731D01*
X0100447Y0031150D01*
X0099353Y0031150D01*
X0098342Y0030731D01*
X0097569Y0029958D01*
X0097150Y0028947D01*
X0097150Y0027853D01*
X0097569Y0026842D01*
X0098342Y0026069D01*
X0099350Y0025651D01*
X0099350Y0024753D01*
X0099769Y0023742D01*
X0100542Y0022969D01*
X0101553Y0022550D01*
X0102647Y0022550D01*
X0103133Y0022752D01*
X0103469Y0021942D01*
X0104242Y0021169D01*
X0105253Y0020750D01*
X0106347Y0020750D01*
X0107358Y0021169D01*
X0107689Y0021500D01*
X0115572Y0021500D01*
X0115969Y0020542D01*
X0116742Y0019769D01*
X0117753Y0019350D01*
X0118551Y0019350D01*
X0118969Y0018342D01*
X0119742Y0017569D01*
X0120753Y0017150D01*
X0121847Y0017150D01*
X0122858Y0017569D01*
X0123631Y0018342D01*
X0124050Y0019353D01*
X0124050Y0020447D01*
X0123631Y0021458D01*
X0123267Y0021822D01*
X0123398Y0022811D01*
X0123507Y0022900D01*
X0123604Y0022900D01*
X0124042Y0023338D01*
X0124313Y0023560D01*
X0129435Y0023560D01*
X0130255Y0024380D01*
X0130255Y0083020D01*
X0129435Y0083840D01*
X0123787Y0083840D01*
X0123305Y0083358D01*
X0123344Y0102052D01*
X0123596Y0101800D01*
X0140366Y0085030D01*
X0140322Y0084208D01*
X0139891Y0083777D01*
X0139829Y0083840D01*
X0134181Y0083840D01*
X0133361Y0083020D01*
X0133361Y0081073D01*
X0133962Y0080472D01*
X0133361Y0079870D01*
X0133361Y0077923D01*
X0133962Y0077322D01*
X0133361Y0076721D01*
X0133361Y0074774D01*
X0134131Y0074004D01*
X0133947Y0073820D01*
X0133947Y0072950D01*
X0134299Y0072598D01*
X0133947Y0072245D01*
X0133947Y0071375D01*
X0134299Y0071023D01*
X0133947Y0070670D01*
X0133947Y0069801D01*
X0134131Y0069617D01*
X0133361Y0068847D01*
X0133361Y0024380D01*
X0134181Y0023560D01*
X0136480Y0023560D01*
X0136350Y0023247D01*
X0136350Y0022153D01*
X0136769Y0021142D01*
X0137542Y0020369D01*
X0138553Y0019950D01*
X0139647Y0019950D01*
X0140658Y0020369D01*
X0141150Y0020861D01*
X0141542Y0020469D01*
X0142553Y0020050D01*
X0143647Y0020050D01*
X0144658Y0020469D01*
X0145431Y0021242D01*
X0145589Y0021622D01*
X0146142Y0021069D01*
X0147153Y0020650D01*
X0148247Y0020650D01*
X0149258Y0021069D01*
X0150031Y0021842D01*
X0150450Y0022853D01*
X0150450Y0023947D01*
X0150346Y0024198D01*
X0150758Y0024369D01*
X0151531Y0025142D01*
X0151950Y0026153D01*
X0151950Y0027247D01*
X0151531Y0028258D01*
X0150758Y0029031D01*
X0149747Y0029450D01*
X0148922Y0029450D01*
X0148700Y0029682D01*
X0148700Y0029704D01*
X0148215Y0030189D01*
X0147742Y0030684D01*
X0147720Y0030684D01*
X0147704Y0030700D01*
X0147404Y0030700D01*
X0147550Y0031053D01*
X0147550Y0032147D01*
X0147404Y0032500D01*
X0147455Y0032500D01*
X0147769Y0031742D01*
X0148542Y0030969D01*
X0149553Y0030550D01*
X0150647Y0030550D01*
X0151658Y0030969D01*
X0152431Y0031742D01*
X0152672Y0032324D01*
X0152696Y0032300D01*
X0152999Y0032300D01*
X0153270Y0032165D01*
X0153676Y0032300D01*
X0159504Y0032300D01*
X0160500Y0033296D01*
X0162000Y0034796D01*
X0162000Y0036296D01*
X0162004Y0036300D01*
X0169004Y0036300D01*
X0170000Y0037296D01*
X0178000Y0045296D01*
X0178000Y0052796D01*
X0178700Y0053496D01*
X0178700Y0008100D01*
X0137390Y0008100D01*
X0138552Y0009262D01*
X0139502Y0011555D01*
X0139502Y0014036D01*
X0138552Y0016328D01*
X0136798Y0018083D01*
X0134505Y0019032D01*
X0132024Y0019032D01*
X0129732Y0018083D01*
X0127977Y0016328D01*
X0127028Y0014036D01*
X0127028Y0011555D01*
X0127977Y0009262D01*
X0129139Y0008100D01*
X0050900Y0008100D01*
X0050900Y0008197D02*
X0129042Y0008197D01*
X0127756Y0009796D02*
X0050900Y0009796D01*
X0050900Y0011394D02*
X0127094Y0011394D01*
X0127028Y0012993D02*
X0050900Y0012993D01*
X0050900Y0014591D02*
X0127258Y0014591D01*
X0127920Y0016190D02*
X0050900Y0016190D01*
X0050900Y0017788D02*
X0119523Y0017788D01*
X0117665Y0019387D02*
X0050900Y0019387D01*
X0050900Y0020985D02*
X0104685Y0020985D01*
X0103203Y0022584D02*
X0102728Y0022584D01*
X0101472Y0022584D02*
X0050900Y0022584D01*
X0050900Y0024182D02*
X0099586Y0024182D01*
X0099038Y0025781D02*
X0050900Y0025781D01*
X0050900Y0027379D02*
X0097346Y0027379D01*
X0097163Y0028978D02*
X0050900Y0028978D01*
X0050900Y0030576D02*
X0098187Y0030576D01*
X0101613Y0030576D02*
X0111435Y0030576D01*
X0110450Y0032175D02*
X0050900Y0032175D01*
X0050900Y0033773D02*
X0100038Y0033773D01*
X0098593Y0035372D02*
X0050900Y0035372D01*
X0050900Y0036970D02*
X0096976Y0036970D01*
X0096978Y0038569D02*
X0050900Y0038569D01*
X0050900Y0040167D02*
X0096953Y0040167D01*
X0096927Y0041766D02*
X0050900Y0041766D01*
X0050900Y0043364D02*
X0094532Y0043364D01*
X0092933Y0044963D02*
X0050900Y0044963D01*
X0050900Y0046561D02*
X0091335Y0046561D01*
X0089736Y0048160D02*
X0050900Y0048160D01*
X0050900Y0049758D02*
X0088138Y0049758D01*
X0086539Y0051357D02*
X0050900Y0051357D01*
X0050900Y0052955D02*
X0084940Y0052955D01*
X0083271Y0054554D02*
X0050900Y0054554D01*
X0050900Y0056152D02*
X0083050Y0056152D01*
X0083050Y0057751D02*
X0050900Y0057751D01*
X0050900Y0059349D02*
X0083050Y0059349D01*
X0083050Y0060948D02*
X0050900Y0060948D01*
X0050900Y0062546D02*
X0083050Y0062546D01*
X0082180Y0064145D02*
X0050900Y0064145D01*
X0050900Y0065743D02*
X0082050Y0065743D01*
X0082050Y0067342D02*
X0050900Y0067342D01*
X0050900Y0068940D02*
X0082050Y0068940D01*
X0082050Y0070539D02*
X0050900Y0070539D01*
X0050900Y0072137D02*
X0082050Y0072137D01*
X0082050Y0073736D02*
X0050900Y0073736D01*
X0050900Y0075334D02*
X0082050Y0075334D01*
X0082050Y0076933D02*
X0050900Y0076933D01*
X0050900Y0078532D02*
X0082050Y0078532D01*
X0082050Y0080130D02*
X0050900Y0080130D01*
X0050900Y0081729D02*
X0082050Y0081729D01*
X0082050Y0083327D02*
X0050900Y0083327D01*
X0050900Y0084926D02*
X0082050Y0084926D01*
X0082050Y0086524D02*
X0050900Y0086524D01*
X0050900Y0088123D02*
X0082050Y0088123D01*
X0082546Y0089721D02*
X0050900Y0089721D01*
X0050900Y0091320D02*
X0082550Y0091320D01*
X0082743Y0092918D02*
X0050900Y0092918D01*
X0050900Y0094517D02*
X0084342Y0094517D01*
X0085050Y0096115D02*
X0050900Y0096115D01*
X0050900Y0097714D02*
X0085050Y0097714D01*
X0085050Y0099312D02*
X0050900Y0099312D01*
X0050900Y0100911D02*
X0085050Y0100911D01*
X0085050Y0102509D02*
X0050900Y0102509D01*
X0050900Y0104108D02*
X0085050Y0104108D01*
X0085050Y0105706D02*
X0050900Y0105706D01*
X0050900Y0107305D02*
X0085050Y0107305D01*
X0085050Y0108903D02*
X0050900Y0108903D01*
X0050900Y0110502D02*
X0085050Y0110502D01*
X0085050Y0112100D02*
X0050900Y0112100D01*
X0050900Y0113699D02*
X0085050Y0113699D01*
X0085050Y0115297D02*
X0050900Y0115297D01*
X0050900Y0116896D02*
X0085050Y0116896D01*
X0085050Y0118494D02*
X0050900Y0118494D01*
X0054807Y0120093D02*
X0085050Y0120093D01*
X0085050Y0121691D02*
X0056926Y0121691D01*
X0057895Y0123290D02*
X0085050Y0123290D01*
X0085050Y0124888D02*
X0058399Y0124888D01*
X0058399Y0126487D02*
X0085050Y0126487D01*
X0085050Y0128085D02*
X0057945Y0128085D01*
X0057047Y0129684D02*
X0085050Y0129684D01*
X0085050Y0131282D02*
X0055099Y0131282D01*
X0050900Y0132881D02*
X0085050Y0132881D01*
X0085050Y0134479D02*
X0050900Y0134479D01*
X0050900Y0136078D02*
X0085050Y0136078D01*
X0085050Y0137676D02*
X0050900Y0137676D01*
X0050900Y0139275D02*
X0085050Y0139275D01*
X0085050Y0140873D02*
X0050900Y0140873D01*
X0050900Y0142472D02*
X0085050Y0142472D01*
X0085050Y0144070D02*
X0050900Y0144070D01*
X0050900Y0145669D02*
X0085050Y0145669D01*
X0085050Y0147268D02*
X0050900Y0147268D01*
X0050900Y0148866D02*
X0083459Y0148866D01*
X0081861Y0150465D02*
X0050900Y0150465D01*
X0050900Y0152063D02*
X0080262Y0152063D01*
X0078664Y0153662D02*
X0050900Y0153662D01*
X0050900Y0155260D02*
X0073065Y0155260D01*
X0071467Y0156859D02*
X0050900Y0156859D01*
X0050900Y0158457D02*
X0066368Y0158457D01*
X0061270Y0160056D02*
X0050900Y0160056D01*
X0050900Y0161654D02*
X0056671Y0161654D01*
X0052684Y0163253D02*
X0050900Y0163253D01*
X0044643Y0166100D02*
X0020672Y0166100D01*
X0004900Y0175739D01*
X0004900Y0216900D01*
X0221700Y0216900D01*
X0221700Y0175916D01*
X0200068Y0165100D01*
X0184875Y0165100D01*
X0185050Y0165275D01*
X0185525Y0165750D01*
X0188525Y0165750D01*
X0189550Y0166775D01*
X0189550Y0166775D01*
X0190025Y0167250D01*
X0193025Y0167250D01*
X0194050Y0168275D01*
X0194525Y0168750D01*
X0199525Y0168750D01*
X0200550Y0169775D01*
X0200550Y0169846D01*
X0213500Y0182796D01*
X0213500Y0204204D01*
X0212504Y0205200D01*
X0202550Y0215154D01*
X0202550Y0215225D01*
X0201525Y0216250D01*
X0188075Y0216250D01*
X0187050Y0215225D01*
X0187050Y0215200D01*
X0184096Y0215200D01*
X0183100Y0214204D01*
X0182596Y0213700D01*
X0179096Y0213700D01*
X0178100Y0212704D01*
X0177596Y0212200D01*
X0174596Y0212200D01*
X0173600Y0211204D01*
X0173096Y0210700D01*
X0170596Y0210700D01*
X0169600Y0209704D01*
X0169596Y0209700D01*
X0158596Y0209700D01*
X0157600Y0208704D01*
X0154596Y0205700D01*
X0149096Y0205700D01*
X0148100Y0204704D01*
X0145702Y0202306D01*
X0145476Y0202400D01*
X0144124Y0202400D01*
X0142874Y0201882D01*
X0142300Y0201308D01*
X0141726Y0201882D01*
X0140476Y0202400D01*
X0139124Y0202400D01*
X0137874Y0201882D01*
X0137300Y0201308D01*
X0136726Y0201882D01*
X0135476Y0202400D01*
X0134124Y0202400D01*
X0132874Y0201882D01*
X0132300Y0201308D01*
X0131726Y0201882D01*
X0130476Y0202400D01*
X0129124Y0202400D01*
X0127874Y0201882D01*
X0127300Y0201308D01*
X0126726Y0201882D01*
X0125476Y0202400D01*
X0124124Y0202400D01*
X0122874Y0201882D01*
X0122300Y0201308D01*
X0121726Y0201882D01*
X0120476Y0202400D01*
X0119124Y0202400D01*
X0117874Y0201882D01*
X0117300Y0201308D01*
X0116726Y0201882D01*
X0115476Y0202400D01*
X0114124Y0202400D01*
X0112874Y0201882D01*
X0112300Y0201308D01*
X0111726Y0201882D01*
X0110476Y0202400D01*
X0109124Y0202400D01*
X0107874Y0201882D01*
X0107300Y0201308D01*
X0106726Y0201882D01*
X0105476Y0202400D01*
X0104124Y0202400D01*
X0102874Y0201882D01*
X0102300Y0201308D01*
X0101726Y0201882D01*
X0100476Y0202400D01*
X0099124Y0202400D01*
X0097874Y0201882D01*
X0097300Y0201308D01*
X0096726Y0201882D01*
X0095476Y0202400D01*
X0094124Y0202400D01*
X0092874Y0201882D01*
X0092300Y0201308D01*
X0091726Y0201882D01*
X0090476Y0202400D01*
X0089124Y0202400D01*
X0087874Y0201882D01*
X0087300Y0201308D01*
X0086726Y0201882D01*
X0085476Y0202400D01*
X0084124Y0202400D01*
X0082874Y0201882D01*
X0082300Y0201308D01*
X0081726Y0201882D01*
X0080476Y0202400D01*
X0079124Y0202400D01*
X0077874Y0201882D01*
X0077300Y0201308D01*
X0076726Y0201882D01*
X0075476Y0202400D01*
X0074124Y0202400D01*
X0073898Y0202306D01*
X0072504Y0203700D01*
X0069504Y0203700D01*
X0068004Y0205200D01*
X0064504Y0205200D01*
X0063004Y0206700D01*
X0060504Y0206700D01*
X0058504Y0208700D01*
X0056004Y0208700D01*
X0054504Y0210200D01*
X0051004Y0210200D01*
X0047004Y0214200D01*
X0020096Y0214200D01*
X0019100Y0213204D01*
X0014100Y0208204D01*
X0014100Y0196704D01*
X0012100Y0194704D01*
X0012100Y0182796D01*
X0013096Y0181800D01*
X0022596Y0172300D01*
X0025596Y0172300D01*
X0027096Y0170800D01*
X0031096Y0170800D01*
X0032596Y0169300D01*
X0035596Y0169300D01*
X0036050Y0168846D01*
X0036050Y0168775D01*
X0037075Y0167750D01*
X0039575Y0167750D01*
X0041075Y0166250D01*
X0044510Y0166250D01*
X0044643Y0166100D01*
X0040875Y0166450D02*
X0020100Y0166450D01*
X0017484Y0168048D02*
X0036777Y0168048D01*
X0032249Y0169647D02*
X0014869Y0169647D01*
X0012253Y0171245D02*
X0026651Y0171245D01*
X0022052Y0172844D02*
X0009637Y0172844D01*
X0007021Y0174442D02*
X0020454Y0174442D01*
X0018855Y0176041D02*
X0004900Y0176041D01*
X0004900Y0177639D02*
X0017257Y0177639D01*
X0015658Y0179238D02*
X0004900Y0179238D01*
X0004900Y0180836D02*
X0014060Y0180836D01*
X0012461Y0182435D02*
X0004900Y0182435D01*
X0004900Y0184033D02*
X0012100Y0184033D01*
X0012100Y0185632D02*
X0004900Y0185632D01*
X0004900Y0187230D02*
X0012100Y0187230D01*
X0012100Y0188829D02*
X0004900Y0188829D01*
X0004900Y0190427D02*
X0012100Y0190427D01*
X0012100Y0192026D02*
X0004900Y0192026D01*
X0004900Y0193624D02*
X0012100Y0193624D01*
X0012619Y0195223D02*
X0004900Y0195223D01*
X0004900Y0196821D02*
X0014100Y0196821D01*
X0014100Y0198420D02*
X0004900Y0198420D01*
X0004900Y0200018D02*
X0014100Y0200018D01*
X0014100Y0201617D02*
X0004900Y0201617D01*
X0004900Y0203215D02*
X0014100Y0203215D01*
X0014100Y0204814D02*
X0004900Y0204814D01*
X0004900Y0206412D02*
X0014100Y0206412D01*
X0014100Y0208011D02*
X0004900Y0208011D01*
X0004900Y0209609D02*
X0015505Y0209609D01*
X0017104Y0211208D02*
X0004900Y0211208D01*
X0004900Y0212806D02*
X0018702Y0212806D01*
X0004900Y0214405D02*
X0183301Y0214405D01*
X0187829Y0216003D02*
X0004900Y0216003D01*
X0031500Y0196024D02*
X0031500Y0193296D01*
X0030567Y0192363D01*
X0031726Y0191882D01*
X0032300Y0191308D01*
X0032874Y0191882D01*
X0034124Y0192400D01*
X0035476Y0192400D01*
X0036726Y0191882D01*
X0037300Y0191308D01*
X0037874Y0191882D01*
X0039124Y0192400D01*
X0040476Y0192400D01*
X0041726Y0191882D01*
X0042300Y0191308D01*
X0042874Y0191882D01*
X0044124Y0192400D01*
X0045476Y0192400D01*
X0046726Y0191882D01*
X0047300Y0191308D01*
X0047874Y0191882D01*
X0049124Y0192400D01*
X0050476Y0192400D01*
X0051726Y0191882D01*
X0052300Y0191308D01*
X0052874Y0191882D01*
X0054124Y0192400D01*
X0055476Y0192400D01*
X0056726Y0191882D01*
X0057300Y0191308D01*
X0057874Y0191882D01*
X0059124Y0192400D01*
X0060476Y0192400D01*
X0061726Y0191882D01*
X0062300Y0191308D01*
X0062874Y0191882D01*
X0064124Y0192400D01*
X0065476Y0192400D01*
X0066726Y0191882D01*
X0067300Y0191308D01*
X0067874Y0191882D01*
X0069124Y0192400D01*
X0070476Y0192400D01*
X0071726Y0191882D01*
X0072300Y0191308D01*
X0072874Y0191882D01*
X0074124Y0192400D01*
X0075476Y0192400D01*
X0076726Y0191882D01*
X0077300Y0191308D01*
X0077874Y0191882D01*
X0079124Y0192400D01*
X0080476Y0192400D01*
X0081726Y0191882D01*
X0082300Y0191308D01*
X0082874Y0191882D01*
X0084124Y0192400D01*
X0085476Y0192400D01*
X0086726Y0191882D01*
X0087300Y0191308D01*
X0087874Y0191882D01*
X0089124Y0192400D01*
X0090476Y0192400D01*
X0091726Y0191882D01*
X0092300Y0191308D01*
X0092874Y0191882D01*
X0094124Y0192400D01*
X0095476Y0192400D01*
X0096726Y0191882D01*
X0097300Y0191308D01*
X0097874Y0191882D01*
X0099124Y0192400D01*
X0100476Y0192400D01*
X0101726Y0191882D01*
X0102300Y0191308D01*
X0102874Y0191882D01*
X0104124Y0192400D01*
X0105476Y0192400D01*
X0106726Y0191882D01*
X0107300Y0191308D01*
X0107874Y0191882D01*
X0109124Y0192400D01*
X0110476Y0192400D01*
X0111726Y0191882D01*
X0112682Y0190926D01*
X0113200Y0189676D01*
X0113200Y0188324D01*
X0112682Y0187074D01*
X0112406Y0186798D01*
X0113941Y0185263D01*
X0113941Y0180172D01*
X0114199Y0180172D01*
X0114800Y0179570D01*
X0115401Y0180172D01*
X0119317Y0180172D01*
X0120137Y0179352D01*
X0120137Y0178700D01*
X0121504Y0178700D01*
X0122500Y0177704D01*
X0122506Y0177698D01*
X0122508Y0177698D01*
X0122600Y0177606D01*
X0122600Y0183796D01*
X0120702Y0185694D01*
X0120476Y0185600D01*
X0119124Y0185600D01*
X0117874Y0186118D01*
X0116918Y0187074D01*
X0116400Y0188324D01*
X0116400Y0189676D01*
X0116918Y0190926D01*
X0117874Y0191882D01*
X0119124Y0192400D01*
X0120476Y0192400D01*
X0121726Y0191882D01*
X0122682Y0190926D01*
X0123200Y0189676D01*
X0123200Y0188324D01*
X0123106Y0188098D01*
X0125300Y0185904D01*
X0126786Y0187391D01*
X0126400Y0188324D01*
X0126400Y0189676D01*
X0126918Y0190926D01*
X0127874Y0191882D01*
X0129124Y0192400D01*
X0130476Y0192400D01*
X0131726Y0191882D01*
X0132682Y0190926D01*
X0133200Y0189676D01*
X0133200Y0188324D01*
X0132682Y0187074D01*
X0131726Y0186118D01*
X0130476Y0185600D01*
X0129804Y0185600D01*
X0128404Y0184200D01*
X0148596Y0184200D01*
X0151786Y0187391D01*
X0151400Y0188324D01*
X0151400Y0189676D01*
X0151918Y0190926D01*
X0152874Y0191882D01*
X0154124Y0192400D01*
X0155476Y0192400D01*
X0156726Y0191882D01*
X0157300Y0191308D01*
X0157874Y0191882D01*
X0159124Y0192400D01*
X0160476Y0192400D01*
X0161726Y0191882D01*
X0162300Y0191308D01*
X0162874Y0191882D01*
X0164124Y0192400D01*
X0165476Y0192400D01*
X0166726Y0191882D01*
X0167300Y0191308D01*
X0167874Y0191882D01*
X0169124Y0192400D01*
X0170476Y0192400D01*
X0171726Y0191882D01*
X0172300Y0191308D01*
X0172874Y0191882D01*
X0174124Y0192400D01*
X0175476Y0192400D01*
X0176726Y0191882D01*
X0177300Y0191308D01*
X0177874Y0191882D01*
X0179124Y0192400D01*
X0180476Y0192400D01*
X0181726Y0191882D01*
X0182300Y0191308D01*
X0182874Y0191882D01*
X0184124Y0192400D01*
X0185476Y0192400D01*
X0186726Y0191882D01*
X0187300Y0191308D01*
X0187874Y0191882D01*
X0189124Y0192400D01*
X0190476Y0192400D01*
X0191726Y0191882D01*
X0192300Y0191308D01*
X0192874Y0191882D01*
X0194033Y0192363D01*
X0193100Y0193296D01*
X0193100Y0196024D01*
X0192874Y0196118D01*
X0192300Y0196692D01*
X0191726Y0196118D01*
X0190476Y0195600D01*
X0189124Y0195600D01*
X0187874Y0196118D01*
X0187300Y0196692D01*
X0186726Y0196118D01*
X0185476Y0195600D01*
X0184124Y0195600D01*
X0182874Y0196118D01*
X0182300Y0196692D01*
X0181726Y0196118D01*
X0180476Y0195600D01*
X0179124Y0195600D01*
X0177874Y0196118D01*
X0177300Y0196692D01*
X0176726Y0196118D01*
X0175476Y0195600D01*
X0174124Y0195600D01*
X0172874Y0196118D01*
X0172300Y0196692D01*
X0171726Y0196118D01*
X0170476Y0195600D01*
X0169124Y0195600D01*
X0167874Y0196118D01*
X0167300Y0196692D01*
X0166726Y0196118D01*
X0165476Y0195600D01*
X0164124Y0195600D01*
X0162874Y0196118D01*
X0162300Y0196692D01*
X0161726Y0196118D01*
X0160476Y0195600D01*
X0159124Y0195600D01*
X0157874Y0196118D01*
X0157300Y0196692D01*
X0156726Y0196118D01*
X0155476Y0195600D01*
X0154124Y0195600D01*
X0152874Y0196118D01*
X0152300Y0196692D01*
X0151726Y0196118D01*
X0150476Y0195600D01*
X0149124Y0195600D01*
X0147874Y0196118D01*
X0147300Y0196692D01*
X0146726Y0196118D01*
X0145476Y0195600D01*
X0144124Y0195600D01*
X0142874Y0196118D01*
X0142300Y0196692D01*
X0141726Y0196118D01*
X0140476Y0195600D01*
X0139124Y0195600D01*
X0137874Y0196118D01*
X0137300Y0196692D01*
X0136726Y0196118D01*
X0135476Y0195600D01*
X0134124Y0195600D01*
X0132874Y0196118D01*
X0132300Y0196692D01*
X0131726Y0196118D01*
X0130476Y0195600D01*
X0129124Y0195600D01*
X0127874Y0196118D01*
X0127300Y0196692D01*
X0126726Y0196118D01*
X0125476Y0195600D01*
X0124124Y0195600D01*
X0122874Y0196118D01*
X0122300Y0196692D01*
X0121726Y0196118D01*
X0120476Y0195600D01*
X0119124Y0195600D01*
X0117874Y0196118D01*
X0117300Y0196692D01*
X0116726Y0196118D01*
X0115476Y0195600D01*
X0114124Y0195600D01*
X0112874Y0196118D01*
X0112300Y0196692D01*
X0111726Y0196118D01*
X0110476Y0195600D01*
X0109124Y0195600D01*
X0107874Y0196118D01*
X0107300Y0196692D01*
X0106726Y0196118D01*
X0105476Y0195600D01*
X0104124Y0195600D01*
X0102874Y0196118D01*
X0102300Y0196692D01*
X0101726Y0196118D01*
X0100476Y0195600D01*
X0099124Y0195600D01*
X0097874Y0196118D01*
X0097300Y0196692D01*
X0096726Y0196118D01*
X0095476Y0195600D01*
X0094124Y0195600D01*
X0092874Y0196118D01*
X0092300Y0196692D01*
X0091726Y0196118D01*
X0090476Y0195600D01*
X0089124Y0195600D01*
X0087874Y0196118D01*
X0087300Y0196692D01*
X0086726Y0196118D01*
X0085476Y0195600D01*
X0084124Y0195600D01*
X0082874Y0196118D01*
X0082300Y0196692D01*
X0081726Y0196118D01*
X0080476Y0195600D01*
X0079124Y0195600D01*
X0077874Y0196118D01*
X0077300Y0196692D01*
X0076726Y0196118D01*
X0075476Y0195600D01*
X0074124Y0195600D01*
X0072874Y0196118D01*
X0072300Y0196692D01*
X0071726Y0196118D01*
X0070476Y0195600D01*
X0069124Y0195600D01*
X0067874Y0196118D01*
X0067300Y0196692D01*
X0066726Y0196118D01*
X0065476Y0195600D01*
X0064124Y0195600D01*
X0062874Y0196118D01*
X0062300Y0196692D01*
X0061726Y0196118D01*
X0060476Y0195600D01*
X0059124Y0195600D01*
X0057874Y0196118D01*
X0057300Y0196692D01*
X0056726Y0196118D01*
X0055476Y0195600D01*
X0054124Y0195600D01*
X0052874Y0196118D01*
X0052300Y0196692D01*
X0051726Y0196118D01*
X0050476Y0195600D01*
X0049124Y0195600D01*
X0047874Y0196118D01*
X0047300Y0196692D01*
X0046726Y0196118D01*
X0045476Y0195600D01*
X0044124Y0195600D01*
X0042874Y0196118D01*
X0042300Y0196692D01*
X0041726Y0196118D01*
X0040476Y0195600D01*
X0039124Y0195600D01*
X0037874Y0196118D01*
X0037300Y0196692D01*
X0036726Y0196118D01*
X0035476Y0195600D01*
X0034124Y0195600D01*
X0032874Y0196118D01*
X0032300Y0196692D01*
X0031726Y0196118D01*
X0031500Y0196024D01*
X0031500Y0195223D02*
X0193100Y0195223D01*
X0193100Y0193624D02*
X0031500Y0193624D01*
X0031380Y0192026D02*
X0033220Y0192026D01*
X0036380Y0192026D02*
X0038220Y0192026D01*
X0041380Y0192026D02*
X0043220Y0192026D01*
X0046380Y0192026D02*
X0048220Y0192026D01*
X0051380Y0192026D02*
X0053220Y0192026D01*
X0056380Y0192026D02*
X0058220Y0192026D01*
X0061380Y0192026D02*
X0063220Y0192026D01*
X0066380Y0192026D02*
X0068220Y0192026D01*
X0071380Y0192026D02*
X0073220Y0192026D01*
X0076380Y0192026D02*
X0078220Y0192026D01*
X0081380Y0192026D02*
X0083220Y0192026D01*
X0086380Y0192026D02*
X0088220Y0192026D01*
X0091380Y0192026D02*
X0093220Y0192026D01*
X0096380Y0192026D02*
X0098220Y0192026D01*
X0101380Y0192026D02*
X0103220Y0192026D01*
X0106380Y0192026D02*
X0108220Y0192026D01*
X0111380Y0192026D02*
X0118220Y0192026D01*
X0116711Y0190427D02*
X0112889Y0190427D01*
X0113200Y0188829D02*
X0116400Y0188829D01*
X0116853Y0187230D02*
X0112747Y0187230D01*
X0113572Y0185632D02*
X0119047Y0185632D01*
X0120553Y0185632D02*
X0120764Y0185632D01*
X0122363Y0184033D02*
X0113941Y0184033D01*
X0113941Y0182435D02*
X0122600Y0182435D01*
X0122600Y0180836D02*
X0113941Y0180836D01*
X0120137Y0179238D02*
X0122600Y0179238D01*
X0122567Y0177639D02*
X0122600Y0177639D01*
X0130553Y0185632D02*
X0150028Y0185632D01*
X0151626Y0187230D02*
X0132747Y0187230D01*
X0133200Y0188829D02*
X0151400Y0188829D01*
X0151711Y0190427D02*
X0132889Y0190427D01*
X0131380Y0192026D02*
X0153220Y0192026D01*
X0156380Y0192026D02*
X0158220Y0192026D01*
X0161380Y0192026D02*
X0163220Y0192026D01*
X0166380Y0192026D02*
X0168220Y0192026D01*
X0171380Y0192026D02*
X0173220Y0192026D01*
X0176380Y0192026D02*
X0178220Y0192026D01*
X0181380Y0192026D02*
X0183220Y0192026D01*
X0186380Y0192026D02*
X0188220Y0192026D01*
X0191380Y0192026D02*
X0193220Y0192026D01*
X0208343Y0177639D02*
X0221700Y0177639D01*
X0221700Y0176041D02*
X0206745Y0176041D01*
X0205146Y0174442D02*
X0218753Y0174442D01*
X0215556Y0172844D02*
X0203548Y0172844D01*
X0201949Y0171245D02*
X0212359Y0171245D01*
X0209162Y0169647D02*
X0200422Y0169647D01*
X0202767Y0166450D02*
X0189225Y0166450D01*
X0193823Y0168048D02*
X0205965Y0168048D01*
X0209942Y0179238D02*
X0221700Y0179238D01*
X0221700Y0180836D02*
X0211540Y0180836D01*
X0213139Y0182435D02*
X0221700Y0182435D01*
X0221700Y0184033D02*
X0213500Y0184033D01*
X0213500Y0185632D02*
X0221700Y0185632D01*
X0221700Y0187230D02*
X0213500Y0187230D01*
X0213500Y0188829D02*
X0221700Y0188829D01*
X0221700Y0190427D02*
X0213500Y0190427D01*
X0213500Y0192026D02*
X0221700Y0192026D01*
X0221700Y0193624D02*
X0213500Y0193624D01*
X0213500Y0195223D02*
X0221700Y0195223D01*
X0221700Y0196821D02*
X0213500Y0196821D01*
X0213500Y0198420D02*
X0221700Y0198420D01*
X0221700Y0200018D02*
X0213500Y0200018D01*
X0213500Y0201617D02*
X0221700Y0201617D01*
X0221700Y0203215D02*
X0213500Y0203215D01*
X0212890Y0204814D02*
X0221700Y0204814D01*
X0221700Y0206412D02*
X0211292Y0206412D01*
X0209693Y0208011D02*
X0221700Y0208011D01*
X0221700Y0209609D02*
X0208095Y0209609D01*
X0206496Y0211208D02*
X0221700Y0211208D01*
X0221700Y0212806D02*
X0204898Y0212806D01*
X0203299Y0214405D02*
X0221700Y0214405D01*
X0221700Y0216003D02*
X0201771Y0216003D01*
X0178202Y0212806D02*
X0048398Y0212806D01*
X0049996Y0211208D02*
X0173604Y0211208D01*
X0158505Y0209609D02*
X0055095Y0209609D01*
X0059193Y0208011D02*
X0156907Y0208011D01*
X0155308Y0206412D02*
X0063292Y0206412D01*
X0068390Y0204814D02*
X0148210Y0204814D01*
X0146611Y0203215D02*
X0072989Y0203215D01*
X0076991Y0201617D02*
X0077609Y0201617D01*
X0081991Y0201617D02*
X0082609Y0201617D01*
X0086991Y0201617D02*
X0087609Y0201617D01*
X0091991Y0201617D02*
X0092609Y0201617D01*
X0096991Y0201617D02*
X0097609Y0201617D01*
X0101991Y0201617D02*
X0102609Y0201617D01*
X0106991Y0201617D02*
X0107609Y0201617D01*
X0111991Y0201617D02*
X0112609Y0201617D01*
X0116991Y0201617D02*
X0117609Y0201617D01*
X0121991Y0201617D02*
X0122609Y0201617D01*
X0126991Y0201617D02*
X0127609Y0201617D01*
X0131991Y0201617D02*
X0132609Y0201617D01*
X0136991Y0201617D02*
X0137609Y0201617D01*
X0141991Y0201617D02*
X0142609Y0201617D01*
X0128220Y0192026D02*
X0121380Y0192026D01*
X0122889Y0190427D02*
X0126711Y0190427D01*
X0126400Y0188829D02*
X0123200Y0188829D01*
X0123974Y0187230D02*
X0126626Y0187230D01*
X0170550Y0159775D02*
X0170550Y0145806D01*
X0170555Y0145088D01*
X0170550Y0145082D01*
X0170550Y0145075D01*
X0170042Y0144567D01*
X0156550Y0130882D01*
X0156550Y0113725D01*
X0174050Y0096225D01*
X0174050Y0094775D01*
X0174000Y0094725D01*
X0174000Y0093704D01*
X0175004Y0092700D01*
X0176000Y0091704D01*
X0176000Y0089204D01*
X0178700Y0086504D01*
X0178700Y0162617D01*
X0178755Y0162750D01*
X0176525Y0162750D01*
X0176050Y0162275D01*
X0175025Y0161250D01*
X0172025Y0161250D01*
X0171550Y0160775D01*
X0170550Y0159775D01*
X0170830Y0160056D02*
X0178700Y0160056D01*
X0178700Y0161654D02*
X0175429Y0161654D01*
X0178700Y0158457D02*
X0170550Y0158457D01*
X0170550Y0156859D02*
X0178700Y0156859D01*
X0178700Y0155260D02*
X0170550Y0155260D01*
X0170550Y0153662D02*
X0178700Y0153662D01*
X0178700Y0152063D02*
X0170550Y0152063D01*
X0170550Y0150465D02*
X0178700Y0150465D01*
X0178700Y0148866D02*
X0170550Y0148866D01*
X0170550Y0147268D02*
X0178700Y0147268D01*
X0178700Y0145669D02*
X0170551Y0145669D01*
X0169552Y0144070D02*
X0178700Y0144070D01*
X0178700Y0142472D02*
X0167976Y0142472D01*
X0166400Y0140873D02*
X0178700Y0140873D01*
X0178700Y0139275D02*
X0164824Y0139275D01*
X0163248Y0137676D02*
X0178700Y0137676D01*
X0178700Y0136078D02*
X0161672Y0136078D01*
X0160096Y0134479D02*
X0178700Y0134479D01*
X0178700Y0132881D02*
X0158520Y0132881D01*
X0156944Y0131282D02*
X0178700Y0131282D01*
X0178700Y0129684D02*
X0156550Y0129684D01*
X0156550Y0128085D02*
X0178700Y0128085D01*
X0178700Y0126487D02*
X0156550Y0126487D01*
X0156550Y0124888D02*
X0178700Y0124888D01*
X0178700Y0123290D02*
X0156550Y0123290D01*
X0156550Y0121691D02*
X0178700Y0121691D01*
X0178700Y0120093D02*
X0156550Y0120093D01*
X0156550Y0118494D02*
X0178700Y0118494D01*
X0178700Y0116896D02*
X0156550Y0116896D01*
X0156550Y0115297D02*
X0178700Y0115297D01*
X0178700Y0113699D02*
X0156576Y0113699D01*
X0158175Y0112100D02*
X0178700Y0112100D01*
X0178700Y0110502D02*
X0159773Y0110502D01*
X0161372Y0108903D02*
X0178700Y0108903D01*
X0178700Y0107305D02*
X0162970Y0107305D01*
X0164569Y0105706D02*
X0178700Y0105706D01*
X0178700Y0104108D02*
X0166167Y0104108D01*
X0167766Y0102509D02*
X0178700Y0102509D01*
X0178700Y0100911D02*
X0169364Y0100911D01*
X0170963Y0099312D02*
X0178700Y0099312D01*
X0178700Y0097714D02*
X0172561Y0097714D01*
X0174050Y0096115D02*
X0178700Y0096115D01*
X0178700Y0094517D02*
X0174000Y0094517D01*
X0174786Y0092918D02*
X0178700Y0092918D01*
X0178700Y0091320D02*
X0176000Y0091320D01*
X0176000Y0089721D02*
X0178700Y0089721D01*
X0178700Y0088123D02*
X0177082Y0088123D01*
X0178680Y0086524D02*
X0178700Y0086524D01*
X0144100Y0080208D02*
X0144100Y0077750D01*
X0143556Y0077750D01*
X0142825Y0077447D01*
X0141094Y0077447D01*
X0141335Y0077828D01*
X0141700Y0078193D01*
X0141700Y0078404D01*
X0142173Y0079150D01*
X0142450Y0079150D01*
X0143461Y0079569D01*
X0144100Y0080208D01*
X0144100Y0080130D02*
X0144022Y0080130D01*
X0144100Y0078532D02*
X0141781Y0078532D01*
X0141521Y0074047D02*
X0139922Y0074047D01*
X0139879Y0074004D01*
X0140063Y0073820D01*
X0140063Y0072950D01*
X0139710Y0072598D01*
X0140063Y0072245D01*
X0140063Y0071375D01*
X0139710Y0071023D01*
X0140063Y0070670D01*
X0140063Y0070100D01*
X0142580Y0070100D01*
X0144292Y0072250D01*
X0143556Y0072250D01*
X0142545Y0072669D01*
X0141772Y0073442D01*
X0141521Y0074047D01*
X0141650Y0073736D02*
X0140063Y0073736D01*
X0140063Y0072137D02*
X0144202Y0072137D01*
X0142930Y0070539D02*
X0140063Y0070539D01*
X0133947Y0070539D02*
X0130255Y0070539D01*
X0130255Y0072137D02*
X0133947Y0072137D01*
X0133947Y0073736D02*
X0130255Y0073736D01*
X0130255Y0075334D02*
X0133361Y0075334D01*
X0133573Y0076933D02*
X0130255Y0076933D01*
X0130255Y0078532D02*
X0133361Y0078532D01*
X0133620Y0080130D02*
X0130255Y0080130D01*
X0130255Y0081729D02*
X0133361Y0081729D01*
X0133668Y0083327D02*
X0129948Y0083327D01*
X0123308Y0084926D02*
X0140360Y0084926D01*
X0138872Y0086524D02*
X0123312Y0086524D01*
X0123315Y0088123D02*
X0137273Y0088123D01*
X0135675Y0089721D02*
X0123318Y0089721D01*
X0123322Y0091320D02*
X0134076Y0091320D01*
X0132478Y0092918D02*
X0123325Y0092918D01*
X0123328Y0094517D02*
X0130879Y0094517D01*
X0129281Y0096115D02*
X0123332Y0096115D01*
X0123335Y0097714D02*
X0127682Y0097714D01*
X0126084Y0099312D02*
X0123339Y0099312D01*
X0123342Y0100911D02*
X0124485Y0100911D01*
X0123596Y0101800D02*
X0123596Y0101800D01*
X0130255Y0068940D02*
X0133454Y0068940D01*
X0133361Y0067342D02*
X0130255Y0067342D01*
X0130255Y0065743D02*
X0133361Y0065743D01*
X0133361Y0064145D02*
X0130255Y0064145D01*
X0130255Y0062546D02*
X0133361Y0062546D01*
X0133361Y0060948D02*
X0130255Y0060948D01*
X0130255Y0059349D02*
X0133361Y0059349D01*
X0133361Y0057751D02*
X0130255Y0057751D01*
X0130255Y0056152D02*
X0133361Y0056152D01*
X0133361Y0054554D02*
X0130255Y0054554D01*
X0130255Y0052955D02*
X0133361Y0052955D01*
X0133361Y0051357D02*
X0130255Y0051357D01*
X0130255Y0049758D02*
X0133361Y0049758D01*
X0133361Y0048160D02*
X0130255Y0048160D01*
X0130255Y0046561D02*
X0133361Y0046561D01*
X0133361Y0044963D02*
X0130255Y0044963D01*
X0130255Y0043364D02*
X0133361Y0043364D01*
X0133361Y0041766D02*
X0130255Y0041766D01*
X0130255Y0040167D02*
X0133361Y0040167D01*
X0133361Y0038569D02*
X0130255Y0038569D01*
X0130255Y0036970D02*
X0133361Y0036970D01*
X0133361Y0035372D02*
X0130255Y0035372D01*
X0130255Y0033773D02*
X0133361Y0033773D01*
X0133361Y0032175D02*
X0130255Y0032175D01*
X0130255Y0030576D02*
X0133361Y0030576D01*
X0133361Y0028978D02*
X0130255Y0028978D01*
X0130255Y0027379D02*
X0133361Y0027379D01*
X0133361Y0025781D02*
X0130255Y0025781D01*
X0130057Y0024182D02*
X0133558Y0024182D01*
X0136350Y0022584D02*
X0123368Y0022584D01*
X0123827Y0020985D02*
X0136926Y0020985D01*
X0137092Y0017788D02*
X0178700Y0017788D01*
X0178700Y0016190D02*
X0138609Y0016190D01*
X0139272Y0014591D02*
X0178700Y0014591D01*
X0178700Y0012993D02*
X0139502Y0012993D01*
X0139435Y0011394D02*
X0178700Y0011394D01*
X0178700Y0009796D02*
X0138773Y0009796D01*
X0137487Y0008197D02*
X0178700Y0008197D01*
X0178700Y0019387D02*
X0124050Y0019387D01*
X0123077Y0017788D02*
X0129437Y0017788D01*
X0115785Y0020985D02*
X0106915Y0020985D01*
X0104162Y0033773D02*
X0110668Y0033773D01*
X0145174Y0020985D02*
X0146344Y0020985D01*
X0149056Y0020985D02*
X0178700Y0020985D01*
X0178700Y0022584D02*
X0150338Y0022584D01*
X0150353Y0024182D02*
X0178700Y0024182D01*
X0178700Y0025781D02*
X0151796Y0025781D01*
X0151895Y0027379D02*
X0178700Y0027379D01*
X0178700Y0028978D02*
X0150811Y0028978D01*
X0150710Y0030576D02*
X0178700Y0030576D01*
X0178700Y0032175D02*
X0153300Y0032175D01*
X0153249Y0032175D02*
X0152610Y0032175D01*
X0149490Y0030576D02*
X0147845Y0030576D01*
X0147590Y0032175D02*
X0147539Y0032175D01*
X0160977Y0033773D02*
X0178700Y0033773D01*
X0178700Y0035372D02*
X0162000Y0035372D01*
X0169674Y0036970D02*
X0178700Y0036970D01*
X0178700Y0038569D02*
X0171273Y0038569D01*
X0172871Y0040167D02*
X0178700Y0040167D01*
X0178700Y0041766D02*
X0174470Y0041766D01*
X0176068Y0043364D02*
X0178700Y0043364D01*
X0178700Y0044963D02*
X0177667Y0044963D01*
X0178000Y0046561D02*
X0178700Y0046561D01*
X0178700Y0048160D02*
X0178000Y0048160D01*
X0178000Y0049758D02*
X0178700Y0049758D01*
X0178700Y0051357D02*
X0178000Y0051357D01*
X0178159Y0052955D02*
X0178700Y0052955D01*
D16*
X0066800Y0093000D03*
X0066800Y0153500D03*
X0021800Y0169000D03*
X0010300Y0214000D03*
X0117300Y0183000D03*
X0064800Y0025500D03*
D17*
X0121600Y0081000D02*
X0123903Y0078897D01*
X0122328Y0080472D02*
X0126611Y0080472D01*
X0126611Y0078897D02*
X0126611Y0077322D01*
D18*
X0095800Y0084500D02*
X0095800Y0069000D01*
X0094300Y0068500D02*
X0094300Y0085000D01*
X0094800Y0085500D01*
X0094800Y0088500D01*
X0093300Y0089000D02*
X0093300Y0086000D01*
X0092800Y0085500D01*
X0092800Y0068000D01*
X0093800Y0067000D01*
X0093800Y0058500D01*
X0092300Y0058000D02*
X0092300Y0066500D01*
X0091300Y0067500D01*
X0091300Y0086000D01*
X0091800Y0086500D01*
X0091800Y0089500D01*
X0094300Y0092000D01*
X0094300Y0150500D01*
X0082800Y0162000D01*
X0082800Y0163000D01*
X0077800Y0163000D01*
X0074300Y0166500D01*
X0071300Y0166500D01*
X0069800Y0168000D01*
X0065800Y0168000D01*
X0064300Y0169500D01*
X0061300Y0169500D01*
X0060800Y0168000D02*
X0063800Y0168000D01*
X0065300Y0166500D01*
X0069300Y0166500D01*
X0070800Y0165000D01*
X0073800Y0165000D01*
X0077300Y0161500D01*
X0081300Y0161500D01*
X0092800Y0150000D01*
X0092800Y0092500D01*
X0090300Y0090000D01*
X0090300Y0087000D01*
X0089800Y0086500D01*
X0089800Y0067000D01*
X0090800Y0066000D01*
X0090800Y0057500D01*
X0089300Y0057000D02*
X0089300Y0065500D01*
X0088300Y0066500D01*
X0088300Y0087000D01*
X0088800Y0087500D01*
X0088800Y0090500D01*
X0091300Y0093000D01*
X0091300Y0149500D01*
X0080800Y0160000D01*
X0076800Y0160000D01*
X0073300Y0163500D01*
X0070300Y0163500D01*
X0068800Y0165000D01*
X0064800Y0165000D01*
X0063300Y0166500D01*
X0060300Y0166500D01*
X0058800Y0168000D01*
X0056500Y0168000D01*
X0055000Y0169500D01*
X0050800Y0169500D01*
X0050500Y0168000D02*
X0054500Y0168000D01*
X0056000Y0166500D01*
X0058300Y0166500D01*
X0059800Y0165000D01*
X0062800Y0165000D01*
X0064300Y0163500D01*
X0068300Y0163500D01*
X0069800Y0162000D01*
X0072800Y0162000D01*
X0076300Y0158500D01*
X0080300Y0158500D01*
X0089800Y0149000D01*
X0089800Y0093500D01*
X0087300Y0091000D01*
X0087300Y0088000D01*
X0086800Y0087500D01*
X0086800Y0066000D01*
X0087800Y0065000D01*
X0087800Y0056500D01*
X0086300Y0056000D02*
X0086300Y0064500D01*
X0085300Y0065500D01*
X0085300Y0088000D01*
X0085800Y0088500D01*
X0085800Y0091500D01*
X0088300Y0094000D01*
X0088300Y0148500D01*
X0079800Y0157000D01*
X0075800Y0157000D01*
X0072300Y0160500D01*
X0069300Y0160500D01*
X0067800Y0162000D01*
X0063800Y0162000D01*
X0062300Y0163500D01*
X0059300Y0163500D01*
X0057800Y0165000D01*
X0055300Y0165000D01*
X0054000Y0166500D01*
X0050200Y0166500D01*
X0048500Y0167800D01*
X0047300Y0167800D01*
X0045800Y0169500D01*
X0042300Y0169500D01*
X0041800Y0168000D02*
X0040300Y0169500D01*
X0037800Y0169500D01*
X0041800Y0168000D02*
X0045300Y0168000D01*
X0046800Y0166300D01*
X0048000Y0166300D01*
X0049500Y0165200D01*
X0053300Y0165200D01*
X0054800Y0163500D01*
X0057300Y0163500D01*
X0058800Y0162000D01*
X0061800Y0162000D01*
X0063300Y0160500D01*
X0066800Y0160500D01*
X0068300Y0159000D01*
X0071800Y0159000D01*
X0075300Y0155500D01*
X0079300Y0155500D01*
X0086800Y0148000D01*
X0086800Y0094500D01*
X0084300Y0092000D01*
X0084300Y0089000D01*
X0083800Y0088500D01*
X0083800Y0065000D01*
X0084800Y0064000D01*
X0084800Y0055500D01*
X0095300Y0059000D02*
X0095300Y0067500D01*
X0094300Y0068500D01*
X0093300Y0089000D02*
X0095800Y0091500D01*
X0095800Y0151000D01*
X0084300Y0162500D01*
X0084300Y0164500D01*
X0078300Y0164500D01*
X0074800Y0168000D01*
X0071800Y0168000D01*
X0070300Y0169500D01*
X0066300Y0169500D01*
X0072300Y0169500D02*
X0075300Y0169500D01*
X0078800Y0166000D01*
X0085800Y0166000D01*
X0085800Y0163000D01*
X0097300Y0151500D01*
X0098800Y0152000D02*
X0087300Y0163500D01*
X0087300Y0167500D01*
X0079300Y0167500D01*
X0079800Y0169000D02*
X0087800Y0169000D01*
X0088800Y0168000D01*
X0088800Y0164000D01*
X0098800Y0154000D01*
X0100300Y0154000D01*
X0099300Y0155500D02*
X0101800Y0155500D01*
X0103300Y0157000D02*
X0099800Y0157000D01*
X0091800Y0165000D01*
X0091800Y0169000D01*
X0090300Y0168500D02*
X0090300Y0164500D01*
X0099300Y0155500D01*
X0100300Y0158500D02*
X0104800Y0158500D01*
X0106300Y0160000D02*
X0100800Y0160000D01*
X0094800Y0166000D01*
X0093300Y0165500D02*
X0100300Y0158500D01*
X0101300Y0161500D02*
X0107800Y0161500D01*
X0109300Y0163000D02*
X0101800Y0163000D01*
X0097800Y0167000D01*
X0099300Y0167500D02*
X0102300Y0164500D01*
X0110800Y0164500D01*
X0112300Y0166000D02*
X0102800Y0166000D01*
X0100800Y0168000D01*
X0102300Y0168500D02*
X0103300Y0167500D01*
X0114300Y0167500D01*
X0115800Y0169000D02*
X0103800Y0169000D01*
X0096300Y0166500D02*
X0101300Y0161500D01*
X0093300Y0165500D02*
X0093300Y0169500D01*
X0090300Y0168500D02*
X0088300Y0170500D01*
X0080300Y0170500D01*
X0060800Y0168000D02*
X0059300Y0169500D01*
X0057000Y0169500D01*
X0050500Y0168000D02*
X0049000Y0169300D01*
X0047800Y0169300D01*
X0139800Y0137200D02*
X0139800Y0108000D01*
X0141300Y0108500D02*
X0141300Y0136700D01*
X0156300Y0151500D01*
X0156300Y0169500D01*
X0155000Y0170000D02*
X0155000Y0152400D01*
X0139800Y0137200D01*
X0142800Y0136200D02*
X0142800Y0109000D01*
X0144300Y0109500D02*
X0144300Y0135700D01*
X0159300Y0150500D01*
X0159300Y0168500D01*
X0160800Y0168000D02*
X0160800Y0150000D01*
X0145800Y0135200D01*
X0145800Y0110000D01*
X0147300Y0110500D02*
X0147300Y0134500D01*
X0162300Y0149500D01*
X0162300Y0167500D01*
X0163800Y0169000D01*
X0167300Y0169000D01*
X0168800Y0170500D01*
X0171800Y0170500D01*
X0172300Y0169000D02*
X0169300Y0169000D01*
X0167800Y0167500D01*
X0166100Y0167500D01*
X0163600Y0165000D01*
X0163600Y0148800D01*
X0148800Y0133800D01*
X0148800Y0111000D01*
X0150300Y0111500D02*
X0150300Y0133300D01*
X0164900Y0148100D01*
X0164900Y0164300D01*
X0166600Y0166000D01*
X0168300Y0166000D01*
X0169800Y0167500D01*
X0172800Y0167500D01*
X0174300Y0169000D01*
X0176800Y0169000D01*
X0178300Y0170500D01*
X0181800Y0170500D01*
X0182300Y0169000D02*
X0178800Y0169000D01*
X0177300Y0167500D01*
X0174800Y0167500D01*
X0173300Y0166000D01*
X0170300Y0166000D01*
X0168800Y0164500D01*
X0167000Y0164500D01*
X0166200Y0163700D01*
X0166200Y0147400D01*
X0151800Y0132800D01*
X0151800Y0112000D01*
X0169300Y0094500D01*
X0170800Y0095000D02*
X0153300Y0112500D01*
X0153300Y0132100D01*
X0167500Y0146500D01*
X0167500Y0163000D01*
X0169300Y0163000D01*
X0170800Y0164500D01*
X0173800Y0164500D01*
X0175300Y0166000D01*
X0177800Y0166000D01*
X0179300Y0167500D01*
X0182800Y0167500D01*
X0184300Y0169000D01*
X0187300Y0169000D01*
X0188800Y0170500D01*
X0191800Y0170500D01*
X0192300Y0169000D02*
X0189300Y0169000D01*
X0187800Y0167500D01*
X0184800Y0167500D01*
X0183300Y0166000D01*
X0179800Y0166000D01*
X0178300Y0164500D01*
X0175800Y0164500D01*
X0174300Y0163000D01*
X0171300Y0163000D01*
X0169800Y0161500D01*
X0168800Y0161500D01*
X0168800Y0145800D01*
X0154800Y0131600D01*
X0154800Y0113000D01*
X0172300Y0095500D01*
X0178800Y0084000D02*
X0178800Y0064500D01*
X0142800Y0136200D02*
X0157800Y0151000D01*
X0157800Y0169000D01*
X0160800Y0168000D02*
X0163300Y0170500D01*
X0166800Y0170500D01*
X0172300Y0169000D02*
X0173800Y0170500D01*
X0176300Y0170500D01*
X0182300Y0169000D02*
X0183800Y0170500D01*
X0186800Y0170500D01*
X0192300Y0169000D02*
X0193800Y0170500D01*
X0198800Y0170500D01*
X0200800Y0214500D02*
X0188800Y0214500D01*
M02*
