%
M48
M72
T01C0.01300
T02C0.01969
T03C0.02200
T04C0.07874
T05C0.11024
%
T01
X99900Y28400
X102100Y25300
X105800Y23500
X113200Y32700
X116900Y31000
X117600Y38200
X117500Y44800
X122300Y50300
X118900Y56000
X113900Y53000
X110500Y54700
X107200Y59000
X108000Y63600
X112200Y63700
X109900Y70700
X113200Y72100
X116600Y71000
X120300Y76800
X121600Y81000
X116300Y79400
X113200Y77100
X120300Y64800
X103800Y65100
X109700Y48700
X106300Y46500
X109000Y41900
X103200Y40600
X102100Y35600
X118300Y22100
X121300Y19900
X131800Y21500
X139100Y22700
X143100Y22800
X147700Y23400
X149200Y26700
X144800Y31600
X150100Y33300
X152700Y36100
X157600Y36400
X157800Y40000
X150500Y44600
X146800Y46200
X142600Y46800
X144000Y40600
X142400Y54400
X143000Y62000
X149200Y59900
X153800Y62400
X153800Y67700
X151900Y70800
X151100Y74300
X147300Y73300
X144103Y75000
X141800Y71200
X142900Y78300
X141903Y81900
X128300Y90500
X154500Y57400
X150600Y53600
X160000Y49900
X161300Y53700
X169300Y16500
X169300Y123000
X137300Y185500
X94800Y215000
X214800Y212000
T02
X64800Y25500
X66800Y93000
X66800Y153500
X21800Y169000
X10300Y214000
X117300Y183000
T03
X114800Y189000
X109800Y189000
X104800Y189000
X99800Y189000
X94800Y189000
X89800Y189000
X84800Y189000
X79800Y189000
X74800Y189000
X69800Y189000
X64800Y189000
X59800Y189000
X54800Y189000
X49800Y189000
X44800Y189000
X39800Y189000
X34800Y189000
X29800Y189000
X29800Y199000
X34800Y199000
X39800Y199000
X44800Y199000
X49800Y199000
X54800Y199000
X59800Y199000
X64800Y199000
X69800Y199000
X74800Y199000
X79800Y199000
X84800Y199000
X89800Y199000
X94800Y199000
X99800Y199000
X104800Y199000
X109800Y199000
X114800Y199000
X119800Y199000
X124800Y199000
X129800Y199000
X134800Y199000
X139800Y199000
X144800Y199000
X149800Y199000
X154800Y199000
X159800Y199000
X164800Y199000
X169800Y199000
X174800Y199000
X179800Y199000
X184800Y199000
X189800Y199000
X194800Y199000
X194800Y189000
X189800Y189000
X184800Y189000
X179800Y189000
X174800Y189000
X169800Y189000
X164800Y189000
X159800Y189000
X154800Y189000
X149800Y189000
X144800Y189000
X139800Y189000
X134800Y189000
X129800Y189000
X124800Y189000
X119800Y189000
T04
X52162Y125748
X133265Y12795
T05
X145800Y156000
M30
