G75*
%MOIN*%
%OFA0B0*%
%FSLAX25Y25*%
%IPPOS*%
%LPD*%
%AMOC8*
5,1,8,0,0,1.08239X$1,22.5*
%
%ADD10R,0.04488X0.00787*%
%ADD11C,0.04000*%
%ADD12C,0.02700*%
%ADD13C,0.01600*%
%ADD14C,0.03369*%
%ADD15C,0.00600*%
%ADD16C,0.01200*%
%ADD17C,0.00700*%
D10*
X0126611Y0026929D03*
X0126611Y0028504D03*
X0126611Y0030079D03*
X0126611Y0031654D03*
X0126611Y0033228D03*
X0126611Y0034803D03*
X0126611Y0036378D03*
X0126611Y0037953D03*
X0126611Y0039528D03*
X0126611Y0041102D03*
X0126611Y0042677D03*
X0126611Y0044252D03*
X0126611Y0045827D03*
X0126611Y0047402D03*
X0126611Y0048976D03*
X0126611Y0050551D03*
X0126611Y0052126D03*
X0126611Y0053701D03*
X0126611Y0055276D03*
X0126611Y0056850D03*
X0126611Y0058425D03*
X0126611Y0060000D03*
X0126611Y0061575D03*
X0126611Y0063150D03*
X0126611Y0064724D03*
X0126611Y0066299D03*
X0126611Y0067874D03*
X0126611Y0069449D03*
X0126611Y0071024D03*
X0126611Y0072598D03*
X0126611Y0074173D03*
X0126611Y0075748D03*
X0126611Y0077323D03*
X0126611Y0078898D03*
X0126611Y0080472D03*
X0137005Y0080472D03*
X0137005Y0078898D03*
X0137005Y0077323D03*
X0137005Y0075748D03*
X0137005Y0074173D03*
X0137005Y0072598D03*
X0137005Y0071024D03*
X0137005Y0069449D03*
X0137005Y0067874D03*
X0137005Y0066299D03*
X0137005Y0064724D03*
X0137005Y0063150D03*
X0137005Y0061575D03*
X0137005Y0060000D03*
X0137005Y0058425D03*
X0137005Y0056850D03*
X0137005Y0055276D03*
X0137005Y0053701D03*
X0137005Y0052126D03*
X0137005Y0050551D03*
X0137005Y0048976D03*
X0137005Y0047402D03*
X0137005Y0045827D03*
X0137005Y0044252D03*
X0137005Y0042677D03*
X0137005Y0041102D03*
X0137005Y0039528D03*
X0137005Y0037953D03*
X0137005Y0036378D03*
X0137005Y0034803D03*
X0137005Y0033228D03*
X0137005Y0031654D03*
X0137005Y0030079D03*
X0137005Y0028504D03*
X0137005Y0026929D03*
D11*
X0134800Y0189000D03*
X0129800Y0189000D03*
X0124800Y0189000D03*
X0119800Y0189000D03*
X0114800Y0189000D03*
X0109800Y0189000D03*
X0104800Y0189000D03*
X0099800Y0189000D03*
X0094800Y0189000D03*
X0089800Y0189000D03*
X0084800Y0189000D03*
X0079800Y0189000D03*
X0074800Y0189000D03*
X0069800Y0189000D03*
X0064800Y0189000D03*
X0059800Y0189000D03*
X0054800Y0189000D03*
X0049800Y0189000D03*
X0044800Y0189000D03*
X0039800Y0189000D03*
X0034800Y0189000D03*
X0029800Y0189000D03*
X0029800Y0199000D03*
X0034800Y0199000D03*
X0039800Y0199000D03*
X0044800Y0199000D03*
X0049800Y0199000D03*
X0054800Y0199000D03*
X0059800Y0199000D03*
X0064800Y0199000D03*
X0069800Y0199000D03*
X0074800Y0199000D03*
X0079800Y0199000D03*
X0084800Y0199000D03*
X0089800Y0199000D03*
X0094800Y0199000D03*
X0099800Y0199000D03*
X0104800Y0199000D03*
X0109800Y0199000D03*
X0114800Y0199000D03*
X0119800Y0199000D03*
X0124800Y0199000D03*
X0129800Y0199000D03*
X0134800Y0199000D03*
X0139800Y0199000D03*
X0144800Y0199000D03*
X0149800Y0199000D03*
X0154800Y0199000D03*
X0159800Y0199000D03*
X0164800Y0199000D03*
X0169800Y0199000D03*
X0174800Y0199000D03*
X0179800Y0199000D03*
X0184800Y0199000D03*
X0189800Y0199000D03*
X0194800Y0199000D03*
X0194800Y0189000D03*
X0189800Y0189000D03*
X0184800Y0189000D03*
X0179800Y0189000D03*
X0174800Y0189000D03*
X0169800Y0189000D03*
X0164800Y0189000D03*
X0159800Y0189000D03*
X0154800Y0189000D03*
X0149800Y0189000D03*
X0144800Y0189000D03*
X0139800Y0189000D03*
D12*
X0137300Y0185500D03*
X0094800Y0215000D03*
X0169300Y0123000D03*
X0128300Y0090500D03*
X0121600Y0081000D03*
X0120300Y0076800D03*
X0116300Y0079400D03*
X0113200Y0077100D03*
X0113200Y0072100D03*
X0109900Y0070700D03*
X0116600Y0071000D03*
X0120300Y0064800D03*
X0112200Y0063700D03*
X0108000Y0063600D03*
X0103800Y0065100D03*
X0107200Y0059000D03*
X0110500Y0054700D03*
X0113900Y0053000D03*
X0118900Y0056000D03*
X0122300Y0050300D03*
X0117500Y0044800D03*
X0117600Y0038200D03*
X0113200Y0032700D03*
X0116900Y0031000D03*
X0118300Y0022100D03*
X0121300Y0019900D03*
X0131800Y0021500D03*
X0139100Y0022700D03*
X0143100Y0022800D03*
X0147700Y0023400D03*
X0149200Y0026700D03*
X0144800Y0031600D03*
X0150100Y0033300D03*
X0152700Y0036100D03*
X0157600Y0036400D03*
X0157800Y0040000D03*
X0150500Y0044600D03*
X0146800Y0046200D03*
X0142600Y0046800D03*
X0144000Y0040600D03*
X0142400Y0054400D03*
X0143000Y0062000D03*
X0149200Y0059900D03*
X0153800Y0062400D03*
X0153800Y0067700D03*
X0151900Y0070800D03*
X0151100Y0074300D03*
X0147300Y0073300D03*
X0144103Y0075000D03*
X0141800Y0071200D03*
X0142900Y0078300D03*
X0141903Y0081900D03*
X0154500Y0057400D03*
X0150600Y0053600D03*
X0160000Y0049900D03*
X0161300Y0053700D03*
X0169300Y0016500D03*
X0109000Y0041900D03*
X0106300Y0046500D03*
X0109700Y0048700D03*
X0103200Y0040600D03*
X0102100Y0035600D03*
X0099900Y0028400D03*
X0102100Y0025300D03*
X0105800Y0023500D03*
X0214800Y0212000D03*
D13*
X0050900Y0119520D02*
X0050900Y0008100D01*
X0129139Y0008100D01*
X0127977Y0009262D01*
X0127028Y0011555D01*
X0127028Y0014036D01*
X0127977Y0016328D01*
X0129732Y0018083D01*
X0132024Y0019032D01*
X0134505Y0019032D01*
X0136798Y0018083D01*
X0138552Y0016328D01*
X0139502Y0014036D01*
X0139502Y0011555D01*
X0138552Y0009262D01*
X0137390Y0008100D01*
X0178700Y0008100D01*
X0178700Y0161383D01*
X0178700Y0162617D01*
X0179172Y0163756D01*
X0180044Y0164628D01*
X0181183Y0165100D01*
X0200068Y0165100D01*
X0221700Y0175916D01*
X0221700Y0216900D01*
X0004900Y0216900D01*
X0004900Y0175739D01*
X0020672Y0166100D01*
X0048417Y0166100D01*
X0049556Y0165628D01*
X0050428Y0164756D01*
X0050900Y0163617D01*
X0050900Y0131976D01*
X0050922Y0131985D01*
X0053403Y0131985D01*
X0055695Y0131036D01*
X0057450Y0129281D01*
X0058399Y0126989D01*
X0058399Y0124507D01*
X0057450Y0122215D01*
X0055695Y0120461D01*
X0053403Y0119511D01*
X0050922Y0119511D01*
X0050900Y0119520D01*
X0050900Y0118494D02*
X0071050Y0118494D01*
X0071050Y0116896D02*
X0050900Y0116896D01*
X0050900Y0115297D02*
X0071050Y0115297D01*
X0071050Y0113699D02*
X0050900Y0113699D01*
X0050900Y0112100D02*
X0071050Y0112100D01*
X0071050Y0110502D02*
X0050900Y0110502D01*
X0050900Y0108903D02*
X0071050Y0108903D01*
X0071050Y0107305D02*
X0050900Y0107305D01*
X0050900Y0105706D02*
X0071050Y0105706D01*
X0071050Y0104108D02*
X0050900Y0104108D01*
X0050900Y0102509D02*
X0071050Y0102509D01*
X0071050Y0100911D02*
X0050900Y0100911D01*
X0050900Y0099312D02*
X0071050Y0099312D01*
X0071050Y0097714D02*
X0050900Y0097714D01*
X0050900Y0096115D02*
X0071050Y0096115D01*
X0071050Y0094517D02*
X0050900Y0094517D01*
X0050900Y0092918D02*
X0071050Y0092918D01*
X0071050Y0091320D02*
X0050900Y0091320D01*
X0050900Y0089721D02*
X0071050Y0089721D01*
X0071050Y0088123D02*
X0050900Y0088123D01*
X0050900Y0086524D02*
X0071050Y0086524D01*
X0071050Y0084926D02*
X0050900Y0084926D01*
X0050900Y0083327D02*
X0071050Y0083327D01*
X0071050Y0081729D02*
X0050900Y0081729D01*
X0050900Y0080130D02*
X0071050Y0080130D01*
X0071050Y0078532D02*
X0050900Y0078532D01*
X0050900Y0076933D02*
X0071050Y0076933D01*
X0071050Y0075334D02*
X0050900Y0075334D01*
X0050900Y0073736D02*
X0071050Y0073736D01*
X0071050Y0072137D02*
X0050900Y0072137D01*
X0050900Y0070539D02*
X0071050Y0070539D01*
X0071050Y0068940D02*
X0050900Y0068940D01*
X0050900Y0067342D02*
X0071050Y0067342D01*
X0071050Y0065743D02*
X0050900Y0065743D01*
X0050900Y0064145D02*
X0071050Y0064145D01*
X0071050Y0062546D02*
X0050900Y0062546D01*
X0050900Y0060948D02*
X0071050Y0060948D01*
X0071050Y0060775D02*
X0072050Y0059775D01*
X0072050Y0051275D01*
X0086550Y0036775D01*
X0086550Y0032775D01*
X0090550Y0028775D01*
X0090550Y0025775D01*
X0091575Y0024750D01*
X0091646Y0024750D01*
X0095543Y0020852D01*
X0096100Y0020185D01*
X0096100Y0020096D01*
X0096543Y0019652D01*
X0096945Y0019171D01*
X0097033Y0019163D01*
X0097300Y0018896D01*
X0098296Y0017900D01*
X0119411Y0017900D01*
X0119742Y0017569D01*
X0120753Y0017150D01*
X0121847Y0017150D01*
X0122858Y0017569D01*
X0123631Y0018342D01*
X0124050Y0019353D01*
X0124050Y0020447D01*
X0123631Y0021458D01*
X0123267Y0021822D01*
X0123398Y0022811D01*
X0123507Y0022900D01*
X0123604Y0022900D01*
X0124042Y0023338D01*
X0124521Y0023730D01*
X0124531Y0023827D01*
X0124600Y0023896D01*
X0124600Y0024515D01*
X0124662Y0025132D01*
X0124658Y0025135D01*
X0129435Y0025135D01*
X0130255Y0025956D01*
X0130255Y0081446D01*
X0129435Y0082266D01*
X0127646Y0082266D01*
X0127439Y0082472D01*
X0123967Y0082472D01*
X0123931Y0082558D01*
X0123158Y0083331D01*
X0122147Y0083750D01*
X0121053Y0083750D01*
X0120042Y0083331D01*
X0119269Y0082558D01*
X0118850Y0081547D01*
X0118850Y0080453D01*
X0119269Y0079442D01*
X0119334Y0079377D01*
X0119050Y0079259D01*
X0119050Y0079947D01*
X0118631Y0080958D01*
X0117858Y0081731D01*
X0116847Y0082150D01*
X0115753Y0082150D01*
X0114742Y0081731D01*
X0113969Y0080958D01*
X0113550Y0079947D01*
X0113550Y0079850D01*
X0112653Y0079850D01*
X0111642Y0079431D01*
X0110869Y0078658D01*
X0110450Y0077647D01*
X0110450Y0076553D01*
X0110869Y0075542D01*
X0111642Y0074769D01*
X0112049Y0074600D01*
X0111642Y0074431D01*
X0110869Y0073658D01*
X0110733Y0073331D01*
X0110447Y0073450D01*
X0109353Y0073450D01*
X0108342Y0073031D01*
X0107569Y0072258D01*
X0107150Y0071247D01*
X0107150Y0070153D01*
X0107569Y0069142D01*
X0108342Y0068369D01*
X0109353Y0067950D01*
X0110065Y0067950D01*
X0111300Y0066555D01*
X0111300Y0066496D01*
X0111436Y0066360D01*
X0110642Y0066031D01*
X0110050Y0065439D01*
X0109558Y0065931D01*
X0108547Y0066350D01*
X0107453Y0066350D01*
X0106442Y0065931D01*
X0106435Y0065924D01*
X0106131Y0066658D01*
X0105358Y0067431D01*
X0104347Y0067850D01*
X0103253Y0067850D01*
X0102242Y0067431D01*
X0101469Y0066658D01*
X0101050Y0065647D01*
X0101050Y0064553D01*
X0101469Y0063542D01*
X0102242Y0062769D01*
X0103253Y0062350D01*
X0103400Y0062350D01*
X0103400Y0062296D01*
X0103441Y0062255D01*
X0103444Y0062197D01*
X0103933Y0061763D01*
X0104396Y0061300D01*
X0104454Y0061300D01*
X0105066Y0060755D01*
X0104869Y0060558D01*
X0104450Y0059547D01*
X0104450Y0058453D01*
X0104869Y0057442D01*
X0105642Y0056669D01*
X0106653Y0056250D01*
X0107747Y0056250D01*
X0108454Y0056543D01*
X0108169Y0056258D01*
X0107750Y0055247D01*
X0107750Y0054153D01*
X0108169Y0053142D01*
X0108942Y0052369D01*
X0109953Y0051950D01*
X0111047Y0051950D01*
X0111313Y0052060D01*
X0111569Y0051442D01*
X0112342Y0050669D01*
X0112911Y0050433D01*
X0111867Y0050422D01*
X0111258Y0051031D01*
X0110247Y0051450D01*
X0109153Y0051450D01*
X0108142Y0051031D01*
X0107369Y0050258D01*
X0106950Y0049247D01*
X0106950Y0049207D01*
X0106847Y0049250D01*
X0105753Y0049250D01*
X0104742Y0048831D01*
X0103969Y0048058D01*
X0103550Y0047047D01*
X0103550Y0045953D01*
X0103969Y0044942D01*
X0104742Y0044169D01*
X0105753Y0043750D01*
X0106847Y0043750D01*
X0107042Y0043831D01*
X0106669Y0043458D01*
X0106250Y0042447D01*
X0106250Y0041616D01*
X0105701Y0041748D01*
X0105531Y0042158D01*
X0104758Y0042931D01*
X0103747Y0043350D01*
X0102653Y0043350D01*
X0101642Y0042931D01*
X0100869Y0042158D01*
X0100450Y0041147D01*
X0100450Y0040053D01*
X0100869Y0039042D01*
X0101561Y0038350D01*
X0101553Y0038350D01*
X0100542Y0037931D01*
X0099769Y0037158D01*
X0099530Y0036583D01*
X0099000Y0037059D01*
X0099000Y0042704D01*
X0098004Y0043700D01*
X0096575Y0043700D01*
X0084550Y0055725D01*
X0084550Y0064225D01*
X0083525Y0065250D01*
X0083500Y0065275D01*
X0083500Y0173704D01*
X0082504Y0174700D01*
X0071274Y0185930D01*
X0071726Y0186118D01*
X0072300Y0186692D01*
X0072874Y0186118D01*
X0074124Y0185600D01*
X0075476Y0185600D01*
X0076726Y0186118D01*
X0077300Y0186692D01*
X0077874Y0186118D01*
X0079124Y0185600D01*
X0080476Y0185600D01*
X0081726Y0186118D01*
X0082300Y0186692D01*
X0082874Y0186118D01*
X0084124Y0185600D01*
X0085476Y0185600D01*
X0086726Y0186118D01*
X0087300Y0186692D01*
X0087874Y0186118D01*
X0089124Y0185600D01*
X0090476Y0185600D01*
X0091726Y0186118D01*
X0092300Y0186692D01*
X0092874Y0186118D01*
X0094124Y0185600D01*
X0095476Y0185600D01*
X0096726Y0186118D01*
X0097300Y0186692D01*
X0097874Y0186118D01*
X0099124Y0185600D01*
X0100476Y0185600D01*
X0101726Y0186118D01*
X0102300Y0186692D01*
X0102874Y0186118D01*
X0104124Y0185600D01*
X0105476Y0185600D01*
X0106726Y0186118D01*
X0107300Y0186692D01*
X0107874Y0186118D01*
X0109124Y0185600D01*
X0110476Y0185600D01*
X0111726Y0186118D01*
X0112682Y0187074D01*
X0113200Y0188324D01*
X0113200Y0189676D01*
X0112682Y0190926D01*
X0111726Y0191882D01*
X0110476Y0192400D01*
X0109124Y0192400D01*
X0107874Y0191882D01*
X0107300Y0191308D01*
X0106726Y0191882D01*
X0105476Y0192400D01*
X0104124Y0192400D01*
X0102874Y0191882D01*
X0102300Y0191308D01*
X0101726Y0191882D01*
X0100476Y0192400D01*
X0099124Y0192400D01*
X0097874Y0191882D01*
X0097300Y0191308D01*
X0096726Y0191882D01*
X0095476Y0192400D01*
X0094124Y0192400D01*
X0092874Y0191882D01*
X0092300Y0191308D01*
X0091726Y0191882D01*
X0090476Y0192400D01*
X0089124Y0192400D01*
X0087874Y0191882D01*
X0087300Y0191308D01*
X0086726Y0191882D01*
X0085476Y0192400D01*
X0084124Y0192400D01*
X0082874Y0191882D01*
X0082300Y0191308D01*
X0081726Y0191882D01*
X0080476Y0192400D01*
X0079124Y0192400D01*
X0077874Y0191882D01*
X0077300Y0191308D01*
X0076726Y0191882D01*
X0075476Y0192400D01*
X0074124Y0192400D01*
X0072874Y0191882D01*
X0072300Y0191308D01*
X0071726Y0191882D01*
X0070476Y0192400D01*
X0069124Y0192400D01*
X0067874Y0191882D01*
X0067300Y0191308D01*
X0066726Y0191882D01*
X0065476Y0192400D01*
X0064124Y0192400D01*
X0062874Y0191882D01*
X0062300Y0191308D01*
X0061726Y0191882D01*
X0060476Y0192400D01*
X0059124Y0192400D01*
X0057874Y0191882D01*
X0057300Y0191308D01*
X0056726Y0191882D01*
X0055476Y0192400D01*
X0054124Y0192400D01*
X0052874Y0191882D01*
X0052300Y0191308D01*
X0051726Y0191882D01*
X0050476Y0192400D01*
X0049124Y0192400D01*
X0047874Y0191882D01*
X0047300Y0191308D01*
X0046726Y0191882D01*
X0045476Y0192400D01*
X0044124Y0192400D01*
X0042874Y0191882D01*
X0042300Y0191308D01*
X0041726Y0191882D01*
X0040476Y0192400D01*
X0039124Y0192400D01*
X0037874Y0191882D01*
X0037300Y0191308D01*
X0036726Y0191882D01*
X0035476Y0192400D01*
X0034124Y0192400D01*
X0032874Y0191882D01*
X0032300Y0191308D01*
X0031726Y0191882D01*
X0030567Y0192363D01*
X0032004Y0193800D01*
X0078004Y0193800D01*
X0079000Y0194796D01*
X0079804Y0195600D01*
X0080476Y0195600D01*
X0081726Y0196118D01*
X0082300Y0196692D01*
X0082874Y0196118D01*
X0084124Y0195600D01*
X0085476Y0195600D01*
X0086726Y0196118D01*
X0087300Y0196692D01*
X0087874Y0196118D01*
X0089124Y0195600D01*
X0090476Y0195600D01*
X0091726Y0196118D01*
X0092300Y0196692D01*
X0092874Y0196118D01*
X0094124Y0195600D01*
X0095476Y0195600D01*
X0096726Y0196118D01*
X0097300Y0196692D01*
X0097874Y0196118D01*
X0099124Y0195600D01*
X0100476Y0195600D01*
X0101726Y0196118D01*
X0102300Y0196692D01*
X0102874Y0196118D01*
X0104124Y0195600D01*
X0105476Y0195600D01*
X0106726Y0196118D01*
X0107300Y0196692D01*
X0107874Y0196118D01*
X0109124Y0195600D01*
X0110476Y0195600D01*
X0111726Y0196118D01*
X0112300Y0196692D01*
X0112874Y0196118D01*
X0114124Y0195600D01*
X0115476Y0195600D01*
X0116726Y0196118D01*
X0117300Y0196692D01*
X0117874Y0196118D01*
X0119124Y0195600D01*
X0120476Y0195600D01*
X0121726Y0196118D01*
X0122300Y0196692D01*
X0122874Y0196118D01*
X0124124Y0195600D01*
X0125476Y0195600D01*
X0126726Y0196118D01*
X0127300Y0196692D01*
X0127874Y0196118D01*
X0129124Y0195600D01*
X0130476Y0195600D01*
X0131726Y0196118D01*
X0132300Y0196692D01*
X0132874Y0196118D01*
X0134124Y0195600D01*
X0135476Y0195600D01*
X0136726Y0196118D01*
X0137300Y0196692D01*
X0137874Y0196118D01*
X0138100Y0196024D01*
X0138100Y0193796D01*
X0139096Y0192800D01*
X0194096Y0192800D01*
X0194496Y0192400D01*
X0194124Y0192400D01*
X0192874Y0191882D01*
X0192300Y0191308D01*
X0191726Y0191882D01*
X0190476Y0192400D01*
X0189124Y0192400D01*
X0187874Y0191882D01*
X0187300Y0191308D01*
X0186726Y0191882D01*
X0185476Y0192400D01*
X0184124Y0192400D01*
X0182874Y0191882D01*
X0182300Y0191308D01*
X0181726Y0191882D01*
X0180476Y0192400D01*
X0179124Y0192400D01*
X0177874Y0191882D01*
X0177300Y0191308D01*
X0176726Y0191882D01*
X0175476Y0192400D01*
X0174124Y0192400D01*
X0172874Y0191882D01*
X0172300Y0191308D01*
X0171726Y0191882D01*
X0170476Y0192400D01*
X0169124Y0192400D01*
X0167874Y0191882D01*
X0167300Y0191308D01*
X0166726Y0191882D01*
X0165476Y0192400D01*
X0164124Y0192400D01*
X0162874Y0191882D01*
X0162300Y0191308D01*
X0161726Y0191882D01*
X0160476Y0192400D01*
X0159124Y0192400D01*
X0157874Y0191882D01*
X0157300Y0191308D01*
X0156726Y0191882D01*
X0155476Y0192400D01*
X0154124Y0192400D01*
X0152874Y0191882D01*
X0151918Y0190926D01*
X0151400Y0189676D01*
X0151400Y0188324D01*
X0151918Y0187074D01*
X0152792Y0186200D01*
X0151096Y0186200D01*
X0148096Y0183200D01*
X0131596Y0183200D01*
X0130600Y0182204D01*
X0130600Y0097296D01*
X0140600Y0087296D01*
X0141596Y0086300D01*
X0147596Y0086300D01*
X0158600Y0075296D01*
X0158600Y0057796D01*
X0160182Y0056214D01*
X0159742Y0056031D01*
X0158969Y0055258D01*
X0158555Y0054259D01*
X0157996Y0053700D01*
X0153350Y0053700D01*
X0153350Y0054147D01*
X0152974Y0055056D01*
X0153953Y0054650D01*
X0155047Y0054650D01*
X0156058Y0055069D01*
X0156831Y0055842D01*
X0157250Y0056853D01*
X0157250Y0057947D01*
X0156831Y0058958D01*
X0156058Y0059731D01*
X0155301Y0060045D01*
X0155358Y0060069D01*
X0156131Y0060842D01*
X0156550Y0061853D01*
X0156550Y0062947D01*
X0156131Y0063958D01*
X0155358Y0064731D01*
X0154588Y0065050D01*
X0155358Y0065369D01*
X0156131Y0066142D01*
X0156550Y0067153D01*
X0156550Y0068247D01*
X0156131Y0069258D01*
X0155358Y0070031D01*
X0154650Y0070324D01*
X0154650Y0071347D01*
X0154231Y0072358D01*
X0153553Y0073036D01*
X0153850Y0073753D01*
X0153850Y0074847D01*
X0153431Y0075858D01*
X0152658Y0076631D01*
X0151647Y0077050D01*
X0150553Y0077050D01*
X0149542Y0076631D01*
X0148769Y0075858D01*
X0148702Y0075696D01*
X0147847Y0076050D01*
X0146753Y0076050D01*
X0146661Y0076012D01*
X0146434Y0076558D01*
X0145661Y0077331D01*
X0144650Y0077750D01*
X0143556Y0077750D01*
X0142827Y0077448D01*
X0141095Y0077448D01*
X0141336Y0077829D01*
X0141701Y0078193D01*
X0141701Y0078404D01*
X0142173Y0079150D01*
X0142450Y0079150D01*
X0143461Y0079569D01*
X0144234Y0080342D01*
X0144653Y0081353D01*
X0144653Y0082447D01*
X0144234Y0083458D01*
X0143461Y0084231D01*
X0142450Y0084650D01*
X0141356Y0084650D01*
X0140345Y0084231D01*
X0139572Y0083458D01*
X0139153Y0082447D01*
X0139153Y0081908D01*
X0134402Y0081908D01*
X0133905Y0081410D01*
X0133905Y0080706D01*
X0134050Y0080560D01*
X0133361Y0079871D01*
X0133361Y0077924D01*
X0133962Y0077323D01*
X0133361Y0076722D01*
X0133361Y0074774D01*
X0134131Y0074004D01*
X0133947Y0073821D01*
X0133947Y0072951D01*
X0134299Y0072598D01*
X0133947Y0072246D01*
X0133947Y0071376D01*
X0134299Y0071024D01*
X0133947Y0070671D01*
X0133947Y0069801D01*
X0134131Y0069618D01*
X0133361Y0068848D01*
X0133361Y0025956D01*
X0134181Y0025135D01*
X0137794Y0025135D01*
X0137542Y0025031D01*
X0136769Y0024258D01*
X0136350Y0023247D01*
X0136350Y0022153D01*
X0136769Y0021142D01*
X0137542Y0020369D01*
X0138553Y0019950D01*
X0139446Y0019950D01*
X0141596Y0017800D01*
X0152004Y0017800D01*
X0153000Y0018796D01*
X0157000Y0022796D01*
X0157000Y0023800D01*
X0161004Y0023800D01*
X0162000Y0024796D01*
X0171000Y0033796D01*
X0171000Y0041296D01*
X0176000Y0046296D01*
X0176000Y0055204D01*
X0175004Y0056200D01*
X0169500Y0061704D01*
X0169500Y0079204D01*
X0168504Y0080200D01*
X0152550Y0096154D01*
X0152550Y0096225D01*
X0151525Y0097250D01*
X0145525Y0097250D01*
X0141550Y0101225D01*
X0141550Y0138775D01*
X0155050Y0152275D01*
X0155050Y0158087D01*
X0155189Y0158366D01*
X0155050Y0158784D01*
X0155050Y0159225D01*
X0154830Y0159445D01*
X0154500Y0160434D01*
X0154500Y0173296D01*
X0156504Y0175300D01*
X0199504Y0175300D01*
X0200500Y0176296D01*
X0207700Y0183496D01*
X0207700Y0201021D01*
X0207717Y0201039D01*
X0207700Y0201721D01*
X0207700Y0202404D01*
X0207682Y0202422D01*
X0207682Y0202446D01*
X0207187Y0202917D01*
X0206704Y0203400D01*
X0206679Y0203400D01*
X0198987Y0210717D01*
X0198504Y0211200D01*
X0198479Y0211200D01*
X0198461Y0211217D01*
X0197779Y0211200D01*
X0136596Y0211200D01*
X0135600Y0210204D01*
X0134096Y0208700D01*
X0127096Y0208700D01*
X0126100Y0207704D01*
X0124096Y0205700D01*
X0118596Y0205700D01*
X0117600Y0204704D01*
X0115296Y0202400D01*
X0114124Y0202400D01*
X0112874Y0201882D01*
X0112300Y0201308D01*
X0111726Y0201882D01*
X0110476Y0202400D01*
X0109304Y0202400D01*
X0108500Y0203204D01*
X0108500Y0203204D01*
X0107504Y0204200D01*
X0104004Y0204200D01*
X0102000Y0206204D01*
X0101004Y0207200D01*
X0096504Y0207200D01*
X0093000Y0210704D01*
X0092004Y0211700D01*
X0024596Y0211700D01*
X0018096Y0205200D01*
X0017100Y0204204D01*
X0017100Y0196204D01*
X0015596Y0194700D01*
X0014600Y0193704D01*
X0014600Y0183296D01*
X0022600Y0175296D01*
X0023596Y0174300D01*
X0066096Y0174300D01*
X0071050Y0169346D01*
X0071050Y0060775D01*
X0072050Y0059349D02*
X0050900Y0059349D01*
X0050900Y0057751D02*
X0072050Y0057751D01*
X0072050Y0056152D02*
X0050900Y0056152D01*
X0050900Y0054554D02*
X0072050Y0054554D01*
X0072050Y0052955D02*
X0050900Y0052955D01*
X0050900Y0051357D02*
X0072050Y0051357D01*
X0073567Y0049758D02*
X0050900Y0049758D01*
X0050900Y0048160D02*
X0075165Y0048160D01*
X0076764Y0046561D02*
X0050900Y0046561D01*
X0050900Y0044963D02*
X0078362Y0044963D01*
X0079961Y0043364D02*
X0050900Y0043364D01*
X0050900Y0041766D02*
X0081559Y0041766D01*
X0083158Y0040167D02*
X0050900Y0040167D01*
X0050900Y0038569D02*
X0084756Y0038569D01*
X0086355Y0036970D02*
X0050900Y0036970D01*
X0050900Y0035372D02*
X0086550Y0035372D01*
X0086550Y0033773D02*
X0050900Y0033773D01*
X0050900Y0032175D02*
X0087150Y0032175D01*
X0088749Y0030576D02*
X0050900Y0030576D01*
X0050900Y0028978D02*
X0090347Y0028978D01*
X0090550Y0027379D02*
X0050900Y0027379D01*
X0050900Y0025781D02*
X0090550Y0025781D01*
X0092214Y0024182D02*
X0050900Y0024182D01*
X0050900Y0022584D02*
X0093812Y0022584D01*
X0095411Y0020985D02*
X0050900Y0020985D01*
X0050900Y0019387D02*
X0096765Y0019387D01*
X0099098Y0036970D02*
X0099691Y0036970D01*
X0099000Y0038569D02*
X0101342Y0038569D01*
X0100450Y0040167D02*
X0099000Y0040167D01*
X0099000Y0041766D02*
X0100706Y0041766D01*
X0098340Y0043364D02*
X0106630Y0043364D01*
X0106250Y0041766D02*
X0105694Y0041766D01*
X0103960Y0044963D02*
X0095312Y0044963D01*
X0093714Y0046561D02*
X0103550Y0046561D01*
X0104071Y0048160D02*
X0092115Y0048160D01*
X0090517Y0049758D02*
X0107162Y0049758D01*
X0108928Y0051357D02*
X0088918Y0051357D01*
X0087320Y0052955D02*
X0108356Y0052955D01*
X0107750Y0054554D02*
X0085721Y0054554D01*
X0084550Y0056152D02*
X0108125Y0056152D01*
X0104741Y0057751D02*
X0084550Y0057751D01*
X0084550Y0059349D02*
X0104450Y0059349D01*
X0104850Y0060948D02*
X0084550Y0060948D01*
X0084550Y0062546D02*
X0102779Y0062546D01*
X0101219Y0064145D02*
X0084550Y0064145D01*
X0083500Y0065743D02*
X0101090Y0065743D01*
X0102153Y0067342D02*
X0083500Y0067342D01*
X0083500Y0068940D02*
X0107770Y0068940D01*
X0107150Y0070539D02*
X0083500Y0070539D01*
X0083500Y0072137D02*
X0107519Y0072137D01*
X0110947Y0073736D02*
X0083500Y0073736D01*
X0083500Y0075334D02*
X0111076Y0075334D01*
X0110450Y0076933D02*
X0083500Y0076933D01*
X0083500Y0078532D02*
X0110816Y0078532D01*
X0113626Y0080130D02*
X0083500Y0080130D01*
X0083500Y0081729D02*
X0114739Y0081729D01*
X0117861Y0081729D02*
X0118925Y0081729D01*
X0118974Y0080130D02*
X0118984Y0080130D01*
X0120038Y0083327D02*
X0083500Y0083327D01*
X0083500Y0084926D02*
X0148970Y0084926D01*
X0150569Y0083327D02*
X0144289Y0083327D01*
X0144653Y0081729D02*
X0152167Y0081729D01*
X0153766Y0080130D02*
X0144022Y0080130D01*
X0141781Y0078532D02*
X0155364Y0078532D01*
X0156963Y0076933D02*
X0151929Y0076933D01*
X0150271Y0076933D02*
X0146059Y0076933D01*
X0144292Y0072250D02*
X0142580Y0070100D01*
X0140063Y0070100D01*
X0140063Y0070671D01*
X0139710Y0071024D01*
X0140063Y0071376D01*
X0140063Y0072246D01*
X0139710Y0072598D01*
X0140063Y0072951D01*
X0140063Y0073821D01*
X0139879Y0074004D01*
X0139922Y0074048D01*
X0141521Y0074048D01*
X0141772Y0073442D01*
X0142545Y0072669D01*
X0143556Y0072250D01*
X0144292Y0072250D01*
X0144202Y0072137D02*
X0140063Y0072137D01*
X0140063Y0070539D02*
X0142930Y0070539D01*
X0141650Y0073736D02*
X0140063Y0073736D01*
X0133947Y0073736D02*
X0130255Y0073736D01*
X0130255Y0075334D02*
X0133361Y0075334D01*
X0133572Y0076933D02*
X0130255Y0076933D01*
X0130255Y0078532D02*
X0133361Y0078532D01*
X0133619Y0080130D02*
X0130255Y0080130D01*
X0129973Y0081729D02*
X0134223Y0081729D01*
X0139518Y0083327D02*
X0123162Y0083327D01*
X0130255Y0072137D02*
X0133947Y0072137D01*
X0133947Y0070539D02*
X0130255Y0070539D01*
X0130255Y0068940D02*
X0133453Y0068940D01*
X0133361Y0067342D02*
X0130255Y0067342D01*
X0130255Y0065743D02*
X0133361Y0065743D01*
X0133361Y0064145D02*
X0130255Y0064145D01*
X0130255Y0062546D02*
X0133361Y0062546D01*
X0133361Y0060948D02*
X0130255Y0060948D01*
X0130255Y0059349D02*
X0133361Y0059349D01*
X0133361Y0057751D02*
X0130255Y0057751D01*
X0130255Y0056152D02*
X0133361Y0056152D01*
X0133361Y0054554D02*
X0130255Y0054554D01*
X0130255Y0052955D02*
X0133361Y0052955D01*
X0133361Y0051357D02*
X0130255Y0051357D01*
X0130255Y0049758D02*
X0133361Y0049758D01*
X0133361Y0048160D02*
X0130255Y0048160D01*
X0130255Y0046561D02*
X0133361Y0046561D01*
X0133361Y0044963D02*
X0130255Y0044963D01*
X0130255Y0043364D02*
X0133361Y0043364D01*
X0133361Y0041766D02*
X0130255Y0041766D01*
X0130255Y0040167D02*
X0133361Y0040167D01*
X0133361Y0038569D02*
X0130255Y0038569D01*
X0130255Y0036970D02*
X0133361Y0036970D01*
X0133361Y0035372D02*
X0130255Y0035372D01*
X0130255Y0033773D02*
X0133361Y0033773D01*
X0133361Y0032175D02*
X0130255Y0032175D01*
X0130255Y0030576D02*
X0133361Y0030576D01*
X0133361Y0028978D02*
X0130255Y0028978D01*
X0130255Y0027379D02*
X0133361Y0027379D01*
X0133536Y0025781D02*
X0130080Y0025781D01*
X0124600Y0024182D02*
X0136737Y0024182D01*
X0136350Y0022584D02*
X0123368Y0022584D01*
X0123827Y0020985D02*
X0136926Y0020985D01*
X0137092Y0017788D02*
X0178700Y0017788D01*
X0178700Y0016190D02*
X0138609Y0016190D01*
X0139272Y0014591D02*
X0178700Y0014591D01*
X0178700Y0012993D02*
X0139502Y0012993D01*
X0139435Y0011394D02*
X0178700Y0011394D01*
X0178700Y0009796D02*
X0138773Y0009796D01*
X0137487Y0008197D02*
X0178700Y0008197D01*
X0178700Y0019387D02*
X0153591Y0019387D01*
X0155189Y0020985D02*
X0178700Y0020985D01*
X0178700Y0022584D02*
X0156788Y0022584D01*
X0161386Y0024182D02*
X0178700Y0024182D01*
X0178700Y0025781D02*
X0162985Y0025781D01*
X0164583Y0027379D02*
X0178700Y0027379D01*
X0178700Y0028978D02*
X0166182Y0028978D01*
X0167780Y0030576D02*
X0178700Y0030576D01*
X0178700Y0032175D02*
X0169379Y0032175D01*
X0170977Y0033773D02*
X0178700Y0033773D01*
X0178700Y0035372D02*
X0171000Y0035372D01*
X0171000Y0036970D02*
X0178700Y0036970D01*
X0178700Y0038569D02*
X0171000Y0038569D01*
X0171000Y0040167D02*
X0178700Y0040167D01*
X0178700Y0041766D02*
X0171470Y0041766D01*
X0173068Y0043364D02*
X0178700Y0043364D01*
X0178700Y0044963D02*
X0174667Y0044963D01*
X0176000Y0046561D02*
X0178700Y0046561D01*
X0178700Y0048160D02*
X0176000Y0048160D01*
X0176000Y0049758D02*
X0178700Y0049758D01*
X0178700Y0051357D02*
X0176000Y0051357D01*
X0176000Y0052955D02*
X0178700Y0052955D01*
X0178700Y0054554D02*
X0176000Y0054554D01*
X0175052Y0056152D02*
X0178700Y0056152D01*
X0178700Y0057751D02*
X0173453Y0057751D01*
X0171855Y0059349D02*
X0178700Y0059349D01*
X0178700Y0060948D02*
X0170256Y0060948D01*
X0169500Y0062546D02*
X0178700Y0062546D01*
X0178700Y0064145D02*
X0169500Y0064145D01*
X0169500Y0065743D02*
X0178700Y0065743D01*
X0178700Y0067342D02*
X0169500Y0067342D01*
X0169500Y0068940D02*
X0178700Y0068940D01*
X0178700Y0070539D02*
X0169500Y0070539D01*
X0169500Y0072137D02*
X0178700Y0072137D01*
X0178700Y0073736D02*
X0169500Y0073736D01*
X0169500Y0075334D02*
X0178700Y0075334D01*
X0178700Y0076933D02*
X0169500Y0076933D01*
X0169500Y0078532D02*
X0178700Y0078532D01*
X0178700Y0080130D02*
X0168574Y0080130D01*
X0166976Y0081729D02*
X0178700Y0081729D01*
X0178700Y0083327D02*
X0165377Y0083327D01*
X0163779Y0084926D02*
X0178700Y0084926D01*
X0178700Y0086524D02*
X0162180Y0086524D01*
X0160582Y0088123D02*
X0178700Y0088123D01*
X0178700Y0089721D02*
X0158983Y0089721D01*
X0157385Y0091320D02*
X0178700Y0091320D01*
X0178700Y0092918D02*
X0155786Y0092918D01*
X0154188Y0094517D02*
X0178700Y0094517D01*
X0178700Y0096115D02*
X0152589Y0096115D01*
X0145061Y0097714D02*
X0178700Y0097714D01*
X0178700Y0099312D02*
X0143463Y0099312D01*
X0141864Y0100911D02*
X0178700Y0100911D01*
X0178700Y0102509D02*
X0141550Y0102509D01*
X0141550Y0104108D02*
X0178700Y0104108D01*
X0178700Y0105706D02*
X0141550Y0105706D01*
X0141550Y0107305D02*
X0178700Y0107305D01*
X0178700Y0108903D02*
X0141550Y0108903D01*
X0141550Y0110502D02*
X0178700Y0110502D01*
X0178700Y0112100D02*
X0141550Y0112100D01*
X0141550Y0113699D02*
X0178700Y0113699D01*
X0178700Y0115297D02*
X0141550Y0115297D01*
X0141550Y0116896D02*
X0178700Y0116896D01*
X0178700Y0118494D02*
X0141550Y0118494D01*
X0141550Y0120093D02*
X0178700Y0120093D01*
X0178700Y0121691D02*
X0141550Y0121691D01*
X0141550Y0123290D02*
X0178700Y0123290D01*
X0178700Y0124888D02*
X0141550Y0124888D01*
X0141550Y0126487D02*
X0178700Y0126487D01*
X0178700Y0128085D02*
X0141550Y0128085D01*
X0141550Y0129684D02*
X0178700Y0129684D01*
X0178700Y0131282D02*
X0141550Y0131282D01*
X0141550Y0132881D02*
X0178700Y0132881D01*
X0178700Y0134479D02*
X0141550Y0134479D01*
X0141550Y0136078D02*
X0178700Y0136078D01*
X0178700Y0137676D02*
X0141550Y0137676D01*
X0142050Y0139275D02*
X0178700Y0139275D01*
X0178700Y0140873D02*
X0143648Y0140873D01*
X0145247Y0142472D02*
X0178700Y0142472D01*
X0178700Y0144070D02*
X0146845Y0144070D01*
X0148444Y0145669D02*
X0178700Y0145669D01*
X0178700Y0147268D02*
X0150042Y0147268D01*
X0151641Y0148866D02*
X0178700Y0148866D01*
X0178700Y0150465D02*
X0153239Y0150465D01*
X0154838Y0152063D02*
X0178700Y0152063D01*
X0178700Y0153662D02*
X0155050Y0153662D01*
X0155050Y0155260D02*
X0178700Y0155260D01*
X0178700Y0156859D02*
X0155050Y0156859D01*
X0155159Y0158457D02*
X0178700Y0158457D01*
X0178700Y0160056D02*
X0154626Y0160056D01*
X0154500Y0161654D02*
X0178700Y0161654D01*
X0178963Y0163253D02*
X0154500Y0163253D01*
X0154500Y0164851D02*
X0180583Y0164851D01*
X0200245Y0176041D02*
X0221700Y0176041D01*
X0221700Y0177639D02*
X0201843Y0177639D01*
X0203442Y0179238D02*
X0221700Y0179238D01*
X0221700Y0180836D02*
X0205040Y0180836D01*
X0206639Y0182435D02*
X0221700Y0182435D01*
X0221700Y0184033D02*
X0207700Y0184033D01*
X0207700Y0185632D02*
X0221700Y0185632D01*
X0221700Y0187230D02*
X0207700Y0187230D01*
X0207700Y0188829D02*
X0221700Y0188829D01*
X0221700Y0190427D02*
X0207700Y0190427D01*
X0207700Y0192026D02*
X0221700Y0192026D01*
X0221700Y0193624D02*
X0207700Y0193624D01*
X0207700Y0195223D02*
X0221700Y0195223D01*
X0221700Y0196821D02*
X0207700Y0196821D01*
X0207700Y0198420D02*
X0221700Y0198420D01*
X0221700Y0200018D02*
X0207700Y0200018D01*
X0207703Y0201617D02*
X0221700Y0201617D01*
X0221700Y0203215D02*
X0206889Y0203215D01*
X0205193Y0204814D02*
X0221700Y0204814D01*
X0221700Y0206412D02*
X0203512Y0206412D01*
X0201832Y0208011D02*
X0221700Y0208011D01*
X0221700Y0209609D02*
X0200151Y0209609D01*
X0198471Y0211208D02*
X0221700Y0211208D01*
X0221700Y0212806D02*
X0004900Y0212806D01*
X0004900Y0211208D02*
X0024104Y0211208D01*
X0022505Y0209609D02*
X0004900Y0209609D01*
X0004900Y0208011D02*
X0020907Y0208011D01*
X0019308Y0206412D02*
X0004900Y0206412D01*
X0004900Y0204814D02*
X0017710Y0204814D01*
X0017100Y0203215D02*
X0004900Y0203215D01*
X0004900Y0201617D02*
X0017100Y0201617D01*
X0017100Y0200018D02*
X0004900Y0200018D01*
X0004900Y0198420D02*
X0017100Y0198420D01*
X0017100Y0196821D02*
X0004900Y0196821D01*
X0004900Y0195223D02*
X0016119Y0195223D01*
X0014600Y0193624D02*
X0004900Y0193624D01*
X0004900Y0192026D02*
X0014600Y0192026D01*
X0014600Y0190427D02*
X0004900Y0190427D01*
X0004900Y0188829D02*
X0014600Y0188829D01*
X0014600Y0187230D02*
X0004900Y0187230D01*
X0004900Y0185632D02*
X0014600Y0185632D01*
X0014600Y0184033D02*
X0004900Y0184033D01*
X0004900Y0182435D02*
X0015461Y0182435D01*
X0017060Y0180836D02*
X0004900Y0180836D01*
X0004900Y0179238D02*
X0018658Y0179238D01*
X0020257Y0177639D02*
X0004900Y0177639D01*
X0004900Y0176041D02*
X0021855Y0176041D01*
X0023454Y0174442D02*
X0007021Y0174442D01*
X0009637Y0172844D02*
X0067552Y0172844D01*
X0069151Y0171245D02*
X0012253Y0171245D01*
X0014869Y0169647D02*
X0070749Y0169647D01*
X0071050Y0168048D02*
X0017484Y0168048D01*
X0020100Y0166450D02*
X0071050Y0166450D01*
X0071050Y0164851D02*
X0050333Y0164851D01*
X0050900Y0163253D02*
X0071050Y0163253D01*
X0071050Y0161654D02*
X0050900Y0161654D01*
X0050900Y0160056D02*
X0071050Y0160056D01*
X0071050Y0158457D02*
X0050900Y0158457D01*
X0050900Y0156859D02*
X0071050Y0156859D01*
X0071050Y0155260D02*
X0050900Y0155260D01*
X0050900Y0153662D02*
X0071050Y0153662D01*
X0071050Y0152063D02*
X0050900Y0152063D01*
X0050900Y0150465D02*
X0071050Y0150465D01*
X0071050Y0148866D02*
X0050900Y0148866D01*
X0050900Y0147268D02*
X0071050Y0147268D01*
X0071050Y0145669D02*
X0050900Y0145669D01*
X0050900Y0144070D02*
X0071050Y0144070D01*
X0071050Y0142472D02*
X0050900Y0142472D01*
X0050900Y0140873D02*
X0071050Y0140873D01*
X0071050Y0139275D02*
X0050900Y0139275D01*
X0050900Y0137676D02*
X0071050Y0137676D01*
X0071050Y0136078D02*
X0050900Y0136078D01*
X0050900Y0134479D02*
X0071050Y0134479D01*
X0071050Y0132881D02*
X0050900Y0132881D01*
X0055099Y0131282D02*
X0071050Y0131282D01*
X0071050Y0129684D02*
X0057047Y0129684D01*
X0057945Y0128085D02*
X0071050Y0128085D01*
X0071050Y0126487D02*
X0058399Y0126487D01*
X0058399Y0124888D02*
X0071050Y0124888D01*
X0071050Y0123290D02*
X0057895Y0123290D01*
X0056926Y0121691D02*
X0071050Y0121691D01*
X0071050Y0120093D02*
X0054807Y0120093D01*
X0083500Y0120093D02*
X0130600Y0120093D01*
X0130600Y0121691D02*
X0083500Y0121691D01*
X0083500Y0123290D02*
X0130600Y0123290D01*
X0130600Y0124888D02*
X0083500Y0124888D01*
X0083500Y0126487D02*
X0130600Y0126487D01*
X0130600Y0128085D02*
X0083500Y0128085D01*
X0083500Y0129684D02*
X0130600Y0129684D01*
X0130600Y0131282D02*
X0083500Y0131282D01*
X0083500Y0132881D02*
X0130600Y0132881D01*
X0130600Y0134479D02*
X0083500Y0134479D01*
X0083500Y0136078D02*
X0130600Y0136078D01*
X0130600Y0137676D02*
X0083500Y0137676D01*
X0083500Y0139275D02*
X0130600Y0139275D01*
X0130600Y0140873D02*
X0083500Y0140873D01*
X0083500Y0142472D02*
X0130600Y0142472D01*
X0130600Y0144070D02*
X0083500Y0144070D01*
X0083500Y0145669D02*
X0130600Y0145669D01*
X0130600Y0147268D02*
X0083500Y0147268D01*
X0083500Y0148866D02*
X0130600Y0148866D01*
X0130600Y0150465D02*
X0083500Y0150465D01*
X0083500Y0152063D02*
X0130600Y0152063D01*
X0130600Y0153662D02*
X0083500Y0153662D01*
X0083500Y0155260D02*
X0130600Y0155260D01*
X0130600Y0156859D02*
X0083500Y0156859D01*
X0083500Y0158457D02*
X0130600Y0158457D01*
X0130600Y0160056D02*
X0083500Y0160056D01*
X0083500Y0161654D02*
X0130600Y0161654D01*
X0130600Y0163253D02*
X0083500Y0163253D01*
X0083500Y0164851D02*
X0130600Y0164851D01*
X0130600Y0166450D02*
X0083500Y0166450D01*
X0083500Y0168048D02*
X0130600Y0168048D01*
X0130600Y0169647D02*
X0083500Y0169647D01*
X0083500Y0171245D02*
X0130600Y0171245D01*
X0130600Y0172844D02*
X0083500Y0172844D01*
X0082762Y0174442D02*
X0130600Y0174442D01*
X0130600Y0176041D02*
X0081163Y0176041D01*
X0079565Y0177639D02*
X0130600Y0177639D01*
X0130600Y0179238D02*
X0077966Y0179238D01*
X0076368Y0180836D02*
X0130600Y0180836D01*
X0130831Y0182435D02*
X0074769Y0182435D01*
X0073171Y0184033D02*
X0148929Y0184033D01*
X0150528Y0185632D02*
X0130553Y0185632D01*
X0130476Y0185600D02*
X0131726Y0186118D01*
X0132682Y0187074D01*
X0133200Y0188324D01*
X0133200Y0189676D01*
X0132682Y0190926D01*
X0131726Y0191882D01*
X0130476Y0192400D01*
X0129124Y0192400D01*
X0127874Y0191882D01*
X0126918Y0190926D01*
X0126400Y0189676D01*
X0126400Y0188324D01*
X0126918Y0187074D01*
X0127874Y0186118D01*
X0129124Y0185600D01*
X0130476Y0185600D01*
X0129047Y0185632D02*
X0120553Y0185632D01*
X0120476Y0185600D02*
X0121726Y0186118D01*
X0122682Y0187074D01*
X0123200Y0188324D01*
X0123200Y0189676D01*
X0122682Y0190926D01*
X0121726Y0191882D01*
X0120476Y0192400D01*
X0119124Y0192400D01*
X0117874Y0191882D01*
X0116918Y0190926D01*
X0116400Y0189676D01*
X0116400Y0188324D01*
X0116918Y0187074D01*
X0117874Y0186118D01*
X0119124Y0185600D01*
X0120476Y0185600D01*
X0119047Y0185632D02*
X0110553Y0185632D01*
X0109047Y0185632D02*
X0105553Y0185632D01*
X0104047Y0185632D02*
X0100553Y0185632D01*
X0099047Y0185632D02*
X0095553Y0185632D01*
X0094047Y0185632D02*
X0090553Y0185632D01*
X0089047Y0185632D02*
X0085553Y0185632D01*
X0084047Y0185632D02*
X0080553Y0185632D01*
X0079047Y0185632D02*
X0075553Y0185632D01*
X0074047Y0185632D02*
X0071572Y0185632D01*
X0071380Y0192026D02*
X0073220Y0192026D01*
X0076380Y0192026D02*
X0078220Y0192026D01*
X0081380Y0192026D02*
X0083220Y0192026D01*
X0086380Y0192026D02*
X0088220Y0192026D01*
X0091380Y0192026D02*
X0093220Y0192026D01*
X0096380Y0192026D02*
X0098220Y0192026D01*
X0101380Y0192026D02*
X0103220Y0192026D01*
X0106380Y0192026D02*
X0108220Y0192026D01*
X0111380Y0192026D02*
X0118220Y0192026D01*
X0116711Y0190427D02*
X0112889Y0190427D01*
X0113200Y0188829D02*
X0116400Y0188829D01*
X0116853Y0187230D02*
X0112747Y0187230D01*
X0121380Y0192026D02*
X0128220Y0192026D01*
X0126711Y0190427D02*
X0122889Y0190427D01*
X0123200Y0188829D02*
X0126400Y0188829D01*
X0126853Y0187230D02*
X0122747Y0187230D01*
X0131380Y0192026D02*
X0153220Y0192026D01*
X0151711Y0190427D02*
X0132889Y0190427D01*
X0133200Y0188829D02*
X0151400Y0188829D01*
X0151853Y0187230D02*
X0132747Y0187230D01*
X0138271Y0193624D02*
X0031828Y0193624D01*
X0031380Y0192026D02*
X0033220Y0192026D01*
X0036380Y0192026D02*
X0038220Y0192026D01*
X0041380Y0192026D02*
X0043220Y0192026D01*
X0046380Y0192026D02*
X0048220Y0192026D01*
X0051380Y0192026D02*
X0053220Y0192026D01*
X0056380Y0192026D02*
X0058220Y0192026D01*
X0061380Y0192026D02*
X0063220Y0192026D01*
X0066380Y0192026D02*
X0068220Y0192026D01*
X0079427Y0195223D02*
X0138100Y0195223D01*
X0126407Y0208011D02*
X0095693Y0208011D01*
X0094095Y0209609D02*
X0135005Y0209609D01*
X0124808Y0206412D02*
X0101792Y0206412D01*
X0103390Y0204814D02*
X0117710Y0204814D01*
X0116111Y0203215D02*
X0108489Y0203215D01*
X0111991Y0201617D02*
X0112609Y0201617D01*
X0092496Y0211208D02*
X0198098Y0211208D01*
X0193220Y0192026D02*
X0191380Y0192026D01*
X0188220Y0192026D02*
X0186380Y0192026D01*
X0183220Y0192026D02*
X0181380Y0192026D01*
X0178220Y0192026D02*
X0176380Y0192026D01*
X0173220Y0192026D02*
X0171380Y0192026D01*
X0168220Y0192026D02*
X0166380Y0192026D01*
X0163220Y0192026D02*
X0161380Y0192026D01*
X0158220Y0192026D02*
X0156380Y0192026D01*
X0155646Y0174442D02*
X0218753Y0174442D01*
X0215556Y0172844D02*
X0154500Y0172844D01*
X0154500Y0171245D02*
X0212359Y0171245D01*
X0209162Y0169647D02*
X0154500Y0169647D01*
X0154500Y0168048D02*
X0205965Y0168048D01*
X0202767Y0166450D02*
X0154500Y0166450D01*
X0130600Y0118494D02*
X0083500Y0118494D01*
X0083500Y0116896D02*
X0130600Y0116896D01*
X0130600Y0115297D02*
X0083500Y0115297D01*
X0083500Y0113699D02*
X0130600Y0113699D01*
X0130600Y0112100D02*
X0083500Y0112100D01*
X0083500Y0110502D02*
X0130600Y0110502D01*
X0130600Y0108903D02*
X0083500Y0108903D01*
X0083500Y0107305D02*
X0130600Y0107305D01*
X0130600Y0105706D02*
X0083500Y0105706D01*
X0083500Y0104108D02*
X0130600Y0104108D01*
X0130600Y0102509D02*
X0083500Y0102509D01*
X0083500Y0100911D02*
X0130600Y0100911D01*
X0130600Y0099312D02*
X0083500Y0099312D01*
X0083500Y0097714D02*
X0130600Y0097714D01*
X0131781Y0096115D02*
X0083500Y0096115D01*
X0083500Y0094517D02*
X0133379Y0094517D01*
X0134978Y0092918D02*
X0083500Y0092918D01*
X0083500Y0091320D02*
X0136576Y0091320D01*
X0138175Y0089721D02*
X0083500Y0089721D01*
X0083500Y0088123D02*
X0139773Y0088123D01*
X0141372Y0086524D02*
X0083500Y0086524D01*
X0105447Y0067342D02*
X0110603Y0067342D01*
X0110354Y0065743D02*
X0109746Y0065743D01*
X0110472Y0051357D02*
X0111654Y0051357D01*
X0124050Y0019387D02*
X0140009Y0019387D01*
X0129437Y0017788D02*
X0123077Y0017788D01*
X0119523Y0017788D02*
X0050900Y0017788D01*
X0050900Y0016190D02*
X0127920Y0016190D01*
X0127258Y0014591D02*
X0050900Y0014591D01*
X0050900Y0012993D02*
X0127028Y0012993D01*
X0127094Y0011394D02*
X0050900Y0011394D01*
X0050900Y0009796D02*
X0127756Y0009796D01*
X0129042Y0008197D02*
X0050900Y0008197D01*
X0153181Y0054554D02*
X0158677Y0054554D01*
X0160034Y0056152D02*
X0156960Y0056152D01*
X0157250Y0057751D02*
X0158645Y0057751D01*
X0158600Y0059349D02*
X0156440Y0059349D01*
X0156175Y0060948D02*
X0158600Y0060948D01*
X0158600Y0062546D02*
X0156550Y0062546D01*
X0155944Y0064145D02*
X0158600Y0064145D01*
X0158600Y0065743D02*
X0155733Y0065743D01*
X0156550Y0067342D02*
X0158600Y0067342D01*
X0158600Y0068940D02*
X0156263Y0068940D01*
X0154650Y0070539D02*
X0158600Y0070539D01*
X0158600Y0072137D02*
X0154323Y0072137D01*
X0153843Y0073736D02*
X0158600Y0073736D01*
X0158561Y0075334D02*
X0153648Y0075334D01*
X0221700Y0214405D02*
X0004900Y0214405D01*
X0004900Y0216003D02*
X0221700Y0216003D01*
D14*
X0117300Y0183000D03*
X0066800Y0153500D03*
X0021800Y0169000D03*
X0010300Y0214000D03*
X0066800Y0093000D03*
X0064800Y0025500D03*
D15*
X0092300Y0026500D02*
X0096800Y0022000D01*
X0097800Y0020800D01*
X0099000Y0019600D01*
X0120200Y0019600D01*
X0121300Y0019900D01*
X0121800Y0023700D01*
X0122900Y0024600D01*
X0122900Y0026200D01*
X0123629Y0026929D01*
X0126611Y0026929D01*
X0126611Y0028504D02*
X0123504Y0028504D01*
X0121400Y0026400D01*
X0118300Y0022100D01*
X0117200Y0021000D01*
X0108000Y0021000D01*
X0106500Y0020900D01*
X0099900Y0020900D01*
X0093800Y0027000D01*
X0095300Y0027500D02*
X0100600Y0022200D01*
X0104500Y0022200D01*
X0105800Y0023500D01*
X0106100Y0023200D01*
X0108300Y0023200D01*
X0108800Y0023100D01*
X0115600Y0023100D01*
X0116900Y0024400D01*
X0117900Y0024400D01*
X0123179Y0030079D01*
X0126611Y0030079D01*
X0126611Y0031654D02*
X0122754Y0031454D01*
X0121800Y0030500D01*
X0121200Y0029800D01*
X0118000Y0026400D01*
X0102300Y0026400D01*
X0102100Y0025300D01*
X0102100Y0026100D01*
X0098700Y0026100D01*
X0096800Y0028000D01*
X0096800Y0031000D01*
X0092800Y0035000D01*
X0094300Y0035500D02*
X0098300Y0031500D01*
X0098300Y0030200D01*
X0099900Y0028400D01*
X0118000Y0028400D01*
X0120000Y0030400D01*
X0120000Y0031200D01*
X0122028Y0033228D01*
X0126611Y0033228D01*
X0126608Y0034800D02*
X0126611Y0034803D01*
X0126608Y0034800D02*
X0121900Y0034800D01*
X0119800Y0032700D01*
X0118600Y0032700D01*
X0116200Y0030100D01*
X0116900Y0031000D01*
X0116200Y0030100D02*
X0101900Y0030300D01*
X0101500Y0030300D01*
X0095800Y0036000D01*
X0097300Y0036300D02*
X0101200Y0032800D01*
X0102700Y0032800D01*
X0113200Y0032700D01*
X0116200Y0034000D01*
X0119400Y0034000D01*
X0121778Y0036378D01*
X0126611Y0036378D01*
X0126611Y0037953D02*
X0121653Y0037953D01*
X0118900Y0035400D01*
X0116700Y0035400D01*
X0115700Y0035600D01*
X0102100Y0035600D01*
X0103200Y0040600D02*
X0108200Y0039400D01*
X0120502Y0041102D01*
X0126611Y0041102D01*
X0126611Y0039528D02*
X0121028Y0039528D01*
X0118700Y0038600D01*
X0117600Y0038200D01*
X0118700Y0042400D02*
X0116400Y0042400D01*
X0109000Y0041900D01*
X0106300Y0046500D02*
X0115100Y0046300D01*
X0116300Y0047000D01*
X0118900Y0047200D01*
X0120500Y0045900D01*
X0123400Y0045900D01*
X0123473Y0045827D01*
X0126611Y0045827D01*
X0126609Y0047400D02*
X0123300Y0047400D01*
X0123000Y0047500D01*
X0121000Y0047500D01*
X0119400Y0048800D01*
X0109700Y0048700D01*
X0113900Y0053000D02*
X0115500Y0052000D01*
X0120700Y0052000D01*
X0122401Y0053701D01*
X0126611Y0053701D01*
X0126611Y0055276D02*
X0122076Y0055276D01*
X0120300Y0053500D01*
X0117300Y0053500D01*
X0115300Y0055500D01*
X0111300Y0055500D01*
X0110500Y0054700D01*
X0107800Y0058400D02*
X0107200Y0059000D01*
X0107800Y0058400D02*
X0123100Y0058400D01*
X0123125Y0058425D01*
X0126611Y0058425D01*
X0126611Y0056850D02*
X0120150Y0056850D01*
X0118900Y0056000D01*
X0122700Y0059800D02*
X0123100Y0060000D01*
X0126611Y0060000D01*
X0126611Y0061575D02*
X0122875Y0061575D01*
X0122874Y0061574D01*
X0122774Y0061574D01*
X0122100Y0061100D01*
X0110900Y0061100D01*
X0108000Y0063600D01*
X0108500Y0061200D02*
X0106900Y0061400D01*
X0105100Y0063000D01*
X0105100Y0063800D01*
X0103800Y0065100D01*
X0103900Y0065100D01*
X0108500Y0061200D02*
X0109900Y0059800D01*
X0122700Y0059800D01*
X0121600Y0062400D02*
X0113700Y0062400D01*
X0112200Y0063700D01*
X0113000Y0067200D02*
X0109900Y0070700D01*
X0113000Y0070900D02*
X0113200Y0072100D01*
X0113000Y0070900D02*
X0115500Y0068400D01*
X0122400Y0068400D01*
X0122926Y0067874D01*
X0126611Y0067874D01*
X0126611Y0066299D02*
X0122601Y0066299D01*
X0121700Y0067200D01*
X0113000Y0067200D01*
X0116600Y0071000D02*
X0118000Y0069600D01*
X0122900Y0069600D01*
X0123051Y0069449D01*
X0126611Y0069449D01*
X0126611Y0071024D02*
X0120276Y0071024D01*
X0114800Y0076500D01*
X0113200Y0077100D01*
X0116100Y0077200D02*
X0120700Y0072600D01*
X0126609Y0072600D01*
X0126611Y0072598D01*
X0126611Y0074173D02*
X0123227Y0074173D01*
X0122900Y0074500D01*
X0122900Y0075748D01*
X0121352Y0075748D01*
X0120300Y0076800D01*
X0122900Y0075748D02*
X0126611Y0075748D01*
X0126611Y0077323D02*
X0125477Y0077323D01*
X0126611Y0078897D02*
X0126611Y0078898D01*
X0123902Y0078898D01*
X0121600Y0081000D01*
X0122328Y0080472D01*
X0116300Y0079400D02*
X0116100Y0077200D01*
X0120300Y0064800D02*
X0120624Y0064724D01*
X0126611Y0064724D01*
X0126611Y0063150D02*
X0122750Y0063150D01*
X0121600Y0062400D01*
X0132800Y0069500D02*
X0132800Y0076000D01*
X0134627Y0074173D01*
X0137005Y0074173D01*
X0139627Y0074173D01*
X0141300Y0072500D01*
X0137102Y0072500D01*
X0137005Y0072598D01*
X0140202Y0072598D01*
X0141800Y0071000D01*
X0141800Y0071200D02*
X0139802Y0072598D01*
X0137005Y0072598D01*
X0137005Y0071024D02*
X0141376Y0071024D01*
X0141800Y0071200D01*
X0140049Y0069649D01*
X0137005Y0069449D01*
X0132851Y0069449D01*
X0132800Y0069500D01*
X0137005Y0067874D02*
X0139974Y0067874D01*
X0140500Y0068400D01*
X0143400Y0068400D01*
X0147300Y0073300D01*
X0151100Y0074300D02*
X0147200Y0068200D01*
X0145200Y0068200D01*
X0144000Y0067000D01*
X0140800Y0067000D01*
X0140099Y0066299D01*
X0137005Y0066299D01*
X0137005Y0064724D02*
X0140224Y0064724D01*
X0141300Y0065800D01*
X0144500Y0065800D01*
X0145500Y0066800D01*
X0149500Y0066800D01*
X0151900Y0070800D01*
X0153800Y0067700D02*
X0151500Y0065600D01*
X0146300Y0065600D01*
X0145300Y0064400D01*
X0142000Y0064400D01*
X0140550Y0063150D01*
X0137005Y0063150D01*
X0137005Y0061575D02*
X0142575Y0061575D01*
X0143000Y0062000D01*
X0141400Y0060000D02*
X0142000Y0059600D01*
X0143900Y0059600D01*
X0146400Y0061700D01*
X0147100Y0061700D01*
X0148800Y0062400D01*
X0153800Y0062400D01*
X0149200Y0059900D02*
X0146700Y0059900D01*
X0144600Y0058200D01*
X0140800Y0058200D01*
X0139450Y0056850D01*
X0137005Y0056850D01*
X0137005Y0055276D02*
X0139576Y0055276D01*
X0141300Y0056800D01*
X0145900Y0056800D01*
X0146800Y0057500D01*
X0148900Y0057500D01*
X0150600Y0057400D01*
X0154500Y0057400D01*
X0150600Y0053600D02*
X0145600Y0053600D01*
X0143500Y0052000D01*
X0141500Y0052000D01*
X0141174Y0052126D01*
X0137005Y0052126D01*
X0137006Y0053700D02*
X0137005Y0053701D01*
X0137006Y0053700D02*
X0139700Y0053700D01*
X0140400Y0054400D01*
X0142400Y0054400D01*
X0144700Y0051300D02*
X0152800Y0051300D01*
X0153500Y0052000D01*
X0158700Y0052000D01*
X0159500Y0052800D01*
X0161200Y0052800D01*
X0161300Y0053700D01*
X0160000Y0049900D02*
X0145200Y0049900D01*
X0144500Y0049200D01*
X0140200Y0049200D01*
X0139776Y0048976D01*
X0137005Y0048976D01*
X0137005Y0047402D02*
X0137006Y0047400D01*
X0142000Y0047400D01*
X0142600Y0046800D01*
X0141500Y0044400D02*
X0139873Y0045827D01*
X0137005Y0045827D01*
X0137005Y0044252D02*
X0139548Y0044252D01*
X0140800Y0043000D01*
X0145100Y0043000D01*
X0146200Y0043500D01*
X0149100Y0043500D01*
X0150500Y0044600D01*
X0146800Y0046200D02*
X0143800Y0044400D01*
X0141500Y0044400D01*
X0143298Y0041102D02*
X0137005Y0041102D01*
X0137005Y0039528D02*
X0141472Y0039528D01*
X0143000Y0038000D01*
X0144800Y0038000D01*
X0146800Y0040000D01*
X0152800Y0040000D01*
X0153300Y0040500D01*
X0157300Y0040500D01*
X0157800Y0040000D01*
X0154900Y0038500D02*
X0157600Y0036400D01*
X0154900Y0038500D02*
X0148000Y0038500D01*
X0145600Y0036800D01*
X0142400Y0036800D01*
X0141047Y0037953D01*
X0137005Y0037953D01*
X0137005Y0036378D02*
X0140922Y0036378D01*
X0141900Y0035600D01*
X0146100Y0035600D01*
X0147500Y0036300D01*
X0150400Y0036300D01*
X0152700Y0036100D01*
X0150100Y0033300D02*
X0150300Y0033000D01*
X0157800Y0033000D01*
X0161800Y0037000D01*
X0161800Y0044500D01*
X0166800Y0049500D01*
X0166800Y0052000D01*
X0160300Y0058500D01*
X0160300Y0076000D01*
X0148300Y0088000D01*
X0142300Y0088000D01*
X0132300Y0098000D01*
X0132300Y0181500D01*
X0148800Y0181500D01*
X0151800Y0184500D01*
X0195800Y0184500D01*
X0198300Y0187000D01*
X0198300Y0191000D01*
X0194800Y0194500D01*
X0139800Y0194500D01*
X0139800Y0199000D01*
X0139200Y0203200D02*
X0195900Y0203100D01*
X0200300Y0199000D01*
X0200300Y0187000D01*
X0196300Y0183000D01*
X0152300Y0183000D01*
X0149300Y0180000D01*
X0133800Y0180000D01*
X0133800Y0098500D01*
X0142800Y0089500D01*
X0148800Y0089500D01*
X0161800Y0076500D01*
X0161800Y0059000D01*
X0168300Y0052500D01*
X0168300Y0049000D01*
X0163300Y0044000D01*
X0163300Y0036500D01*
X0158300Y0031500D01*
X0151800Y0031500D01*
X0151300Y0031000D01*
X0145400Y0031000D01*
X0144800Y0031600D01*
X0143500Y0032900D01*
X0140900Y0032900D01*
X0140572Y0033228D01*
X0137005Y0033228D01*
X0137005Y0031654D02*
X0141046Y0031654D01*
X0143700Y0029000D01*
X0147000Y0029000D01*
X0149200Y0026700D01*
X0152500Y0030000D01*
X0158800Y0030000D01*
X0164800Y0036000D01*
X0164800Y0043500D01*
X0169700Y0048500D01*
X0169700Y0053000D01*
X0163300Y0059500D01*
X0163300Y0077000D01*
X0149300Y0091000D01*
X0143300Y0091000D01*
X0135300Y0099000D01*
X0135300Y0178500D01*
X0149800Y0178500D01*
X0152800Y0181500D01*
X0196800Y0181500D01*
X0201600Y0186500D01*
X0201600Y0199500D01*
X0196300Y0205000D01*
X0138800Y0205000D01*
X0136300Y0202500D01*
X0132300Y0202500D01*
X0129800Y0200000D01*
X0129800Y0199000D01*
X0124800Y0199000D02*
X0124800Y0199500D01*
X0129300Y0204000D01*
X0135800Y0204000D01*
X0138300Y0206500D01*
X0196800Y0206500D01*
X0203000Y0200500D01*
X0203000Y0185500D01*
X0197300Y0180000D01*
X0153300Y0180000D01*
X0150300Y0177000D01*
X0136800Y0177000D01*
X0136800Y0099500D01*
X0143800Y0092500D01*
X0149800Y0092500D01*
X0164800Y0077500D01*
X0164800Y0060000D01*
X0170900Y0054000D01*
X0170900Y0047500D01*
X0166300Y0043000D01*
X0166300Y0035500D01*
X0159300Y0028500D01*
X0153300Y0028500D01*
X0152300Y0027500D01*
X0152300Y0025000D01*
X0150800Y0023500D01*
X0147800Y0023500D01*
X0147700Y0023400D01*
X0144400Y0026400D01*
X0140721Y0030079D01*
X0137005Y0030079D01*
X0137005Y0028504D02*
X0140396Y0028504D01*
X0142000Y0026900D01*
X0142000Y0023900D01*
X0143100Y0022800D01*
X0144900Y0021000D01*
X0150800Y0021000D01*
X0153800Y0024000D01*
X0153800Y0027000D01*
X0159800Y0027000D01*
X0167800Y0035000D01*
X0167800Y0042500D01*
X0172300Y0047000D01*
X0172300Y0054500D01*
X0166300Y0060500D01*
X0166300Y0078000D01*
X0150300Y0094000D01*
X0144300Y0094000D01*
X0138300Y0100000D01*
X0138300Y0175500D01*
X0151300Y0175500D01*
X0154300Y0178500D01*
X0198300Y0178500D01*
X0204500Y0184500D01*
X0204500Y0201000D01*
X0197300Y0208000D01*
X0137800Y0208000D01*
X0135300Y0205500D01*
X0128300Y0205500D01*
X0125300Y0202500D01*
X0122800Y0202500D01*
X0119800Y0199500D01*
X0119800Y0199000D01*
X0114800Y0199000D02*
X0114800Y0199500D01*
X0119300Y0204000D01*
X0124800Y0204000D01*
X0127800Y0207000D01*
X0134800Y0207000D01*
X0137300Y0209500D01*
X0197800Y0209500D01*
X0206000Y0201700D01*
X0206000Y0184200D01*
X0198800Y0177000D01*
X0155800Y0177000D01*
X0152800Y0174000D01*
X0152800Y0160000D01*
X0134800Y0199000D02*
X0139200Y0203200D01*
X0109800Y0199500D02*
X0106800Y0202500D01*
X0103300Y0202500D01*
X0100300Y0205500D01*
X0095800Y0205500D01*
X0091300Y0210000D01*
X0025300Y0210000D01*
X0018800Y0203500D01*
X0018800Y0195500D01*
X0016300Y0193000D01*
X0016300Y0184000D01*
X0024300Y0176000D01*
X0066800Y0176000D01*
X0072800Y0170000D01*
X0074300Y0170500D02*
X0067300Y0177500D01*
X0024800Y0177500D01*
X0017800Y0184500D01*
X0017800Y0192500D01*
X0020300Y0195000D01*
X0020300Y0203000D01*
X0025800Y0208500D01*
X0090800Y0208500D01*
X0095300Y0204000D01*
X0099800Y0204000D01*
X0104800Y0199000D01*
X0099800Y0199000D02*
X0099800Y0200500D01*
X0097800Y0202500D01*
X0094300Y0202500D01*
X0089800Y0207000D01*
X0026300Y0207000D01*
X0021800Y0202500D01*
X0021800Y0194500D01*
X0019300Y0192000D01*
X0019300Y0185000D01*
X0025300Y0179000D01*
X0067800Y0179000D01*
X0075800Y0171000D01*
X0075800Y0062500D01*
X0077300Y0063000D02*
X0077300Y0171500D01*
X0068300Y0180500D01*
X0025800Y0180500D01*
X0020800Y0185500D01*
X0020800Y0191500D01*
X0023300Y0194000D01*
X0023300Y0202000D01*
X0026800Y0205500D01*
X0083800Y0205500D01*
X0084800Y0204500D01*
X0087800Y0204500D01*
X0089300Y0203000D01*
X0091300Y0203000D01*
X0094800Y0199500D01*
X0094800Y0199000D01*
X0089800Y0199000D02*
X0089800Y0200000D01*
X0086800Y0203000D01*
X0084300Y0203000D01*
X0083300Y0204000D01*
X0027300Y0204000D01*
X0024800Y0201500D01*
X0024800Y0193500D01*
X0022300Y0191000D01*
X0022300Y0186000D01*
X0026300Y0182000D01*
X0068800Y0182000D01*
X0078800Y0172000D01*
X0078800Y0063500D01*
X0080300Y0064000D02*
X0080300Y0172500D01*
X0069300Y0183500D01*
X0026800Y0183500D01*
X0023800Y0186500D01*
X0023800Y0190500D01*
X0026300Y0193000D01*
X0026300Y0201000D01*
X0027800Y0202500D01*
X0081800Y0202500D01*
X0084800Y0199500D01*
X0084800Y0199000D01*
X0079800Y0199000D02*
X0079800Y0198000D01*
X0077300Y0195500D01*
X0031300Y0195500D01*
X0025800Y0190000D01*
X0025800Y0187000D01*
X0027800Y0185000D01*
X0069800Y0185000D01*
X0081800Y0173000D01*
X0081800Y0064500D01*
X0095800Y0042000D02*
X0097300Y0042000D01*
X0097300Y0036300D01*
X0117500Y0044800D02*
X0118552Y0044252D01*
X0126611Y0044252D01*
X0126611Y0042677D02*
X0120777Y0042677D01*
X0118700Y0042400D01*
X0122824Y0048976D02*
X0122300Y0050300D01*
X0122824Y0048976D02*
X0126611Y0048976D01*
X0126611Y0047402D02*
X0126609Y0047400D01*
X0137005Y0050551D02*
X0139551Y0050551D01*
X0139600Y0050600D01*
X0144000Y0050600D01*
X0144700Y0051300D01*
X0141400Y0060000D02*
X0137005Y0060000D01*
X0144103Y0075000D02*
X0143355Y0075748D01*
X0137005Y0075748D01*
X0137005Y0077323D02*
X0141523Y0077323D01*
X0142900Y0078300D01*
X0140001Y0078898D02*
X0141903Y0081900D01*
X0140001Y0078898D02*
X0137005Y0078898D01*
X0137005Y0080472D02*
X0133828Y0080472D01*
X0133300Y0081000D01*
X0133300Y0085500D01*
X0128300Y0090500D01*
X0132800Y0086000D01*
X0132800Y0076000D01*
X0150800Y0095500D02*
X0167800Y0078500D01*
X0167800Y0061000D01*
X0174300Y0054500D01*
X0174300Y0047000D01*
X0169300Y0042000D01*
X0169300Y0034500D01*
X0160300Y0025500D01*
X0155300Y0025500D01*
X0155300Y0023500D01*
X0151300Y0019500D01*
X0142300Y0019500D01*
X0139100Y0022700D01*
X0140700Y0024300D01*
X0140700Y0026400D01*
X0140171Y0026929D01*
X0137005Y0026929D01*
X0137005Y0034803D02*
X0140797Y0034803D01*
X0141400Y0034200D01*
X0148600Y0034200D01*
X0150100Y0033300D01*
X0144000Y0040600D02*
X0143298Y0041102D01*
X0109800Y0199000D02*
X0109800Y0199500D01*
D16*
X0122328Y0080472D02*
X0126611Y0080472D01*
X0126611Y0078898D01*
X0125477Y0077323D02*
X0123902Y0078898D01*
D17*
X0144800Y0095500D02*
X0150800Y0095500D01*
X0144800Y0095500D02*
X0139800Y0100500D01*
X0139800Y0139500D01*
X0153300Y0153000D01*
X0153300Y0158500D01*
X0152800Y0160000D01*
X0074300Y0170500D02*
X0074300Y0062000D01*
X0075300Y0061000D01*
X0075300Y0052500D01*
X0089800Y0038000D01*
X0089800Y0034000D01*
X0093800Y0030000D01*
X0093800Y0027000D01*
X0092300Y0026500D02*
X0092300Y0029500D01*
X0088300Y0033500D01*
X0088300Y0037500D01*
X0073800Y0052000D01*
X0073800Y0060500D01*
X0072800Y0061500D01*
X0072800Y0170000D01*
X0081800Y0064500D02*
X0082800Y0063500D01*
X0082800Y0055000D01*
X0095800Y0042000D01*
X0095800Y0040500D02*
X0095800Y0036000D01*
X0094300Y0035500D02*
X0094300Y0039500D01*
X0079800Y0054000D01*
X0079800Y0062500D01*
X0078800Y0063500D01*
X0077300Y0063000D02*
X0078300Y0062000D01*
X0078300Y0053500D01*
X0092800Y0039000D01*
X0092800Y0035000D01*
X0091300Y0034500D02*
X0095300Y0030500D01*
X0095300Y0027500D01*
X0091300Y0034500D02*
X0091300Y0038500D01*
X0076800Y0053000D01*
X0076800Y0061500D01*
X0075800Y0062500D01*
X0080300Y0064000D02*
X0081300Y0063000D01*
X0081300Y0054500D01*
X0095300Y0040500D01*
X0095800Y0040500D01*
M02*
