G75*
%MOIN*%
%OFA0B0*%
%FSLAX25Y25*%
%IPPOS*%
%LPD*%
%AMOC8*
5,1,8,0,0,1.08239X$1,22.5*
%
%ADD10C,0.11824*%
%ADD11R,0.05288X0.01587*%
%ADD12C,0.08674*%
%ADD13C,0.04800*%
D10*
X0145800Y0156000D03*
D11*
X0126611Y0026929D03*
X0126611Y0028504D03*
X0126611Y0030079D03*
X0126611Y0031654D03*
X0126611Y0033228D03*
X0126611Y0034803D03*
X0126611Y0036378D03*
X0126611Y0037953D03*
X0126611Y0039528D03*
X0126611Y0041102D03*
X0126611Y0042677D03*
X0126611Y0044252D03*
X0126611Y0045827D03*
X0126611Y0047402D03*
X0126611Y0048976D03*
X0126611Y0050551D03*
X0126611Y0052126D03*
X0126611Y0053701D03*
X0126611Y0055276D03*
X0126611Y0056850D03*
X0126611Y0058425D03*
X0126611Y0060000D03*
X0126611Y0061575D03*
X0126611Y0063150D03*
X0126611Y0064724D03*
X0126611Y0066299D03*
X0126611Y0067874D03*
X0126611Y0069449D03*
X0126611Y0071024D03*
X0126611Y0072598D03*
X0126611Y0074173D03*
X0126611Y0075748D03*
X0126611Y0077323D03*
X0126611Y0078898D03*
X0126611Y0080472D03*
X0137005Y0080472D03*
X0137005Y0078898D03*
X0137005Y0077323D03*
X0137005Y0075748D03*
X0137005Y0074173D03*
X0137005Y0072598D03*
X0137005Y0071024D03*
X0137005Y0069449D03*
X0137005Y0067874D03*
X0137005Y0066299D03*
X0137005Y0064724D03*
X0137005Y0063150D03*
X0137005Y0061575D03*
X0137005Y0060000D03*
X0137005Y0058425D03*
X0137005Y0056850D03*
X0137005Y0055276D03*
X0137005Y0053701D03*
X0137005Y0052126D03*
X0137005Y0050551D03*
X0137005Y0048976D03*
X0137005Y0047402D03*
X0137005Y0045827D03*
X0137005Y0044252D03*
X0137005Y0042677D03*
X0137005Y0041102D03*
X0137005Y0039528D03*
X0137005Y0037953D03*
X0137005Y0036378D03*
X0137005Y0034803D03*
X0137005Y0033228D03*
X0137005Y0031654D03*
X0137005Y0030079D03*
X0137005Y0028504D03*
X0137005Y0026929D03*
D12*
X0133265Y0012795D03*
X0052162Y0125748D03*
D13*
X0049800Y0189000D03*
X0044800Y0189000D03*
X0039800Y0189000D03*
X0034800Y0189000D03*
X0029800Y0189000D03*
X0029800Y0199000D03*
X0034800Y0199000D03*
X0039800Y0199000D03*
X0044800Y0199000D03*
X0049800Y0199000D03*
X0054800Y0199000D03*
X0059800Y0199000D03*
X0064800Y0199000D03*
X0069800Y0199000D03*
X0074800Y0199000D03*
X0079800Y0199000D03*
X0084800Y0199000D03*
X0089800Y0199000D03*
X0094800Y0199000D03*
X0099800Y0199000D03*
X0104800Y0199000D03*
X0109800Y0199000D03*
X0114800Y0199000D03*
X0119800Y0199000D03*
X0124800Y0199000D03*
X0129800Y0199000D03*
X0134800Y0199000D03*
X0139800Y0199000D03*
X0144800Y0199000D03*
X0149800Y0199000D03*
X0154800Y0199000D03*
X0159800Y0199000D03*
X0164800Y0199000D03*
X0169800Y0199000D03*
X0174800Y0199000D03*
X0179800Y0199000D03*
X0184800Y0199000D03*
X0189800Y0199000D03*
X0194800Y0199000D03*
X0194800Y0189000D03*
X0189800Y0189000D03*
X0184800Y0189000D03*
X0179800Y0189000D03*
X0174800Y0189000D03*
X0169800Y0189000D03*
X0164800Y0189000D03*
X0159800Y0189000D03*
X0154800Y0189000D03*
X0149800Y0189000D03*
X0144800Y0189000D03*
X0139800Y0189000D03*
X0134800Y0189000D03*
X0129800Y0189000D03*
X0124800Y0189000D03*
X0119800Y0189000D03*
X0114800Y0189000D03*
X0109800Y0189000D03*
X0104800Y0189000D03*
X0099800Y0189000D03*
X0094800Y0189000D03*
X0089800Y0189000D03*
X0084800Y0189000D03*
X0079800Y0189000D03*
X0074800Y0189000D03*
X0069800Y0189000D03*
X0064800Y0189000D03*
X0059800Y0189000D03*
X0054800Y0189000D03*
M02*
