G75*
%MOIN*%
%OFA0B0*%
%FSLAX25Y25*%
%IPPOS*%
%LPD*%
%AMOC8*
5,1,8,0,0,1.08239X$1,22.5*
%
%ADD10C,0.01600*%
%ADD11C,0.00000*%
%ADD12C,0.00100*%
%ADD13C,0.01200*%
%ADD14C,0.00800*%
%ADD15C,0.00500*%
%ADD16C,0.00400*%
D10*
X0047800Y0005000D02*
X0047800Y0163000D01*
X0019800Y0163000D01*
X0001800Y0174000D01*
X0001800Y0220000D01*
X0224800Y0220000D01*
X0224800Y0174000D01*
X0200800Y0162000D01*
X0181800Y0162000D01*
X0181800Y0005000D01*
X0047800Y0005000D01*
D11*
X0129328Y0012795D02*
X0129330Y0012920D01*
X0129336Y0013045D01*
X0129346Y0013169D01*
X0129360Y0013293D01*
X0129377Y0013417D01*
X0129399Y0013540D01*
X0129425Y0013662D01*
X0129454Y0013784D01*
X0129487Y0013904D01*
X0129525Y0014023D01*
X0129565Y0014142D01*
X0129610Y0014258D01*
X0129658Y0014373D01*
X0129710Y0014487D01*
X0129766Y0014599D01*
X0129825Y0014709D01*
X0129887Y0014817D01*
X0129953Y0014924D01*
X0130022Y0015028D01*
X0130095Y0015129D01*
X0130170Y0015229D01*
X0130249Y0015326D01*
X0130331Y0015420D01*
X0130416Y0015512D01*
X0130503Y0015601D01*
X0130594Y0015687D01*
X0130687Y0015770D01*
X0130783Y0015851D01*
X0130881Y0015928D01*
X0130981Y0016002D01*
X0131084Y0016073D01*
X0131189Y0016140D01*
X0131297Y0016205D01*
X0131406Y0016265D01*
X0131517Y0016323D01*
X0131630Y0016376D01*
X0131744Y0016426D01*
X0131860Y0016473D01*
X0131977Y0016515D01*
X0132096Y0016554D01*
X0132216Y0016590D01*
X0132337Y0016621D01*
X0132459Y0016649D01*
X0132581Y0016672D01*
X0132705Y0016692D01*
X0132829Y0016708D01*
X0132953Y0016720D01*
X0133078Y0016728D01*
X0133203Y0016732D01*
X0133327Y0016732D01*
X0133452Y0016728D01*
X0133577Y0016720D01*
X0133701Y0016708D01*
X0133825Y0016692D01*
X0133949Y0016672D01*
X0134071Y0016649D01*
X0134193Y0016621D01*
X0134314Y0016590D01*
X0134434Y0016554D01*
X0134553Y0016515D01*
X0134670Y0016473D01*
X0134786Y0016426D01*
X0134900Y0016376D01*
X0135013Y0016323D01*
X0135124Y0016265D01*
X0135234Y0016205D01*
X0135341Y0016140D01*
X0135446Y0016073D01*
X0135549Y0016002D01*
X0135649Y0015928D01*
X0135747Y0015851D01*
X0135843Y0015770D01*
X0135936Y0015687D01*
X0136027Y0015601D01*
X0136114Y0015512D01*
X0136199Y0015420D01*
X0136281Y0015326D01*
X0136360Y0015229D01*
X0136435Y0015129D01*
X0136508Y0015028D01*
X0136577Y0014924D01*
X0136643Y0014817D01*
X0136705Y0014709D01*
X0136764Y0014599D01*
X0136820Y0014487D01*
X0136872Y0014373D01*
X0136920Y0014258D01*
X0136965Y0014142D01*
X0137005Y0014023D01*
X0137043Y0013904D01*
X0137076Y0013784D01*
X0137105Y0013662D01*
X0137131Y0013540D01*
X0137153Y0013417D01*
X0137170Y0013293D01*
X0137184Y0013169D01*
X0137194Y0013045D01*
X0137200Y0012920D01*
X0137202Y0012795D01*
X0137200Y0012670D01*
X0137194Y0012545D01*
X0137184Y0012421D01*
X0137170Y0012297D01*
X0137153Y0012173D01*
X0137131Y0012050D01*
X0137105Y0011928D01*
X0137076Y0011806D01*
X0137043Y0011686D01*
X0137005Y0011567D01*
X0136965Y0011448D01*
X0136920Y0011332D01*
X0136872Y0011217D01*
X0136820Y0011103D01*
X0136764Y0010991D01*
X0136705Y0010881D01*
X0136643Y0010773D01*
X0136577Y0010666D01*
X0136508Y0010562D01*
X0136435Y0010461D01*
X0136360Y0010361D01*
X0136281Y0010264D01*
X0136199Y0010170D01*
X0136114Y0010078D01*
X0136027Y0009989D01*
X0135936Y0009903D01*
X0135843Y0009820D01*
X0135747Y0009739D01*
X0135649Y0009662D01*
X0135549Y0009588D01*
X0135446Y0009517D01*
X0135341Y0009450D01*
X0135233Y0009385D01*
X0135124Y0009325D01*
X0135013Y0009267D01*
X0134900Y0009214D01*
X0134786Y0009164D01*
X0134670Y0009117D01*
X0134553Y0009075D01*
X0134434Y0009036D01*
X0134314Y0009000D01*
X0134193Y0008969D01*
X0134071Y0008941D01*
X0133949Y0008918D01*
X0133825Y0008898D01*
X0133701Y0008882D01*
X0133577Y0008870D01*
X0133452Y0008862D01*
X0133327Y0008858D01*
X0133203Y0008858D01*
X0133078Y0008862D01*
X0132953Y0008870D01*
X0132829Y0008882D01*
X0132705Y0008898D01*
X0132581Y0008918D01*
X0132459Y0008941D01*
X0132337Y0008969D01*
X0132216Y0009000D01*
X0132096Y0009036D01*
X0131977Y0009075D01*
X0131860Y0009117D01*
X0131744Y0009164D01*
X0131630Y0009214D01*
X0131517Y0009267D01*
X0131406Y0009325D01*
X0131296Y0009385D01*
X0131189Y0009450D01*
X0131084Y0009517D01*
X0130981Y0009588D01*
X0130881Y0009662D01*
X0130783Y0009739D01*
X0130687Y0009820D01*
X0130594Y0009903D01*
X0130503Y0009989D01*
X0130416Y0010078D01*
X0130331Y0010170D01*
X0130249Y0010264D01*
X0130170Y0010361D01*
X0130095Y0010461D01*
X0130022Y0010562D01*
X0129953Y0010666D01*
X0129887Y0010773D01*
X0129825Y0010881D01*
X0129766Y0010991D01*
X0129710Y0011103D01*
X0129658Y0011217D01*
X0129610Y0011332D01*
X0129565Y0011448D01*
X0129525Y0011567D01*
X0129487Y0011686D01*
X0129454Y0011806D01*
X0129425Y0011928D01*
X0129399Y0012050D01*
X0129377Y0012173D01*
X0129360Y0012297D01*
X0129346Y0012421D01*
X0129336Y0012545D01*
X0129330Y0012670D01*
X0129328Y0012795D01*
X0048225Y0125748D02*
X0048227Y0125873D01*
X0048233Y0125998D01*
X0048243Y0126122D01*
X0048257Y0126246D01*
X0048274Y0126370D01*
X0048296Y0126493D01*
X0048322Y0126615D01*
X0048351Y0126737D01*
X0048384Y0126857D01*
X0048422Y0126976D01*
X0048462Y0127095D01*
X0048507Y0127211D01*
X0048555Y0127326D01*
X0048607Y0127440D01*
X0048663Y0127552D01*
X0048722Y0127662D01*
X0048784Y0127770D01*
X0048850Y0127877D01*
X0048919Y0127981D01*
X0048992Y0128082D01*
X0049067Y0128182D01*
X0049146Y0128279D01*
X0049228Y0128373D01*
X0049313Y0128465D01*
X0049400Y0128554D01*
X0049491Y0128640D01*
X0049584Y0128723D01*
X0049680Y0128804D01*
X0049778Y0128881D01*
X0049878Y0128955D01*
X0049981Y0129026D01*
X0050086Y0129093D01*
X0050194Y0129158D01*
X0050303Y0129218D01*
X0050414Y0129276D01*
X0050527Y0129329D01*
X0050641Y0129379D01*
X0050757Y0129426D01*
X0050874Y0129468D01*
X0050993Y0129507D01*
X0051113Y0129543D01*
X0051234Y0129574D01*
X0051356Y0129602D01*
X0051478Y0129625D01*
X0051602Y0129645D01*
X0051726Y0129661D01*
X0051850Y0129673D01*
X0051975Y0129681D01*
X0052100Y0129685D01*
X0052224Y0129685D01*
X0052349Y0129681D01*
X0052474Y0129673D01*
X0052598Y0129661D01*
X0052722Y0129645D01*
X0052846Y0129625D01*
X0052968Y0129602D01*
X0053090Y0129574D01*
X0053211Y0129543D01*
X0053331Y0129507D01*
X0053450Y0129468D01*
X0053567Y0129426D01*
X0053683Y0129379D01*
X0053797Y0129329D01*
X0053910Y0129276D01*
X0054021Y0129218D01*
X0054131Y0129158D01*
X0054238Y0129093D01*
X0054343Y0129026D01*
X0054446Y0128955D01*
X0054546Y0128881D01*
X0054644Y0128804D01*
X0054740Y0128723D01*
X0054833Y0128640D01*
X0054924Y0128554D01*
X0055011Y0128465D01*
X0055096Y0128373D01*
X0055178Y0128279D01*
X0055257Y0128182D01*
X0055332Y0128082D01*
X0055405Y0127981D01*
X0055474Y0127877D01*
X0055540Y0127770D01*
X0055602Y0127662D01*
X0055661Y0127552D01*
X0055717Y0127440D01*
X0055769Y0127326D01*
X0055817Y0127211D01*
X0055862Y0127095D01*
X0055902Y0126976D01*
X0055940Y0126857D01*
X0055973Y0126737D01*
X0056002Y0126615D01*
X0056028Y0126493D01*
X0056050Y0126370D01*
X0056067Y0126246D01*
X0056081Y0126122D01*
X0056091Y0125998D01*
X0056097Y0125873D01*
X0056099Y0125748D01*
X0056097Y0125623D01*
X0056091Y0125498D01*
X0056081Y0125374D01*
X0056067Y0125250D01*
X0056050Y0125126D01*
X0056028Y0125003D01*
X0056002Y0124881D01*
X0055973Y0124759D01*
X0055940Y0124639D01*
X0055902Y0124520D01*
X0055862Y0124401D01*
X0055817Y0124285D01*
X0055769Y0124170D01*
X0055717Y0124056D01*
X0055661Y0123944D01*
X0055602Y0123834D01*
X0055540Y0123726D01*
X0055474Y0123619D01*
X0055405Y0123515D01*
X0055332Y0123414D01*
X0055257Y0123314D01*
X0055178Y0123217D01*
X0055096Y0123123D01*
X0055011Y0123031D01*
X0054924Y0122942D01*
X0054833Y0122856D01*
X0054740Y0122773D01*
X0054644Y0122692D01*
X0054546Y0122615D01*
X0054446Y0122541D01*
X0054343Y0122470D01*
X0054238Y0122403D01*
X0054130Y0122338D01*
X0054021Y0122278D01*
X0053910Y0122220D01*
X0053797Y0122167D01*
X0053683Y0122117D01*
X0053567Y0122070D01*
X0053450Y0122028D01*
X0053331Y0121989D01*
X0053211Y0121953D01*
X0053090Y0121922D01*
X0052968Y0121894D01*
X0052846Y0121871D01*
X0052722Y0121851D01*
X0052598Y0121835D01*
X0052474Y0121823D01*
X0052349Y0121815D01*
X0052224Y0121811D01*
X0052100Y0121811D01*
X0051975Y0121815D01*
X0051850Y0121823D01*
X0051726Y0121835D01*
X0051602Y0121851D01*
X0051478Y0121871D01*
X0051356Y0121894D01*
X0051234Y0121922D01*
X0051113Y0121953D01*
X0050993Y0121989D01*
X0050874Y0122028D01*
X0050757Y0122070D01*
X0050641Y0122117D01*
X0050527Y0122167D01*
X0050414Y0122220D01*
X0050303Y0122278D01*
X0050193Y0122338D01*
X0050086Y0122403D01*
X0049981Y0122470D01*
X0049878Y0122541D01*
X0049778Y0122615D01*
X0049680Y0122692D01*
X0049584Y0122773D01*
X0049491Y0122856D01*
X0049400Y0122942D01*
X0049313Y0123031D01*
X0049228Y0123123D01*
X0049146Y0123217D01*
X0049067Y0123314D01*
X0048992Y0123414D01*
X0048919Y0123515D01*
X0048850Y0123619D01*
X0048784Y0123726D01*
X0048722Y0123834D01*
X0048663Y0123944D01*
X0048607Y0124056D01*
X0048555Y0124170D01*
X0048507Y0124285D01*
X0048462Y0124401D01*
X0048422Y0124520D01*
X0048384Y0124639D01*
X0048351Y0124759D01*
X0048322Y0124881D01*
X0048296Y0125003D01*
X0048274Y0125126D01*
X0048257Y0125250D01*
X0048243Y0125374D01*
X0048233Y0125498D01*
X0048227Y0125623D01*
X0048225Y0125748D01*
X0140288Y0156000D02*
X0140290Y0156148D01*
X0140296Y0156296D01*
X0140306Y0156444D01*
X0140320Y0156591D01*
X0140338Y0156738D01*
X0140359Y0156884D01*
X0140385Y0157030D01*
X0140415Y0157175D01*
X0140448Y0157319D01*
X0140486Y0157462D01*
X0140527Y0157604D01*
X0140572Y0157745D01*
X0140620Y0157885D01*
X0140673Y0158024D01*
X0140729Y0158161D01*
X0140789Y0158296D01*
X0140852Y0158430D01*
X0140919Y0158562D01*
X0140990Y0158692D01*
X0141064Y0158820D01*
X0141141Y0158946D01*
X0141222Y0159070D01*
X0141306Y0159192D01*
X0141393Y0159311D01*
X0141484Y0159428D01*
X0141578Y0159543D01*
X0141674Y0159655D01*
X0141774Y0159765D01*
X0141876Y0159871D01*
X0141982Y0159975D01*
X0142090Y0160076D01*
X0142201Y0160174D01*
X0142314Y0160270D01*
X0142430Y0160362D01*
X0142548Y0160451D01*
X0142669Y0160536D01*
X0142792Y0160619D01*
X0142917Y0160698D01*
X0143044Y0160774D01*
X0143173Y0160846D01*
X0143304Y0160915D01*
X0143437Y0160980D01*
X0143572Y0161041D01*
X0143708Y0161099D01*
X0143845Y0161154D01*
X0143984Y0161204D01*
X0144125Y0161251D01*
X0144266Y0161294D01*
X0144409Y0161334D01*
X0144553Y0161369D01*
X0144697Y0161401D01*
X0144843Y0161428D01*
X0144989Y0161452D01*
X0145136Y0161472D01*
X0145283Y0161488D01*
X0145430Y0161500D01*
X0145578Y0161508D01*
X0145726Y0161512D01*
X0145874Y0161512D01*
X0146022Y0161508D01*
X0146170Y0161500D01*
X0146317Y0161488D01*
X0146464Y0161472D01*
X0146611Y0161452D01*
X0146757Y0161428D01*
X0146903Y0161401D01*
X0147047Y0161369D01*
X0147191Y0161334D01*
X0147334Y0161294D01*
X0147475Y0161251D01*
X0147616Y0161204D01*
X0147755Y0161154D01*
X0147892Y0161099D01*
X0148028Y0161041D01*
X0148163Y0160980D01*
X0148296Y0160915D01*
X0148427Y0160846D01*
X0148556Y0160774D01*
X0148683Y0160698D01*
X0148808Y0160619D01*
X0148931Y0160536D01*
X0149052Y0160451D01*
X0149170Y0160362D01*
X0149286Y0160270D01*
X0149399Y0160174D01*
X0149510Y0160076D01*
X0149618Y0159975D01*
X0149724Y0159871D01*
X0149826Y0159765D01*
X0149926Y0159655D01*
X0150022Y0159543D01*
X0150116Y0159428D01*
X0150207Y0159311D01*
X0150294Y0159192D01*
X0150378Y0159070D01*
X0150459Y0158946D01*
X0150536Y0158820D01*
X0150610Y0158692D01*
X0150681Y0158562D01*
X0150748Y0158430D01*
X0150811Y0158296D01*
X0150871Y0158161D01*
X0150927Y0158024D01*
X0150980Y0157885D01*
X0151028Y0157745D01*
X0151073Y0157604D01*
X0151114Y0157462D01*
X0151152Y0157319D01*
X0151185Y0157175D01*
X0151215Y0157030D01*
X0151241Y0156884D01*
X0151262Y0156738D01*
X0151280Y0156591D01*
X0151294Y0156444D01*
X0151304Y0156296D01*
X0151310Y0156148D01*
X0151312Y0156000D01*
X0151310Y0155852D01*
X0151304Y0155704D01*
X0151294Y0155556D01*
X0151280Y0155409D01*
X0151262Y0155262D01*
X0151241Y0155116D01*
X0151215Y0154970D01*
X0151185Y0154825D01*
X0151152Y0154681D01*
X0151114Y0154538D01*
X0151073Y0154396D01*
X0151028Y0154255D01*
X0150980Y0154115D01*
X0150927Y0153976D01*
X0150871Y0153839D01*
X0150811Y0153704D01*
X0150748Y0153570D01*
X0150681Y0153438D01*
X0150610Y0153308D01*
X0150536Y0153180D01*
X0150459Y0153054D01*
X0150378Y0152930D01*
X0150294Y0152808D01*
X0150207Y0152689D01*
X0150116Y0152572D01*
X0150022Y0152457D01*
X0149926Y0152345D01*
X0149826Y0152235D01*
X0149724Y0152129D01*
X0149618Y0152025D01*
X0149510Y0151924D01*
X0149399Y0151826D01*
X0149286Y0151730D01*
X0149170Y0151638D01*
X0149052Y0151549D01*
X0148931Y0151464D01*
X0148808Y0151381D01*
X0148683Y0151302D01*
X0148556Y0151226D01*
X0148427Y0151154D01*
X0148296Y0151085D01*
X0148163Y0151020D01*
X0148028Y0150959D01*
X0147892Y0150901D01*
X0147755Y0150846D01*
X0147616Y0150796D01*
X0147475Y0150749D01*
X0147334Y0150706D01*
X0147191Y0150666D01*
X0147047Y0150631D01*
X0146903Y0150599D01*
X0146757Y0150572D01*
X0146611Y0150548D01*
X0146464Y0150528D01*
X0146317Y0150512D01*
X0146170Y0150500D01*
X0146022Y0150492D01*
X0145874Y0150488D01*
X0145726Y0150488D01*
X0145578Y0150492D01*
X0145430Y0150500D01*
X0145283Y0150512D01*
X0145136Y0150528D01*
X0144989Y0150548D01*
X0144843Y0150572D01*
X0144697Y0150599D01*
X0144553Y0150631D01*
X0144409Y0150666D01*
X0144266Y0150706D01*
X0144125Y0150749D01*
X0143984Y0150796D01*
X0143845Y0150846D01*
X0143708Y0150901D01*
X0143572Y0150959D01*
X0143437Y0151020D01*
X0143304Y0151085D01*
X0143173Y0151154D01*
X0143044Y0151226D01*
X0142917Y0151302D01*
X0142792Y0151381D01*
X0142669Y0151464D01*
X0142548Y0151549D01*
X0142430Y0151638D01*
X0142314Y0151730D01*
X0142201Y0151826D01*
X0142090Y0151924D01*
X0141982Y0152025D01*
X0141876Y0152129D01*
X0141774Y0152235D01*
X0141674Y0152345D01*
X0141578Y0152457D01*
X0141484Y0152572D01*
X0141393Y0152689D01*
X0141306Y0152808D01*
X0141222Y0152930D01*
X0141141Y0153054D01*
X0141064Y0153180D01*
X0140990Y0153308D01*
X0140919Y0153438D01*
X0140852Y0153570D01*
X0140789Y0153704D01*
X0140729Y0153839D01*
X0140673Y0153976D01*
X0140620Y0154115D01*
X0140572Y0154255D01*
X0140527Y0154396D01*
X0140486Y0154538D01*
X0140448Y0154681D01*
X0140415Y0154825D01*
X0140385Y0154970D01*
X0140359Y0155116D01*
X0140338Y0155262D01*
X0140320Y0155409D01*
X0140306Y0155556D01*
X0140296Y0155704D01*
X0140290Y0155852D01*
X0140288Y0156000D01*
D12*
X0140788Y0176050D02*
X0140538Y0176300D01*
X0140788Y0176050D02*
X0141289Y0176050D01*
X0141539Y0176300D01*
X0141539Y0176550D01*
X0141289Y0176801D01*
X0140788Y0176801D01*
X0140538Y0177051D01*
X0140538Y0177301D01*
X0140788Y0177551D01*
X0141289Y0177551D01*
X0141539Y0177301D01*
X0142011Y0177301D02*
X0142512Y0176801D01*
X0142512Y0176050D01*
X0142512Y0176801D02*
X0143012Y0177301D01*
X0143012Y0177551D01*
X0143484Y0177301D02*
X0143735Y0177551D01*
X0144235Y0177551D01*
X0144485Y0177301D01*
X0144235Y0176801D02*
X0144485Y0176550D01*
X0144485Y0176300D01*
X0144235Y0176050D01*
X0143735Y0176050D01*
X0143484Y0176300D01*
X0143735Y0176801D02*
X0144235Y0176801D01*
X0143735Y0176801D02*
X0143484Y0177051D01*
X0143484Y0177301D01*
X0142011Y0177301D02*
X0142011Y0177551D01*
X0140066Y0177551D02*
X0140066Y0176550D01*
X0139565Y0176050D01*
X0139065Y0176550D01*
X0139065Y0177551D01*
X0137119Y0177301D02*
X0137119Y0176801D01*
X0136869Y0176550D01*
X0136118Y0176550D01*
X0136118Y0176050D02*
X0136118Y0177551D01*
X0136869Y0177551D01*
X0137119Y0177301D01*
X0136619Y0176550D02*
X0137119Y0176050D01*
X0135646Y0176300D02*
X0135646Y0177301D01*
X0135396Y0177551D01*
X0134895Y0177551D01*
X0134645Y0177301D01*
X0134645Y0176300D01*
X0134895Y0176050D01*
X0135396Y0176050D01*
X0135646Y0176300D01*
X0134173Y0177551D02*
X0133172Y0177551D01*
X0133172Y0176050D01*
X0133172Y0176801D02*
X0133672Y0176801D01*
X0131226Y0177551D02*
X0130225Y0177551D01*
X0130225Y0176050D01*
X0131226Y0176050D01*
X0130726Y0176801D02*
X0130225Y0176801D01*
X0129753Y0176801D02*
X0129252Y0176801D01*
X0129753Y0176801D02*
X0129753Y0176300D01*
X0129503Y0176050D01*
X0129002Y0176050D01*
X0128752Y0176300D01*
X0128752Y0177301D01*
X0129002Y0177551D01*
X0129503Y0177551D01*
X0129753Y0177301D01*
X0128280Y0177301D02*
X0128029Y0177551D01*
X0127279Y0177551D01*
X0127279Y0176050D01*
X0128029Y0176050D01*
X0128280Y0176300D01*
X0128280Y0177301D01*
X0126797Y0177551D02*
X0126297Y0177551D01*
X0126547Y0177551D02*
X0126547Y0176050D01*
X0126297Y0176050D02*
X0126797Y0176050D01*
X0125824Y0176050D02*
X0125324Y0176550D01*
X0125574Y0176550D02*
X0124823Y0176550D01*
X0124351Y0176550D02*
X0124351Y0176300D01*
X0124101Y0176050D01*
X0123350Y0176050D01*
X0123350Y0177551D01*
X0124101Y0177551D01*
X0124351Y0177301D01*
X0124351Y0177051D01*
X0124101Y0176801D01*
X0123350Y0176801D01*
X0124101Y0176801D02*
X0124351Y0176550D01*
X0124823Y0176050D02*
X0124823Y0177551D01*
X0125574Y0177551D01*
X0125824Y0177301D01*
X0125824Y0176801D01*
X0125574Y0176550D01*
D13*
X0135351Y0084015D02*
X0135353Y0084054D01*
X0135359Y0084093D01*
X0135369Y0084131D01*
X0135382Y0084168D01*
X0135399Y0084203D01*
X0135419Y0084237D01*
X0135443Y0084268D01*
X0135470Y0084297D01*
X0135499Y0084323D01*
X0135531Y0084346D01*
X0135565Y0084366D01*
X0135601Y0084382D01*
X0135638Y0084394D01*
X0135677Y0084403D01*
X0135716Y0084408D01*
X0135755Y0084409D01*
X0135794Y0084406D01*
X0135833Y0084399D01*
X0135870Y0084388D01*
X0135907Y0084374D01*
X0135942Y0084356D01*
X0135975Y0084335D01*
X0136006Y0084310D01*
X0136034Y0084283D01*
X0136059Y0084253D01*
X0136081Y0084220D01*
X0136100Y0084186D01*
X0136115Y0084150D01*
X0136127Y0084112D01*
X0136135Y0084074D01*
X0136139Y0084035D01*
X0136139Y0083995D01*
X0136135Y0083956D01*
X0136127Y0083918D01*
X0136115Y0083880D01*
X0136100Y0083844D01*
X0136081Y0083810D01*
X0136059Y0083777D01*
X0136034Y0083747D01*
X0136006Y0083720D01*
X0135975Y0083695D01*
X0135942Y0083674D01*
X0135907Y0083656D01*
X0135870Y0083642D01*
X0135833Y0083631D01*
X0135794Y0083624D01*
X0135755Y0083621D01*
X0135716Y0083622D01*
X0135677Y0083627D01*
X0135638Y0083636D01*
X0135601Y0083648D01*
X0135565Y0083664D01*
X0135531Y0083684D01*
X0135499Y0083707D01*
X0135470Y0083733D01*
X0135443Y0083762D01*
X0135419Y0083793D01*
X0135399Y0083827D01*
X0135382Y0083862D01*
X0135369Y0083899D01*
X0135359Y0083937D01*
X0135353Y0083976D01*
X0135351Y0084015D01*
D14*
X0137477Y0086771D02*
X0126139Y0086771D01*
X0126139Y0020629D01*
X0137477Y0020629D01*
X0137477Y0086771D01*
D15*
X0019800Y0199000D02*
X0019800Y0209000D01*
X0029800Y0209000D01*
X0094800Y0209000D02*
X0099800Y0209000D01*
X0099800Y0214000D01*
X0124800Y0214000D01*
X0124800Y0209000D01*
X0129800Y0209000D01*
D16*
X0114431Y0174304D02*
X0114431Y0169700D01*
X0115965Y0169700D02*
X0112896Y0169700D01*
X0111361Y0169700D02*
X0109827Y0171235D01*
X0110594Y0171235D02*
X0108292Y0171235D01*
X0108292Y0169700D02*
X0108292Y0174304D01*
X0110594Y0174304D01*
X0111361Y0173537D01*
X0111361Y0172002D01*
X0110594Y0171235D01*
X0112896Y0172769D02*
X0114431Y0174304D01*
X0032277Y0214200D02*
X0029208Y0214200D01*
X0030742Y0214200D02*
X0030742Y0218804D01*
X0029208Y0217269D01*
X0027673Y0218037D02*
X0026906Y0218804D01*
X0025371Y0218804D01*
X0024604Y0218037D01*
X0024604Y0217269D01*
X0025371Y0216502D01*
X0026906Y0216502D01*
X0027673Y0215735D01*
X0027673Y0214967D01*
X0026906Y0214200D01*
X0025371Y0214200D01*
X0024604Y0214967D01*
X0023069Y0214967D02*
X0023069Y0218804D01*
X0026139Y0219571D02*
X0026139Y0213433D01*
X0023069Y0214967D02*
X0022302Y0214200D01*
X0020767Y0214200D01*
X0020000Y0214967D01*
X0020000Y0218804D01*
M02*
