%
M48
M72
T01C0.01300
T02C0.01969
T03C0.02200
T04C0.07874
T05C0.11024
%
T01
X99500Y29000
X101900Y26700
X105200Y25500
X103600Y33900
X101300Y36400
X106800Y40400
X110000Y42500
X106300Y46500
X110100Y48900
X110300Y54500
X114100Y53400
X119100Y55800
X122100Y49700
X118500Y44200
X117800Y37800
X117300Y31400
X117900Y23100
X121500Y21700
X131800Y21500
X139100Y22700
X143100Y22800
X147700Y23400
X149200Y26700
X150100Y33200
X151500Y35900
X157000Y36400
X157800Y40000
X150500Y43800
X146600Y46000
X142600Y46800
X144000Y40400
X144800Y31600
X159800Y49200
X163500Y51100
X154500Y57200
X156000Y62000
X153800Y67300
X152300Y70400
X152300Y74300
X147300Y73300
X144103Y75000
X142500Y78300
X142103Y81500
X141600Y70800
X143000Y62000
X147600Y59100
X150800Y53400
X142400Y54400
X120500Y64600
X115500Y64100
X111500Y68700
X113000Y72500
X116600Y71000
X113000Y76500
X116100Y79400
X120300Y76800
X121800Y81000
X128300Y90500
X108000Y63600
X103800Y63100
X107400Y58600
X169300Y16500
X169300Y123000
X137300Y185500
X94800Y215000
X214800Y212000
T02
X64800Y25500
X66800Y93000
X66800Y153500
X21800Y169000
X10300Y214000
X117300Y183000
T03
X114800Y189000
X109800Y189000
X104800Y189000
X99800Y189000
X94800Y189000
X89800Y189000
X84800Y189000
X79800Y189000
X74800Y189000
X69800Y189000
X64800Y189000
X59800Y189000
X54800Y189000
X49800Y189000
X44800Y189000
X39800Y189000
X34800Y189000
X29800Y189000
X29800Y199000
X34800Y199000
X39800Y199000
X44800Y199000
X49800Y199000
X54800Y199000
X59800Y199000
X64800Y199000
X69800Y199000
X74800Y199000
X79800Y199000
X84800Y199000
X89800Y199000
X94800Y199000
X99800Y199000
X104800Y199000
X109800Y199000
X114800Y199000
X119800Y199000
X124800Y199000
X129800Y199000
X134800Y199000
X139800Y199000
X144800Y199000
X149800Y199000
X154800Y199000
X159800Y199000
X164800Y199000
X169800Y199000
X174800Y199000
X179800Y199000
X184800Y199000
X189800Y199000
X194800Y199000
X194800Y189000
X189800Y189000
X184800Y189000
X179800Y189000
X174800Y189000
X169800Y189000
X164800Y189000
X159800Y189000
X154800Y189000
X149800Y189000
X144800Y189000
X139800Y189000
X134800Y189000
X129800Y189000
X124800Y189000
X119800Y189000
T04
X52162Y125748
X133265Y12795
T05
X145800Y156000
M30
