G75*
%MOIN*%
%OFA0B0*%
%FSLAX25Y25*%
%IPPOS*%
%LPD*%
%AMOC8*
5,1,8,0,0,1.08239X$1,22.5*
%
%ADD10C,0.11824*%
%ADD11C,0.08674*%
%ADD12R,0.05288X0.01587*%
%ADD13C,0.04800*%
%ADD14R,0.03556X0.04343*%
D10*
X0145800Y0156000D03*
D11*
X0052162Y0125748D03*
X0133265Y0012795D03*
D12*
X0126611Y0025354D03*
X0126611Y0026928D03*
X0126611Y0028503D03*
X0126611Y0030078D03*
X0126611Y0031653D03*
X0126611Y0033228D03*
X0126611Y0034802D03*
X0126611Y0036377D03*
X0126611Y0037952D03*
X0126611Y0039527D03*
X0126611Y0041102D03*
X0126611Y0042676D03*
X0126611Y0044251D03*
X0126611Y0045826D03*
X0126611Y0047401D03*
X0126611Y0048976D03*
X0126611Y0050550D03*
X0126611Y0052125D03*
X0126611Y0053700D03*
X0126611Y0055275D03*
X0126611Y0056850D03*
X0126611Y0058424D03*
X0126611Y0059999D03*
X0126611Y0061574D03*
X0126611Y0063149D03*
X0126611Y0064724D03*
X0126611Y0066298D03*
X0126611Y0067873D03*
X0126611Y0069448D03*
X0126611Y0071023D03*
X0126611Y0072598D03*
X0126611Y0074172D03*
X0126611Y0075747D03*
X0126611Y0077322D03*
X0126611Y0078897D03*
X0126611Y0080472D03*
X0126611Y0082046D03*
X0137005Y0082046D03*
X0137005Y0080472D03*
X0137005Y0078897D03*
X0137005Y0077322D03*
X0137005Y0075747D03*
X0137005Y0074172D03*
X0137005Y0072598D03*
X0137005Y0071023D03*
X0137005Y0069448D03*
X0137005Y0067873D03*
X0137005Y0066298D03*
X0137005Y0064724D03*
X0137005Y0063149D03*
X0137005Y0061574D03*
X0137005Y0059999D03*
X0137005Y0058424D03*
X0137005Y0056850D03*
X0137005Y0055275D03*
X0137005Y0053700D03*
X0137005Y0052125D03*
X0137005Y0050550D03*
X0137005Y0048976D03*
X0137005Y0047401D03*
X0137005Y0045826D03*
X0137005Y0044251D03*
X0137005Y0042676D03*
X0137005Y0041102D03*
X0137005Y0039527D03*
X0137005Y0037952D03*
X0137005Y0036377D03*
X0137005Y0034802D03*
X0137005Y0033228D03*
X0137005Y0031653D03*
X0137005Y0030078D03*
X0137005Y0028503D03*
X0137005Y0026928D03*
X0137005Y0025354D03*
D13*
X0134800Y0189000D03*
X0129800Y0189000D03*
X0124800Y0189000D03*
X0119800Y0189000D03*
X0114800Y0189000D03*
X0109800Y0189000D03*
X0104800Y0189000D03*
X0099800Y0189000D03*
X0094800Y0189000D03*
X0089800Y0189000D03*
X0084800Y0189000D03*
X0079800Y0189000D03*
X0074800Y0189000D03*
X0069800Y0189000D03*
X0064800Y0189000D03*
X0059800Y0189000D03*
X0054800Y0189000D03*
X0049800Y0189000D03*
X0044800Y0189000D03*
X0039800Y0189000D03*
X0034800Y0189000D03*
X0029800Y0189000D03*
X0029800Y0199000D03*
X0034800Y0199000D03*
X0039800Y0199000D03*
X0044800Y0199000D03*
X0049800Y0199000D03*
X0054800Y0199000D03*
X0059800Y0199000D03*
X0064800Y0199000D03*
X0069800Y0199000D03*
X0074800Y0199000D03*
X0079800Y0199000D03*
X0084800Y0199000D03*
X0089800Y0199000D03*
X0094800Y0199000D03*
X0099800Y0199000D03*
X0104800Y0199000D03*
X0109800Y0199000D03*
X0114800Y0199000D03*
X0119800Y0199000D03*
X0124800Y0199000D03*
X0129800Y0199000D03*
X0134800Y0199000D03*
X0139800Y0199000D03*
X0144800Y0199000D03*
X0149800Y0199000D03*
X0154800Y0199000D03*
X0159800Y0199000D03*
X0164800Y0199000D03*
X0169800Y0199000D03*
X0174800Y0199000D03*
X0179800Y0199000D03*
X0184800Y0199000D03*
X0189800Y0199000D03*
X0194800Y0199000D03*
X0194800Y0189000D03*
X0189800Y0189000D03*
X0184800Y0189000D03*
X0179800Y0189000D03*
X0174800Y0189000D03*
X0169800Y0189000D03*
X0164800Y0189000D03*
X0159800Y0189000D03*
X0154800Y0189000D03*
X0149800Y0189000D03*
X0144800Y0189000D03*
X0139800Y0189000D03*
D14*
X0117359Y0177000D03*
X0112241Y0177000D03*
M02*
